<ttFont>
<head>
    <!-- Most of this table will be recalculated by the compiler -->
    <tableVersion value="1.0"/>
    <fontRevision value="1.0"/>
    <checkSumAdjustment value="0x7baa28e1"/>
    <magicNumber value="0x5f0f3cf5"/>
    <flags value="00000000 00011011"/>
    <unitsPerEm value="1000"/>
    <created value="Sat Dec  6 13:43:38 2025"/>
    <modified value="Sat Dec  6 13:48:17 2025"/>
    <xMin value="-98"/>
    <yMin value="-251"/>
    <xMax value="1052"/>
    <yMax value="758"/>
    <macStyle value="00000000 00000010"/>
    <lowestRecPPEM value="6"/>
    <fontDirectionHint value="2"/>
    <indexToLocFormat value="0"/>
    <glyphDataFormat value="0"/>
  </head>
    <TTGlyph name="A" xMin="27" yMin="0" xMax="619" yMax="694">
      <contour>
        <pt x="101" y="0" on="1"/>
        <pt x="27" y="0" on="1"/>
        <pt x="427" y="694" on="1"/>
        <pt x="514" y="694" on="1"/>
        <pt x="619" y="0" on="1"/>
        <pt x="530" y="0" on="1"/>
        <pt x="499" y="203" on="1"/>
        <pt x="217" y="203" on="1"/>
      </contour>
      <contour>
        <pt x="459" y="496" on="1"/>
        <pt x="458" y="507" on="0"/>
        <pt x="453" y="540" on="0"/>
        <pt x="449" y="576" on="0"/>
        <pt x="447" y="609" on="0"/>
        <pt x="448" y="619" on="1"/>
        <pt x="447" y="619" on="1"/>
        <pt x="443" y="608" on="0"/>
        <pt x="417" y="560" on="0"/>
        <pt x="389" y="507" on="0"/>
        <pt x="363" y="461" on="0"/>
        <pt x="358" y="452" on="1"/>
        <pt x="250" y="259" on="1"/>
        <pt x="491" y="259" on="1"/>
      </contour>
    </TTGlyph>
    <TTGlyph name="AE" xMin="27" yMin="0" xMax="932" yMax="694">
      <contour>
        <pt x="101" y="0" on="1"/>
        <pt x="27" y="0" on="1"/>
        <pt x="449" y="694" on="1"/>
        <pt x="932" y="694" on="1"/>
        <pt x="919" y="631" on="1"/>
        <pt x="769" y="631" on="1"/>
        <pt x="760" y="631" on="0"/>
        <pt x="742" y="632" on="0"/>
        <pt x="733" y="632" on="1"/>
        <pt x="626" y="632" on="1"/>
        <pt x="575" y="391" on="1"/>
        <pt x="840" y="391" on="1"/>
        <pt x="827" y="331" on="1"/>
        <pt x="562" y="331" on="1"/>
        <pt x="506" y="67" on="1"/>
        <pt x="667" y="67" on="1"/>
        <pt x="676" y="67" on="0"/>
        <pt x="694" y="68" on="0"/>
        <pt x="703" y="68" on="1"/>
        <pt x="812" y="68" on="1"/>
        <pt x="798" y="0" on="1"/>
        <pt x="407" y="0" on="1"/>
        <pt x="454" y="222" on="1"/>
        <pt x="236" y="222" on="1"/>
      </contour>
      <contour>
        <pt x="270" y="278" on="1"/>
        <pt x="466" y="278" on="1"/>
        <pt x="541" y="632" on="1"/>
        <pt x="486" y="632" on="1"/>
      </contour>
    </TTGlyph>
    <TTGlyph name="B" xMin="93" yMin="0" xMax="680" yMax="694">
      <contour>
        <pt x="472" y="694" on="1"/>
        <pt x="517" y="694" on="0"/>
        <pt x="594" y="671" on="0"/>
        <pt x="649" y="631" on="0"/>
        <pt x="680" y="577" on="0"/>
        <pt x="680" y="545" on="1"/>
        <pt x="680" y="511" on="0"/>
        <pt x="645" y="451" on="0"/>
        <pt x="589" y="405" on="0"/>
        <pt x="518" y="372" on="0"/>
        <pt x="482" y="363" on="1"/>
        <pt x="553" y="351" on="0"/>
        <pt x="638" y="270" on="0"/>
        <pt x="638" y="216" on="1"/>
        <pt x="638" y="177" on="0"/>
        <pt x="592" y="99" on="0"/>
        <pt x="514" y="38" on="0"/>
        <pt x="410" y="0" on="0"/>
        <pt x="351" y="0" on="1"/>
        <pt x="93" y="0" on="1"/>
        <pt x="241" y="694" on="1"/>
      </contour>
      <contour>
        <pt x="381" y="391" on="1"/>
        <pt x="427" y="391" on="0"/>
        <pt x="507" y="416" on="0"/>
        <pt x="567" y="457" on="0"/>
        <pt x="602" y="508" on="0"/>
        <pt x="602" y="534" on="1"/>
        <pt x="602" y="557" on="0"/>
        <pt x="576" y="595" on="0"/>
        <pt x="531" y="623" on="0"/>
        <pt x="468" y="638" on="0"/>
        <pt x="432" y="638" on="1"/>
        <pt x="310" y="638" on="1"/>
        <pt x="257" y="391" on="1"/>
      </contour>
      <contour>
        <pt x="335" y="56" on="1"/>
        <pt x="379" y="56" on="0"/>
        <pt x="460" y="81" on="0"/>
        <pt x="522" y="123" on="0"/>
        <pt x="558" y="179" on="0"/>
        <pt x="558" y="209" on="1"/>
        <pt x="558" y="234" on="0"/>
        <pt x="533" y="279" on="0"/>
        <pt x="486" y="312" on="0"/>
        <pt x="420" y="331" on="0"/>
        <pt x="378" y="331" on="1"/>
        <pt x="244" y="331" on="1"/>
        <pt x="186" y="56" on="1"/>
      </contour>
    </TTGlyph>
    <TTGlyph name="C" xMin="130" yMin="-9" xMax="708" yMax="706">
      <contour>
        <pt x="676" y="589" on="1"/>
        <pt x="641" y="616" on="0"/>
        <pt x="572" y="643" on="0"/>
        <pt x="521" y="643" on="1"/>
        <pt x="458" y="643" on="0"/>
        <pt x="347" y="575" on="0"/>
        <pt x="264" y="467" on="0"/>
        <pt x="217" y="334" on="0"/>
        <pt x="217" y="269" on="1"/>
        <pt x="217" y="227" on="0"/>
        <pt x="239" y="149" on="0"/>
        <pt x="284" y="89" on="0"/>
        <pt x="353" y="53" on="0"/>
        <pt x="399" y="53" on="1"/>
        <pt x="431" y="53" on="0"/>
        <pt x="481" y="60" on="0"/>
        <pt x="525" y="75" on="0"/>
        <pt x="569" y="99" on="0"/>
        <pt x="594" y="115" on="1"/>
        <pt x="585" y="46" on="1"/>
        <pt x="559" y="30" on="0"/>
        <pt x="516" y="8" on="0"/>
        <pt x="468" y="-4" on="0"/>
        <pt x="410" y="-9" on="0"/>
        <pt x="369" y="-9" on="1"/>
        <pt x="318" y="-9" on="0"/>
        <pt x="230" y="33" on="0"/>
        <pt x="166" y="106" on="0"/>
        <pt x="130" y="205" on="0"/>
        <pt x="130" y="263" on="1"/>
        <pt x="130" y="342" on="0"/>
        <pt x="193" y="500" on="0"/>
        <pt x="303" y="627" on="0"/>
        <pt x="449" y="706" on="0"/>
        <pt x="532" y="706" on="1"/>
        <pt x="576" y="706" on="0"/>
        <pt x="659" y="691" on="0"/>
        <pt x="708" y="671" on="1"/>
      </contour>
    </TTGlyph>
    <TTGlyph name="D" xMin="91" yMin="0" xMax="731" yMax="694">
      <contour>
        <pt x="495" y="694" on="1"/>
        <pt x="550" y="694" on="0"/>
        <pt x="637" y="652" on="0"/>
        <pt x="698" y="580" on="0"/>
        <pt x="731" y="483" on="0"/>
        <pt x="731" y="427" on="1"/>
        <pt x="731" y="344" on="0"/>
        <pt x="666" y="190" on="0"/>
        <pt x="560" y="71" on="0"/>
        <pt x="422" y="0" on="0"/>
        <pt x="348" y="0" on="1"/>
        <pt x="91" y="0" on="1"/>
        <pt x="239" y="694" on="1"/>
      </contour>
      <contour>
        <pt x="187" y="56" on="1"/>
        <pt x="337" y="56" on="1"/>
        <pt x="403" y="56" on="0"/>
        <pt x="516" y="118" on="0"/>
        <pt x="599" y="220" on="0"/>
        <pt x="647" y="354" on="0"/>
        <pt x="647" y="426" on="1"/>
        <pt x="647" y="478" on="0"/>
        <pt x="619" y="557" on="0"/>
        <pt x="569" y="611" on="0"/>
        <pt x="501" y="638" on="0"/>
        <pt x="460" y="638" on="1"/>
        <pt x="311" y="638" on="1"/>
      </contour>
    </TTGlyph>
    <TTGlyph name="E" xMin="90" yMin="0" xMax="675" yMax="692">
      <contour>
        <pt x="190" y="67" on="1"/>
        <pt x="389" y="67" on="1"/>
        <pt x="398" y="67" on="0"/>
        <pt x="416" y="68" on="0"/>
        <pt x="425" y="68" on="1"/>
        <pt x="555" y="68" on="1"/>
        <pt x="541" y="0" on="1"/>
        <pt x="90" y="0" on="1"/>
        <pt x="237" y="692" on="1"/>
        <pt x="675" y="692" on="1"/>
        <pt x="662" y="629" on="1"/>
        <pt x="482" y="629" on="1"/>
        <pt x="473" y="629" on="0"/>
        <pt x="455" y="630" on="0"/>
        <pt x="446" y="630" on="1"/>
        <pt x="310" y="630" on="1"/>
        <pt x="259" y="390" on="1"/>
        <pt x="583" y="390" on="1"/>
        <pt x="570" y="330" on="1"/>
        <pt x="246" y="330" on="1"/>
      </contour>
    </TTGlyph>
    <TTGlyph name="F" xMin="90" yMin="0" xMax="661" yMax="692">
      <contour>
        <pt x="176" y="0" on="1"/>
        <pt x="90" y="0" on="1"/>
        <pt x="237" y="692" on="1"/>
        <pt x="661" y="692" on="1"/>
        <pt x="648" y="629" on="1"/>
        <pt x="475" y="629" on="1"/>
        <pt x="466" y="629" on="0"/>
        <pt x="448" y="630" on="0"/>
        <pt x="439" y="630" on="1"/>
        <pt x="310" y="630" on="1"/>
        <pt x="256" y="376" on="1"/>
        <pt x="553" y="376" on="1"/>
        <pt x="540" y="316" on="1"/>
        <pt x="243" y="316" on="1"/>
      </contour>
    </TTGlyph>
    <TTGlyph name="G" xMin="130" yMin="-10" xMax="719" yMax="705">
      <contour>
        <pt x="687" y="575" on="1"/>
        <pt x="669" y="592" on="0"/>
        <pt x="636" y="617" on="0"/>
        <pt x="597" y="633" on="0"/>
        <pt x="549" y="642" on="0"/>
        <pt x="517" y="642" on="1"/>
        <pt x="456" y="642" on="0"/>
        <pt x="347" y="574" on="0"/>
        <pt x="265" y="467" on="0"/>
        <pt x="217" y="335" on="0"/>
        <pt x="217" y="270" on="1"/>
        <pt x="217" y="230" on="0"/>
        <pt x="239" y="152" on="0"/>
        <pt x="282" y="90" on="0"/>
        <pt x="349" y="53" on="0"/>
        <pt x="394" y="53" on="1"/>
        <pt x="428" y="53" on="0"/>
        <pt x="494" y="65" on="0"/>
        <pt x="526" y="74" on="1"/>
        <pt x="562" y="242" on="1"/>
        <pt x="432" y="242" on="1"/>
        <pt x="445" y="303" on="1"/>
        <pt x="652" y="303" on="1"/>
        <pt x="596" y="39" on="1"/>
        <pt x="547" y="16" on="0"/>
        <pt x="437" y="-10" on="0"/>
        <pt x="380" y="-10" on="1"/>
        <pt x="321" y="-10" on="0"/>
        <pt x="228" y="34" on="0"/>
        <pt x="164" y="109" on="0"/>
        <pt x="130" y="209" on="0"/>
        <pt x="130" y="264" on="1"/>
        <pt x="130" y="345" on="0"/>
        <pt x="195" y="503" on="0"/>
        <pt x="306" y="628" on="0"/>
        <pt x="455" y="705" on="0"/>
        <pt x="539" y="705" on="1"/>
        <pt x="567" y="705" on="0"/>
        <pt x="611" y="700" on="0"/>
        <pt x="653" y="689" on="0"/>
        <pt x="694" y="671" on="0"/>
        <pt x="719" y="657" on="1"/>
      </contour>
    </TTGlyph>
    <TTGlyph name="Gamma" xMin="90" yMin="0" xMax="634" yMax="692">
      <contour>
        <pt x="176" y="0" on="1"/>
        <pt x="90" y="0" on="1"/>
        <pt x="237" y="692" on="1"/>
        <pt x="634" y="692" on="1"/>
        <pt x="621" y="629" on="1"/>
        <pt x="462" y="629" on="1"/>
        <pt x="453" y="629" on="0"/>
        <pt x="435" y="630" on="0"/>
        <pt x="426" y="630" on="1"/>
        <pt x="310" y="630" on="1"/>
      </contour>
    </TTGlyph>
    <TTGlyph name="H" xMin="90" yMin="0" xMax="743" yMax="694">
      <contour>
        <pt x="595" y="0" on="1"/>
        <pt x="509" y="0" on="1"/>
        <pt x="579" y="331" on="1"/>
        <pt x="246" y="331" on="1"/>
        <pt x="176" y="0" on="1"/>
        <pt x="90" y="0" on="1"/>
        <pt x="238" y="694" on="1"/>
        <pt x="324" y="694" on="1"/>
        <pt x="259" y="391" on="1"/>
        <pt x="592" y="391" on="1"/>
        <pt x="657" y="694" on="1"/>
        <pt x="743" y="694" on="1"/>
      </contour>
    </TTGlyph>
    <TTGlyph name="I" xMin="90" yMin="0" xMax="324" yMax="694">
      <contour>
        <pt x="176" y="0" on="1"/>
        <pt x="90" y="0" on="1"/>
        <pt x="238" y="694" on="1"/>
        <pt x="324" y="694" on="1"/>
      </contour>
    </TTGlyph>
    <TTGlyph name="J" xMin="46" yMin="-21" xMax="527" yMax="694">
      <contour>
        <pt x="409" y="143" on="1"/>
        <pt x="402" y="109" on="0"/>
        <pt x="368" y="50" on="0"/>
        <pt x="316" y="5" on="0"/>
        <pt x="247" y="-21" on="0"/>
        <pt x="204" y="-21" on="1"/>
        <pt x="173" y="-21" on="0"/>
        <pt x="120" y="-11" on="0"/>
        <pt x="80" y="3" on="0"/>
        <pt x="52" y="17" on="0"/>
        <pt x="46" y="21" on="1"/>
        <pt x="75" y="96" on="1"/>
        <pt x="78" y="92" on="0"/>
        <pt x="93" y="73" on="0"/>
        <pt x="120" y="55" on="0"/>
        <pt x="161" y="41" on="0"/>
        <pt x="188" y="41" on="1"/>
        <pt x="220" y="41" on="0"/>
        <pt x="269" y="59" on="0"/>
        <pt x="303" y="89" on="0"/>
        <pt x="323" y="128" on="0"/>
        <pt x="327" y="148" on="1"/>
        <pt x="443" y="694" on="1"/>
        <pt x="527" y="694" on="1"/>
      </contour>
    </TTGlyph>
    <TTGlyph name="K" xMin="91" yMin="0" xMax="767" yMax="694">
      <contour>
        <pt x="632" y="0" on="1"/>
        <pt x="540" y="0" on="1"/>
        <pt x="381" y="362" on="1"/>
        <pt x="223" y="226" on="1"/>
        <pt x="175" y="0" on="1"/>
        <pt x="91" y="0" on="1"/>
        <pt x="239" y="694" on="1"/>
        <pt x="323" y="694" on="1"/>
        <pt x="244" y="325" on="1"/>
        <pt x="673" y="694" on="1"/>
        <pt x="767" y="694" on="1"/>
        <pt x="447" y="419" on="1"/>
      </contour>
    </TTGlyph>
    <TTGlyph name="L" xMin="90" yMin="0" xMax="500" yMax="694">
      <contour>
        <pt x="189" y="62" on="1"/>
        <pt x="238" y="62" on="1"/>
        <pt x="304" y="62" on="0"/>
        <pt x="434" y="62" on="0"/>
        <pt x="500" y="64" on="1"/>
        <pt x="487" y="0" on="1"/>
        <pt x="90" y="0" on="1"/>
        <pt x="238" y="694" on="1"/>
        <pt x="324" y="694" on="1"/>
      </contour>
    </TTGlyph>
    <TTGlyph name="Lambda" xMin="27" yMin="0" xMax="565" yMax="694">
      <contour>
        <pt x="100" y="0" on="1"/>
        <pt x="27" y="0" on="1"/>
        <pt x="400" y="694" on="1"/>
        <pt x="487" y="694" on="1"/>
        <pt x="565" y="0" on="1"/>
        <pt x="474" y="0" on="1"/>
        <pt x="440" y="313" on="1"/>
        <pt x="437" y="344" on="0"/>
        <pt x="430" y="414" on="0"/>
        <pt x="427" y="448" on="1"/>
        <pt x="422" y="517" on="0"/>
        <pt x="418" y="585" on="0"/>
        <pt x="418" y="595" on="1"/>
        <pt x="418" y="614" on="0"/>
        <pt x="420" y="622" on="1"/>
        <pt x="419" y="622" on="1"/>
        <pt x="415" y="609" on="0"/>
        <pt x="402" y="578" on="0"/>
        <pt x="382" y="536" on="0"/>
        <pt x="353" y="480" on="0"/>
        <pt x="333" y="441" on="1"/>
        <pt x="257" y="293" on="1"/>
      </contour>
    </TTGlyph>
    <TTGlyph name="M" xMin="95" yMin="0" xMax="902" yMax="694">
      <contour>
        <pt x="754" y="0" on="1"/>
        <pt x="677" y="0" on="1"/>
        <pt x="808" y="615" on="1"/>
        <pt x="807" y="615" on="1"/>
        <pt x="807" y="615" on="0"/>
        <pt x="793" y="589" on="0"/>
        <pt x="772" y="552" on="0"/>
        <pt x="750" y="511" on="0"/>
        <pt x="741" y="495" on="1"/>
        <pt x="668" y="367" on="1"/>
        <pt x="465" y="21" on="1"/>
        <pt x="391" y="21" on="1"/>
        <pt x="329" y="412" on="1"/>
        <pt x="325" y="435" on="0"/>
        <pt x="317" y="489" on="0"/>
        <pt x="310" y="545" on="0"/>
        <pt x="305" y="597" on="0"/>
        <pt x="305" y="617" on="1"/>
        <pt x="304" y="617" on="1"/>
        <pt x="172" y="0" on="1"/>
        <pt x="95" y="0" on="1"/>
        <pt x="243" y="694" on="1"/>
        <pt x="356" y="694" on="1"/>
        <pt x="412" y="347" on="1"/>
        <pt x="416" y="322" on="0"/>
        <pt x="427" y="253" on="0"/>
        <pt x="437" y="182" on="0"/>
        <pt x="444" y="116" on="0"/>
        <pt x="444" y="95" on="1"/>
        <pt x="445" y="95" on="1"/>
        <pt x="449" y="104" on="0"/>
        <pt x="466" y="137" on="0"/>
        <pt x="486" y="174" on="0"/>
        <pt x="505" y="208" on="0"/>
        <pt x="511" y="218" on="1"/>
        <pt x="588" y="354" on="1"/>
        <pt x="788" y="694" on="1"/>
        <pt x="902" y="694" on="1"/>
      </contour>
    </TTGlyph>
    <TTGlyph name="N" xMin="91" yMin="0" xMax="742" yMax="694">
      <contour>
        <pt x="594" y="0" on="1"/>
        <pt x="471" y="0" on="1"/>
        <pt x="301" y="618" on="1"/>
        <pt x="300" y="618" on="1"/>
        <pt x="168" y="0" on="1"/>
        <pt x="91" y="0" on="1"/>
        <pt x="239" y="694" on="1"/>
        <pt x="362" y="694" on="1"/>
        <pt x="532" y="76" on="1"/>
        <pt x="533" y="76" on="1"/>
        <pt x="665" y="694" on="1"/>
        <pt x="742" y="694" on="1"/>
      </contour>
    </TTGlyph>
    <TTGlyph name="O" xMin="117" yMin="-21" xMax="750" yMax="715">
      <contour>
        <pt x="750" y="437" on="1"/>
        <pt x="750" y="347" on="0"/>
        <pt x="681" y="181" on="0"/>
        <pt x="570" y="54" on="0"/>
        <pt x="429" y="-21" on="0"/>
        <pt x="356" y="-21" on="1"/>
        <pt x="302" y="-21" on="0"/>
        <pt x="214" y="21" on="0"/>
        <pt x="151" y="95" on="0"/>
        <pt x="117" y="196" on="0"/>
        <pt x="117" y="254" on="1"/>
        <pt x="117" y="312" on="0"/>
        <pt x="148" y="425" on="0"/>
        <pt x="202" y="528" on="0"/>
        <pt x="277" y="615" on="0"/>
        <pt x="365" y="679" on="0"/>
        <pt x="462" y="715" on="0"/>
        <pt x="512" y="715" on="1"/>
        <pt x="561" y="715" on="0"/>
        <pt x="648" y="677" on="0"/>
        <pt x="712" y="605" on="0"/>
        <pt x="750" y="502" on="0"/>
      </contour>
      <contour>
        <pt x="370" y="42" on="1"/>
        <pt x="409" y="42" on="0"/>
        <pt x="483" y="75" on="0"/>
        <pt x="549" y="134" on="0"/>
        <pt x="605" y="212" on="0"/>
        <pt x="645" y="301" on="0"/>
        <pt x="667" y="398" on="0"/>
        <pt x="667" y="445" on="1"/>
        <pt x="667" y="495" on="0"/>
        <pt x="641" y="572" on="0"/>
        <pt x="596" y="625" on="0"/>
        <pt x="534" y="653" on="0"/>
        <pt x="499" y="653" on="1"/>
        <pt x="444" y="653" on="0"/>
        <pt x="338" y="590" on="0"/>
        <pt x="256" y="483" on="0"/>
        <pt x="205" y="341" on="0"/>
        <pt x="205" y="261" on="1"/>
        <pt x="205" y="215" on="0"/>
        <pt x="227" y="135" on="0"/>
        <pt x="270" y="76" on="0"/>
        <pt x="331" y="42" on="0"/>
      </contour>
    </TTGlyph>
    <TTGlyph name="OE" xMin="88" yMin="-21" xMax="1041" yMax="715">
      <contour>
        <pt x="557" y="67" on="1"/>
        <pt x="755" y="67" on="1"/>
        <pt x="764" y="67" on="0"/>
        <pt x="782" y="68" on="0"/>
        <pt x="791" y="68" on="1"/>
        <pt x="921" y="68" on="1"/>
        <pt x="907" y="0" on="1"/>
        <pt x="505" y="0" on="1"/>
        <pt x="494" y="0" on="0"/>
        <pt x="460" y="-3" on="0"/>
        <pt x="418" y="-11" on="1"/>
        <pt x="396" y="-16" on="0"/>
        <pt x="363" y="-21" on="0"/>
        <pt x="344" y="-21" on="1"/>
        <pt x="290" y="-21" on="0"/>
        <pt x="197" y="19" on="0"/>
        <pt x="128" y="93" on="0"/>
        <pt x="88" y="196" on="0"/>
        <pt x="88" y="259" on="1"/>
        <pt x="88" y="318" on="0"/>
        <pt x="121" y="432" on="0"/>
        <pt x="179" y="533" on="0"/>
        <pt x="257" y="619" on="0"/>
        <pt x="349" y="680" on="0"/>
        <pt x="449" y="715" on="0"/>
        <pt x="500" y="715" on="1"/>
        <pt x="514" y="715" on="0"/>
        <pt x="545" y="712" on="0"/>
        <pt x="579" y="704" on="1"/>
        <pt x="611" y="696" on="0"/>
        <pt x="642" y="694" on="0"/>
        <pt x="653" y="694" on="1"/>
        <pt x="1041" y="694" on="1"/>
        <pt x="1028" y="631" on="1"/>
        <pt x="850" y="631" on="1"/>
        <pt x="841" y="631" on="0"/>
        <pt x="823" y="632" on="0"/>
        <pt x="814" y="632" on="1"/>
        <pt x="677" y="632" on="1"/>
        <pt x="626" y="391" on="1"/>
        <pt x="949" y="391" on="1"/>
        <pt x="936" y="331" on="1"/>
        <pt x="613" y="331" on="1"/>
      </contour>
      <contour>
        <pt x="564" y="496" on="1"/>
        <pt x="573" y="538" on="0"/>
        <pt x="576" y="582" on="0"/>
        <pt x="576" y="585" on="1"/>
        <pt x="576" y="600" on="0"/>
        <pt x="571" y="626" on="0"/>
        <pt x="553" y="645" on="0"/>
        <pt x="520" y="655" on="0"/>
        <pt x="491" y="655" on="1"/>
        <pt x="433" y="655" on="0"/>
        <pt x="320" y="595" on="0"/>
        <pt x="230" y="491" on="0"/>
        <pt x="175" y="352" on="0"/>
        <pt x="175" y="273" on="1"/>
        <pt x="175" y="224" on="0"/>
        <pt x="200" y="138" on="0"/>
        <pt x="248" y="75" on="0"/>
        <pt x="317" y="39" on="0"/>
        <pt x="361" y="39" on="1"/>
        <pt x="393" y="39" on="0"/>
        <pt x="436" y="53" on="0"/>
        <pt x="468" y="88" on="0"/>
        <pt x="490" y="149" on="0"/>
        <pt x="500" y="196" on="1"/>
      </contour>
    </TTGlyph>
    <TTGlyph name="Oslash" xMin="118" yMin="-64" xMax="790" yMax="758">
      <contour>
        <pt x="716" y="637" on="1"/>
        <pt x="740" y="612" on="0"/>
        <pt x="769" y="556" on="0"/>
        <pt x="785" y="501" on="0"/>
        <pt x="790" y="451" on="0"/>
        <pt x="790" y="432" on="1"/>
        <pt x="790" y="344" on="0"/>
        <pt x="719" y="181" on="0"/>
        <pt x="603" y="55" on="0"/>
        <pt x="454" y="-21" on="0"/>
        <pt x="376" y="-21" on="1"/>
        <pt x="329" y="-21" on="0"/>
        <pt x="258" y="4" on="0"/>
        <pt x="235" y="20" on="1"/>
        <pt x="169" y="-64" on="1"/>
        <pt x="122" y="-34" on="1"/>
        <pt x="192" y="57" on="1"/>
        <pt x="179" y="70" on="0"/>
        <pt x="152" y="109" on="0"/>
        <pt x="131" y="160" on="0"/>
        <pt x="118" y="223" on="0"/>
        <pt x="118" y="260" on="1"/>
        <pt x="118" y="347" on="0"/>
        <pt x="188" y="510" on="0"/>
        <pt x="304" y="638" on="0"/>
        <pt x="453" y="715" on="0"/>
        <pt x="532" y="715" on="1"/>
        <pt x="566" y="715" on="0"/>
        <pt x="636" y="697" on="0"/>
        <pt x="674" y="674" on="1"/>
        <pt x="739" y="758" on="1"/>
        <pt x="787" y="728" on="1"/>
      </contour>
      <contour>
        <pt x="630" y="619" on="1"/>
        <pt x="603" y="639" on="0"/>
        <pt x="545" y="655" on="0"/>
        <pt x="519" y="655" on="1"/>
        <pt x="454" y="655" on="0"/>
        <pt x="339" y="586" on="0"/>
        <pt x="252" y="474" on="0"/>
        <pt x="201" y="331" on="0"/>
        <pt x="201" y="256" on="1"/>
        <pt x="201" y="252" on="0"/>
        <pt x="202" y="222" on="0"/>
        <pt x="210" y="182" on="0"/>
        <pt x="225" y="137" on="0"/>
        <pt x="239" y="117" on="1"/>
      </contour>
      <contour>
        <pt x="278" y="75" on="1"/>
        <pt x="328" y="39" on="0"/>
        <pt x="389" y="39" on="1"/>
        <pt x="452" y="39" on="0"/>
        <pt x="567" y="104" on="0"/>
        <pt x="654" y="213" on="0"/>
        <pt x="706" y="357" on="0"/>
        <pt x="706" y="435" on="1"/>
        <pt x="706" y="445" on="0"/>
        <pt x="705" y="475" on="0"/>
        <pt x="698" y="513" on="0"/>
        <pt x="683" y="555" on="0"/>
        <pt x="669" y="576" on="1"/>
      </contour>
    </TTGlyph>
    <TTGlyph name="P" xMin="91" yMin="0" xMax="677" yMax="694">
      <contour>
        <pt x="177" y="0" on="1"/>
        <pt x="91" y="0" on="1"/>
        <pt x="239" y="694" on="1"/>
        <pt x="483" y="694" on="1"/>
        <pt x="530" y="694" on="0"/>
        <pt x="602" y="667" on="0"/>
        <pt x="651" y="621" on="0"/>
        <pt x="677" y="561" on="0"/>
        <pt x="677" y="529" on="1"/>
        <pt x="677" y="485" on="0"/>
        <pt x="633" y="399" on="0"/>
        <pt x="556" y="331" on="0"/>
        <pt x="454" y="289" on="0"/>
        <pt x="397" y="289" on="1"/>
        <pt x="238" y="289" on="1"/>
      </contour>
      <contour>
        <pt x="249" y="347" on="1"/>
        <pt x="387" y="347" on="1"/>
        <pt x="440" y="347" on="0"/>
        <pt x="519" y="380" on="0"/>
        <pt x="571" y="431" on="0"/>
        <pt x="597" y="493" on="0"/>
        <pt x="597" y="522" on="1"/>
        <pt x="597" y="571" on="0"/>
        <pt x="525" y="638" on="0"/>
        <pt x="449" y="638" on="1"/>
        <pt x="311" y="638" on="1"/>
      </contour>
    </TTGlyph>
    <TTGlyph name="Phi" xMin="123" yMin="0" xMax="730" yMax="694">
      <contour>
        <pt x="516" y="588" on="1"/>
        <pt x="560" y="584" on="0"/>
        <pt x="638" y="552" on="0"/>
        <pt x="696" y="500" on="0"/>
        <pt x="730" y="430" on="0"/>
        <pt x="730" y="387" on="1"/>
        <pt x="730" y="340" on="0"/>
        <pt x="683" y="246" on="0"/>
        <pt x="599" y="168" on="0"/>
        <pt x="482" y="114" on="0"/>
        <pt x="413" y="106" on="1"/>
        <pt x="391" y="0" on="1"/>
        <pt x="310" y="0" on="1"/>
        <pt x="332" y="107" on="1"/>
        <pt x="285" y="112" on="0"/>
        <pt x="208" y="147" on="0"/>
        <pt x="153" y="200" on="0"/>
        <pt x="123" y="268" on="0"/>
        <pt x="123" y="306" on="1"/>
        <pt x="123" y="354" on="0"/>
        <pt x="170" y="447" on="0"/>
        <pt x="254" y="525" on="0"/>
        <pt x="368" y="580" on="0"/>
        <pt x="435" y="588" on="1"/>
        <pt x="457" y="694" on="1"/>
        <pt x="538" y="694" on="1"/>
      </contour>
      <contour>
        <pt x="422" y="527" on="1"/>
        <pt x="366" y="518" on="0"/>
        <pt x="285" y="472" on="0"/>
        <pt x="233" y="411" on="0"/>
        <pt x="208" y="342" on="0"/>
        <pt x="208" y="311" on="1"/>
        <pt x="208" y="277" on="0"/>
        <pt x="232" y="226" on="0"/>
        <pt x="271" y="191" on="0"/>
        <pt x="320" y="171" on="0"/>
        <pt x="345" y="167" on="1"/>
      </contour>
      <contour>
        <pt x="427" y="167" on="1"/>
        <pt x="482" y="174" on="0"/>
        <pt x="564" y="219" on="0"/>
        <pt x="619" y="280" on="0"/>
        <pt x="646" y="351" on="0"/>
        <pt x="646" y="383" on="1"/>
        <pt x="646" y="440" on="0"/>
        <pt x="573" y="518" on="0"/>
        <pt x="503" y="528" on="1"/>
      </contour>
    </TTGlyph>
    <TTGlyph name="Pi" xMin="90" yMin="0" xMax="742" yMax="692">
      <contour>
        <pt x="595" y="0" on="1"/>
        <pt x="509" y="0" on="1"/>
        <pt x="643" y="632" on="1"/>
        <pt x="310" y="632" on="1"/>
        <pt x="176" y="0" on="1"/>
        <pt x="90" y="0" on="1"/>
        <pt x="237" y="692" on="1"/>
        <pt x="742" y="692" on="1"/>
      </contour>
    </TTGlyph>
    <TTGlyph name="Psi" xMin="172" yMin="0" xMax="837" yMax="694">
      <contour>
        <pt x="455" y="169" on="1"/>
        <pt x="497" y="180" on="0"/>
        <pt x="561" y="228" on="0"/>
        <pt x="606" y="294" on="0"/>
        <pt x="636" y="373" on="0"/>
        <pt x="645" y="415" on="1"/>
        <pt x="657" y="470" on="0"/>
        <pt x="679" y="545" on="0"/>
        <pt x="705" y="592" on="0"/>
        <pt x="741" y="613" on="0"/>
        <pt x="766" y="613" on="1"/>
        <pt x="837" y="613" on="1"/>
        <pt x="825" y="553" on="1"/>
        <pt x="824" y="553" on="1"/>
        <pt x="799" y="551" on="0"/>
        <pt x="766" y="522" on="0"/>
        <pt x="744" y="480" on="0"/>
        <pt x="730" y="431" on="0"/>
        <pt x="725" y="409" on="1"/>
        <pt x="714" y="361" on="0"/>
        <pt x="674" y="262" on="0"/>
        <pt x="608" y="178" on="0"/>
        <pt x="511" y="117" on="0"/>
        <pt x="442" y="106" on="1"/>
        <pt x="419" y="0" on="1"/>
        <pt x="338" y="0" on="1"/>
        <pt x="361" y="107" on="1"/>
        <pt x="314" y="114" on="0"/>
        <pt x="252" y="153" on="0"/>
        <pt x="214" y="208" on="0"/>
        <pt x="199" y="275" on="0"/>
        <pt x="199" y="311" on="1"/>
        <pt x="199" y="344" on="0"/>
        <pt x="209" y="405" on="0"/>
        <pt x="211" y="416" on="1"/>
        <pt x="218" y="445" on="0"/>
        <pt x="220" y="482" on="0"/>
        <pt x="220" y="484" on="1"/>
        <pt x="220" y="493" on="0"/>
        <pt x="217" y="516" on="0"/>
        <pt x="208" y="537" on="0"/>
        <pt x="189" y="553" on="0"/>
        <pt x="172" y="554" on="1"/>
        <pt x="184" y="613" on="1"/>
        <pt x="255" y="613" on="1"/>
        <pt x="264" y="613" on="0"/>
        <pt x="284" y="611" on="0"/>
        <pt x="301" y="598" on="0"/>
        <pt x="312" y="571" on="0"/>
        <pt x="312" y="545" on="1"/>
        <pt x="312" y="527" on="0"/>
        <pt x="305" y="474" on="0"/>
        <pt x="295" y="428" on="1"/>
        <pt x="285" y="379" on="0"/>
        <pt x="281" y="335" on="0"/>
        <pt x="281" y="320" on="1"/>
        <pt x="281" y="295" on="0"/>
        <pt x="290" y="243" on="0"/>
        <pt x="304" y="221" on="1"/>
        <pt x="313" y="206" on="0"/>
        <pt x="336" y="186" on="0"/>
        <pt x="356" y="175" on="0"/>
        <pt x="370" y="170" on="0"/>
        <pt x="371" y="170" on="1"/>
        <pt x="373" y="170" on="0"/>
        <pt x="375" y="174" on="0"/>
        <pt x="377" y="183" on="1"/>
        <pt x="486" y="694" on="1"/>
        <pt x="567" y="694" on="1"/>
      </contour>
    </TTGlyph>
    <TTGlyph name="Q" xMin="117" yMin="-125" xMax="750" yMax="715">
      <contour>
        <pt x="453" y="-4" on="1"/>
        <pt x="442" y="-8" on="0"/>
        <pt x="388" y="-21" on="0"/>
        <pt x="356" y="-21" on="1"/>
        <pt x="302" y="-21" on="0"/>
        <pt x="214" y="21" on="0"/>
        <pt x="151" y="95" on="0"/>
        <pt x="117" y="196" on="0"/>
        <pt x="117" y="254" on="1"/>
        <pt x="117" y="312" on="0"/>
        <pt x="148" y="425" on="0"/>
        <pt x="202" y="528" on="0"/>
        <pt x="277" y="615" on="0"/>
        <pt x="365" y="679" on="0"/>
        <pt x="462" y="715" on="0"/>
        <pt x="512" y="715" on="1"/>
        <pt x="561" y="715" on="0"/>
        <pt x="648" y="677" on="0"/>
        <pt x="712" y="605" on="0"/>
        <pt x="750" y="502" on="0"/>
        <pt x="750" y="437" on="1"/>
        <pt x="750" y="397" on="0"/>
        <pt x="731" y="296" on="0"/>
        <pt x="682" y="189" on="0"/>
        <pt x="598" y="82" on="0"/>
        <pt x="533" y="36" on="1"/>
        <pt x="530" y="33" on="0"/>
        <pt x="530" y="33" on="1"/>
        <pt x="612" y="-125" on="1"/>
        <pt x="512" y="-125" on="1"/>
      </contour>
      <contour>
        <pt x="501" y="88" on="1"/>
        <pt x="554" y="129" on="0"/>
        <pt x="619" y="229" on="0"/>
        <pt x="655" y="327" on="0"/>
        <pt x="667" y="412" on="0"/>
        <pt x="667" y="437" on="1"/>
        <pt x="667" y="485" on="0"/>
        <pt x="643" y="564" on="0"/>
        <pt x="599" y="621" on="0"/>
        <pt x="537" y="653" on="0"/>
        <pt x="499" y="653" on="1"/>
        <pt x="441" y="653" on="0"/>
        <pt x="333" y="584" on="0"/>
        <pt x="251" y="471" on="0"/>
        <pt x="201" y="329" on="0"/>
        <pt x="201" y="255" on="1"/>
        <pt x="201" y="206" on="0"/>
        <pt x="227" y="127" on="0"/>
        <pt x="272" y="71" on="0"/>
        <pt x="333" y="41" on="0"/>
        <pt x="369" y="41" on="1"/>
        <pt x="380" y="41" on="0"/>
        <pt x="395" y="42" on="0"/>
        <pt x="407" y="44" on="0"/>
        <pt x="419" y="47" on="0"/>
        <pt x="427" y="50" on="1"/>
        <pt x="359" y="194" on="1"/>
        <pt x="445" y="194" on="1"/>
      </contour>
    </TTGlyph>
    <TTGlyph name="R" xMin="91" yMin="0" xMax="686" yMax="694">
      <contour>
        <pt x="602" y="0" on="1"/>
        <pt x="516" y="0" on="1"/>
        <pt x="398" y="317" on="1"/>
        <pt x="242" y="317" on="1"/>
        <pt x="175" y="0" on="1"/>
        <pt x="91" y="0" on="1"/>
        <pt x="239" y="694" on="1"/>
        <pt x="475" y="694" on="1"/>
        <pt x="522" y="694" on="0"/>
        <pt x="600" y="670" on="0"/>
        <pt x="655" y="627" on="0"/>
        <pt x="686" y="569" on="0"/>
        <pt x="686" y="536" on="1"/>
        <pt x="686" y="515" on="0"/>
        <pt x="668" y="459" on="0"/>
        <pt x="623" y="401" on="0"/>
        <pt x="546" y="347" on="0"/>
        <pt x="486" y="329" on="1"/>
        <pt x="478" y="327" on="0"/>
        <pt x="478" y="325" on="1"/>
        <pt x="478" y="323" on="0"/>
        <pt x="480" y="315" on="0"/>
        <pt x="481" y="313" on="1"/>
      </contour>
      <contour>
        <pt x="255" y="377" on="1"/>
        <pt x="397" y="377" on="1"/>
        <pt x="448" y="377" on="0"/>
        <pt x="526" y="404" on="0"/>
        <pt x="579" y="448" on="0"/>
        <pt x="606" y="503" on="0"/>
        <pt x="606" y="530" on="1"/>
        <pt x="606" y="582" on="0"/>
        <pt x="522" y="638" on="0"/>
        <pt x="452" y="638" on="1"/>
        <pt x="311" y="638" on="1"/>
      </contour>
    </TTGlyph>
    <TTGlyph name="S" xMin="54" yMin="-21" xMax="596" yMax="715">
      <contour>
        <pt x="565" y="585" on="1"/>
        <pt x="554" y="596" on="0"/>
        <pt x="528" y="619" on="0"/>
        <pt x="493" y="638" on="0"/>
        <pt x="446" y="650" on="0"/>
        <pt x="413" y="650" on="1"/>
        <pt x="375" y="650" on="0"/>
        <pt x="312" y="625" on="0"/>
        <pt x="266" y="584" on="0"/>
        <pt x="241" y="534" on="0"/>
        <pt x="241" y="509" on="1"/>
        <pt x="241" y="480" on="0"/>
        <pt x="266" y="446" on="0"/>
        <pt x="272" y="440" on="1"/>
        <pt x="279" y="434" on="0"/>
        <pt x="294" y="425" on="0"/>
        <pt x="314" y="417" on="0"/>
        <pt x="342" y="409" on="0"/>
        <pt x="361" y="404" on="1"/>
        <pt x="387" y="397" on="0"/>
        <pt x="425" y="386" on="0"/>
        <pt x="455" y="373" on="0"/>
        <pt x="479" y="356" on="0"/>
        <pt x="491" y="343" on="1"/>
        <pt x="509" y="323" on="0"/>
        <pt x="534" y="268" on="0"/>
        <pt x="534" y="230" on="1"/>
        <pt x="534" y="185" on="0"/>
        <pt x="492" y="95" on="0"/>
        <pt x="419" y="24" on="0"/>
        <pt x="321" y="-21" on="0"/>
        <pt x="264" y="-21" on="1"/>
        <pt x="207" y="-21" on="0"/>
        <pt x="99" y="14" on="0"/>
        <pt x="54" y="49" on="1"/>
        <pt x="86" y="129" on="1"/>
        <pt x="88" y="127" on="0"/>
        <pt x="113" y="101" on="0"/>
        <pt x="162" y="71" on="0"/>
        <pt x="233" y="46" on="0"/>
        <pt x="279" y="46" on="1"/>
        <pt x="316" y="46" on="0"/>
        <pt x="379" y="74" on="0"/>
        <pt x="426" y="120" on="0"/>
        <pt x="453" y="177" on="0"/>
        <pt x="453" y="205" on="1"/>
        <pt x="453" y="242" on="0"/>
        <pt x="412" y="296" on="0"/>
        <pt x="378" y="306" on="1"/>
        <pt x="375" y="307" on="0"/>
        <pt x="355" y="312" on="0"/>
        <pt x="333" y="318" on="0"/>
        <pt x="312" y="324" on="0"/>
        <pt x="309" y="325" on="1"/>
        <pt x="276" y="333" on="0"/>
        <pt x="220" y="356" on="0"/>
        <pt x="195" y="386" on="1"/>
        <pt x="181" y="403" on="0"/>
        <pt x="160" y="450" on="0"/>
        <pt x="160" y="483" on="1"/>
        <pt x="160" y="525" on="0"/>
        <pt x="202" y="608" on="0"/>
        <pt x="274" y="674" on="0"/>
        <pt x="371" y="715" on="0"/>
        <pt x="427" y="715" on="1"/>
        <pt x="489" y="715" on="0"/>
        <pt x="565" y="686" on="0"/>
        <pt x="596" y="666" on="1"/>
      </contour>
    </TTGlyph>
    <TTGlyph name="Sigma" xMin="54" yMin="0" xMax="799" yMax="694">
      <contour>
        <pt x="205" y="67" on="1"/>
        <pt x="394" y="67" on="1"/>
        <pt x="403" y="67" on="0"/>
        <pt x="421" y="68" on="0"/>
        <pt x="430" y="68" on="1"/>
        <pt x="666" y="68" on="1"/>
        <pt x="652" y="0" on="1"/>
        <pt x="54" y="0" on="1"/>
        <pt x="351" y="336" on="1"/>
        <pt x="188" y="633" on="1"/>
        <pt x="192" y="649" on="0"/>
        <pt x="196" y="668" on="0"/>
        <pt x="198" y="680" on="0"/>
        <pt x="200" y="688" on="0"/>
        <pt x="201" y="694" on="1"/>
        <pt x="799" y="694" on="1"/>
        <pt x="786" y="631" on="1"/>
        <pt x="532" y="631" on="1"/>
        <pt x="523" y="631" on="0"/>
        <pt x="505" y="632" on="0"/>
        <pt x="496" y="632" on="1"/>
        <pt x="296" y="632" on="1"/>
        <pt x="453" y="347" on="1"/>
      </contour>
    </TTGlyph>
    <TTGlyph name="T" xMin="168" yMin="0" xMax="778" yMax="689">
      <contour>
        <pt x="377" y="0" on="1"/>
        <pt x="291" y="0" on="1"/>
        <pt x="424" y="627" on="1"/>
        <pt x="336" y="627" on="1"/>
        <pt x="327" y="627" on="0"/>
        <pt x="309" y="626" on="0"/>
        <pt x="300" y="626" on="1"/>
        <pt x="168" y="626" on="1"/>
        <pt x="181" y="689" on="1"/>
        <pt x="778" y="689" on="1"/>
        <pt x="765" y="626" on="1"/>
        <pt x="634" y="626" on="1"/>
        <pt x="625" y="626" on="0"/>
        <pt x="607" y="627" on="0"/>
        <pt x="598" y="627" on="1"/>
        <pt x="510" y="627" on="1"/>
      </contour>
    </TTGlyph>
    <TTGlyph name="Theta" xMin="118" yMin="-21" xMax="790" yMax="715">
      <contour>
        <pt x="790" y="432" on="1"/>
        <pt x="790" y="344" on="0"/>
        <pt x="719" y="181" on="0"/>
        <pt x="603" y="55" on="0"/>
        <pt x="454" y="-21" on="0"/>
        <pt x="376" y="-21" on="1"/>
        <pt x="321" y="-21" on="0"/>
        <pt x="226" y="20" on="0"/>
        <pt x="157" y="94" on="0"/>
        <pt x="118" y="197" on="0"/>
        <pt x="118" y="260" on="1"/>
        <pt x="118" y="347" on="0"/>
        <pt x="188" y="510" on="0"/>
        <pt x="304" y="638" on="0"/>
        <pt x="453" y="715" on="0"/>
        <pt x="532" y="715" on="1"/>
        <pt x="590" y="715" on="0"/>
        <pt x="685" y="672" on="0"/>
        <pt x="753" y="596" on="0"/>
        <pt x="790" y="493" on="0"/>
      </contour>
      <contour>
        <pt x="389" y="40" on="1"/>
        <pt x="451" y="40" on="0"/>
        <pt x="567" y="105" on="0"/>
        <pt x="656" y="214" on="0"/>
        <pt x="709" y="355" on="0"/>
        <pt x="709" y="430" on="1"/>
        <pt x="709" y="479" on="0"/>
        <pt x="682" y="561" on="0"/>
        <pt x="632" y="621" on="0"/>
        <pt x="562" y="655" on="0"/>
        <pt x="519" y="655" on="1"/>
        <pt x="457" y="655" on="0"/>
        <pt x="341" y="588" on="0"/>
        <pt x="252" y="478" on="0"/>
        <pt x="199" y="336" on="0"/>
        <pt x="199" y="262" on="1"/>
        <pt x="199" y="212" on="0"/>
        <pt x="227" y="130" on="0"/>
        <pt x="278" y="72" on="0"/>
        <pt x="347" y="40" on="0"/>
      </contour>
      <contour>
        <pt x="636" y="307" on="1"/>
        <pt x="255" y="307" on="1"/>
        <pt x="272" y="388" on="1"/>
        <pt x="653" y="388" on="1"/>
      </contour>
    </TTGlyph>
    <TTGlyph name="U" xMin="133" yMin="-21" xMax="724" yMax="694">
      <contour>
        <pt x="624" y="228" on="1"/>
        <pt x="613" y="177" on="0"/>
        <pt x="556" y="86" on="0"/>
        <pt x="477" y="19" on="0"/>
        <pt x="381" y="-21" on="0"/>
        <pt x="331" y="-21" on="1"/>
        <pt x="287" y="-21" on="0"/>
        <pt x="214" y="9" on="0"/>
        <pt x="162" y="62" on="0"/>
        <pt x="133" y="135" on="0"/>
        <pt x="133" y="178" on="1"/>
        <pt x="133" y="182" on="0"/>
        <pt x="134" y="196" on="0"/>
        <pt x="136" y="211" on="0"/>
        <pt x="137" y="224" on="0"/>
        <pt x="138" y="228" on="1"/>
        <pt x="238" y="694" on="1"/>
        <pt x="324" y="694" on="1"/>
        <pt x="224" y="228" on="1"/>
        <pt x="220" y="211" on="0"/>
        <pt x="219" y="176" on="0"/>
        <pt x="219" y="174" on="1"/>
        <pt x="219" y="133" on="0"/>
        <pt x="243" y="79" on="0"/>
        <pt x="280" y="48" on="0"/>
        <pt x="324" y="35" on="0"/>
        <pt x="344" y="35" on="1"/>
        <pt x="380" y="35" on="0"/>
        <pt x="446" y="65" on="0"/>
        <pt x="501" y="117" on="0"/>
        <pt x="540" y="187" on="0"/>
        <pt x="549" y="228" on="1"/>
        <pt x="648" y="694" on="1"/>
        <pt x="724" y="694" on="1"/>
      </contour>
    </TTGlyph>
    <TTGlyph name="Upsilon" xMin="172" yMin="0" xMax="829" yMax="715">
      <contour>
        <pt x="424" y="0" on="1"/>
        <pt x="338" y="0" on="1"/>
        <pt x="419" y="384" on="1"/>
        <pt x="433" y="452" on="0"/>
        <pt x="438" y="522" on="0"/>
        <pt x="438" y="529" on="1"/>
        <pt x="438" y="595" on="0"/>
        <pt x="390" y="650" on="0"/>
        <pt x="348" y="650" on="1"/>
        <pt x="330" y="650" on="0"/>
        <pt x="297" y="634" on="0"/>
        <pt x="271" y="608" on="0"/>
        <pt x="252" y="573" on="0"/>
        <pt x="248" y="555" on="1"/>
        <pt x="172" y="555" on="1"/>
        <pt x="180" y="591" on="0"/>
        <pt x="219" y="650" on="0"/>
        <pt x="271" y="692" on="0"/>
        <pt x="331" y="715" on="0"/>
        <pt x="361" y="715" on="1"/>
        <pt x="407" y="715" on="0"/>
        <pt x="458" y="674" on="0"/>
        <pt x="482" y="617" on="0"/>
        <pt x="487" y="555" on="0"/>
        <pt x="487" y="535" on="1"/>
        <pt x="487" y="527" on="0"/>
        <pt x="487" y="504" on="0"/>
        <pt x="486" y="499" on="1"/>
        <pt x="487" y="499" on="1"/>
        <pt x="498" y="527" on="0"/>
        <pt x="532" y="602" on="0"/>
        <pt x="583" y="669" on="0"/>
        <pt x="655" y="715" on="0"/>
        <pt x="703" y="715" on="1"/>
        <pt x="732" y="715" on="0"/>
        <pt x="779" y="695" on="0"/>
        <pt x="812" y="661" on="0"/>
        <pt x="829" y="615" on="0"/>
        <pt x="829" y="589" on="1"/>
        <pt x="829" y="578" on="0"/>
        <pt x="827" y="564" on="0"/>
        <pt x="825" y="555" on="1"/>
        <pt x="749" y="555" on="1"/>
        <pt x="750" y="560" on="0"/>
        <pt x="752" y="573" on="0"/>
        <pt x="752" y="579" on="1"/>
        <pt x="752" y="588" on="0"/>
        <pt x="747" y="613" on="0"/>
        <pt x="733" y="635" on="0"/>
        <pt x="708" y="650" on="0"/>
        <pt x="689" y="650" on="1"/>
        <pt x="659" y="650" on="0"/>
        <pt x="606" y="623" on="0"/>
        <pt x="561" y="562" on="0"/>
        <pt x="523" y="464" on="0"/>
        <pt x="508" y="393" on="1"/>
      </contour>
    </TTGlyph>
    <TTGlyph name="V" xMin="161" yMin="0" xMax="780" yMax="694">
      <contour>
        <pt x="368" y="0" on="1"/>
        <pt x="278" y="0" on="1"/>
        <pt x="161" y="694" on="1"/>
        <pt x="251" y="694" on="1"/>
        <pt x="309" y="343" on="1"/>
        <pt x="313" y="318" on="0"/>
        <pt x="325" y="244" on="0"/>
        <pt x="336" y="166" on="0"/>
        <pt x="344" y="96" on="0"/>
        <pt x="344" y="74" on="1"/>
        <pt x="345" y="74" on="1"/>
        <pt x="346" y="77" on="0"/>
        <pt x="356" y="97" on="0"/>
        <pt x="389" y="157" on="0"/>
        <pt x="454" y="270" on="0"/>
        <pt x="510" y="365" on="1"/>
        <pt x="703" y="694" on="1"/>
        <pt x="780" y="694" on="1"/>
      </contour>
    </TTGlyph>
    <TTGlyph name="W" xMin="161" yMin="0" xMax="1052" yMax="694">
      <contour>
        <pt x="708" y="0" on="1"/>
        <pt x="621" y="0" on="1"/>
        <pt x="598" y="347" on="1"/>
        <pt x="594" y="406" on="0"/>
        <pt x="587" y="532" on="0"/>
        <pt x="587" y="582" on="1"/>
        <pt x="587" y="587" on="0"/>
        <pt x="588" y="600" on="0"/>
        <pt x="588" y="606" on="1"/>
        <pt x="588" y="614" on="0"/>
        <pt x="589" y="621" on="1"/>
        <pt x="585" y="608" on="0"/>
        <pt x="568" y="568" on="0"/>
        <pt x="548" y="526" on="0"/>
        <pt x="529" y="486" on="0"/>
        <pt x="523" y="473" on="1"/>
        <pt x="454" y="329" on="1"/>
        <pt x="293" y="0" on="1"/>
        <pt x="210" y="0" on="1"/>
        <pt x="161" y="694" on="1"/>
        <pt x="246" y="694" on="1"/>
        <pt x="267" y="372" on="1"/>
        <pt x="268" y="353" on="0"/>
        <pt x="272" y="297" on="0"/>
        <pt x="275" y="233" on="0"/>
        <pt x="277" y="166" on="0"/>
        <pt x="277" y="136" on="1"/>
        <pt x="277" y="117" on="0"/>
        <pt x="277" y="86" on="0"/>
        <pt x="276" y="79" on="1"/>
        <pt x="277" y="78" on="1"/>
        <pt x="282" y="94" on="0"/>
        <pt x="304" y="146" on="0"/>
        <pt x="332" y="209" on="0"/>
        <pt x="365" y="279" on="0"/>
        <pt x="397" y="344" on="0"/>
        <pt x="425" y="402" on="0"/>
        <pt x="434" y="421" on="1"/>
        <pt x="568" y="694" on="1"/>
        <pt x="652" y="694" on="1"/>
        <pt x="674" y="357" on="1"/>
        <pt x="681" y="248" on="0"/>
        <pt x="685" y="133" on="0"/>
        <pt x="685" y="118" on="1"/>
        <pt x="685" y="117" on="0"/>
        <pt x="685" y="88" on="0"/>
        <pt x="683" y="77" on="1"/>
        <pt x="684" y="77" on="1"/>
        <pt x="688" y="90" on="0"/>
        <pt x="710" y="141" on="0"/>
        <pt x="739" y="204" on="0"/>
        <pt x="773" y="275" on="0"/>
        <pt x="806" y="343" on="0"/>
        <pt x="835" y="401" on="0"/>
        <pt x="844" y="420" on="1"/>
        <pt x="979" y="694" on="1"/>
        <pt x="1052" y="694" on="1"/>
      </contour>
    </TTGlyph>
    <TTGlyph name="X" xMin="14" yMin="0" xMax="739" yMax="694">
      <contour>
        <pt x="632" y="0" on="1"/>
        <pt x="532" y="0" on="1"/>
        <pt x="381" y="306" on="1"/>
        <pt x="106" y="0" on="1"/>
        <pt x="14" y="0" on="1"/>
        <pt x="352" y="366" on="1"/>
        <pt x="175" y="694" on="1"/>
        <pt x="275" y="694" on="1"/>
        <pt x="408" y="432" on="1"/>
        <pt x="646" y="694" on="1"/>
        <pt x="739" y="694" on="1"/>
        <pt x="435" y="366" on="1"/>
      </contour>
    </TTGlyph>
    <TTGlyph name="Xi" xMin="41" yMin="0" xMax="752" yMax="689">
      <contour>
        <pt x="737" y="616" on="1"/>
        <pt x="615" y="616" on="1"/>
        <pt x="575" y="616" on="0"/>
        <pt x="496" y="617" on="0"/>
        <pt x="456" y="617" on="1"/>
        <pt x="417" y="617" on="0"/>
        <pt x="338" y="616" on="0"/>
        <pt x="299" y="616" on="1"/>
        <pt x="177" y="616" on="1"/>
        <pt x="192" y="689" on="1"/>
        <pt x="752" y="689" on="1"/>
      </contour>
      <contour>
        <pt x="611" y="0" on="1"/>
        <pt x="41" y="0" on="1"/>
        <pt x="56" y="73" on="1"/>
        <pt x="181" y="73" on="1"/>
        <pt x="221" y="73" on="0"/>
        <pt x="302" y="72" on="0"/>
        <pt x="342" y="72" on="1"/>
        <pt x="382" y="72" on="0"/>
        <pt x="462" y="73" on="0"/>
        <pt x="502" y="73" on="1"/>
        <pt x="626" y="73" on="1"/>
      </contour>
      <contour>
        <pt x="627" y="394" on="1"/>
        <pt x="611" y="322" on="1"/>
        <pt x="177" y="322" on="1"/>
        <pt x="193" y="394" on="1"/>
      </contour>
    </TTGlyph>
    <TTGlyph name="Y" xMin="150" yMin="0" xMax="791" yMax="694">
      <contour>
        <pt x="424" y="278" on="1"/>
        <pt x="365" y="0" on="1"/>
        <pt x="281" y="0" on="1"/>
        <pt x="340" y="278" on="1"/>
        <pt x="150" y="694" on="1"/>
        <pt x="251" y="694" on="1"/>
        <pt x="405" y="352" on="1"/>
        <pt x="704" y="694" on="1"/>
        <pt x="791" y="694" on="1"/>
      </contour>
    </TTGlyph>
    <TTGlyph name="Z" xMin="54" yMin="0" xMax="690" yMax="694">
      <contour>
        <pt x="176" y="62" on="1"/>
        <pt x="209" y="62" on="1"/>
        <pt x="274" y="62" on="0"/>
        <pt x="403" y="64" on="0"/>
        <pt x="468" y="64" on="1"/>
        <pt x="562" y="64" on="1"/>
        <pt x="548" y="0" on="1"/>
        <pt x="54" y="0" on="1"/>
        <pt x="55" y="4" on="0"/>
        <pt x="59" y="27" on="0"/>
        <pt x="60" y="29" on="1"/>
        <pt x="62" y="37" on="0"/>
        <pt x="65" y="45" on="0"/>
        <pt x="71" y="52" on="1"/>
        <pt x="569" y="634" on="1"/>
        <pt x="434" y="634" on="1"/>
        <pt x="425" y="634" on="0"/>
        <pt x="407" y="633" on="0"/>
        <pt x="398" y="633" on="1"/>
        <pt x="203" y="633" on="1"/>
        <pt x="215" y="694" on="1"/>
        <pt x="690" y="694" on="1"/>
        <pt x="689" y="691" on="0"/>
        <pt x="685" y="668" on="0"/>
        <pt x="685" y="666" on="1"/>
        <pt x="683" y="658" on="0"/>
        <pt x="680" y="651" on="0"/>
        <pt x="674" y="645" on="1"/>
      </contour>
    </TTGlyph>
    <TTGlyph name="a" xMin="65" yMin="-10" xMax="458" yMax="459">
      <contour>
        <pt x="391" y="0" on="1"/>
        <pt x="317" y="0" on="1"/>
        <pt x="325" y="37" on="1"/>
        <pt x="298" y="19" on="0"/>
        <pt x="241" y="0" on="0"/>
        <pt x="191" y="-9" on="0"/>
        <pt x="156" y="-10" on="0"/>
        <pt x="153" y="-10" on="1"/>
        <pt x="121" y="-10" on="0"/>
        <pt x="85" y="16" on="0"/>
        <pt x="68" y="50" on="0"/>
        <pt x="65" y="81" on="0"/>
        <pt x="65" y="85" on="1"/>
        <pt x="65" y="124" on="0"/>
        <pt x="104" y="178" on="0"/>
        <pt x="162" y="214" on="0"/>
        <pt x="231" y="235" on="0"/>
        <pt x="292" y="246" on="0"/>
        <pt x="335" y="249" on="0"/>
        <pt x="339" y="249" on="1"/>
        <pt x="357" y="250" on="0"/>
        <pt x="365" y="250" on="0"/>
        <pt x="367" y="251" on="1"/>
        <pt x="368" y="252" on="0"/>
        <pt x="373" y="269" on="0"/>
        <pt x="377" y="293" on="0"/>
        <pt x="381" y="317" on="0"/>
        <pt x="381" y="324" on="1"/>
        <pt x="381" y="356" on="0"/>
        <pt x="349" y="401" on="0"/>
        <pt x="314" y="401" on="1"/>
        <pt x="260" y="401" on="0"/>
        <pt x="182" y="368" on="0"/>
        <pt x="156" y="351" on="1"/>
        <pt x="163" y="416" on="1"/>
        <pt x="194" y="433" on="0"/>
        <pt x="272" y="459" on="0"/>
        <pt x="326" y="459" on="1"/>
        <pt x="362" y="459" on="0"/>
        <pt x="412" y="436" on="0"/>
        <pt x="444" y="399" on="0"/>
        <pt x="458" y="354" on="0"/>
        <pt x="458" y="332" on="1"/>
        <pt x="458" y="318" on="0"/>
        <pt x="457" y="307" on="0"/>
        <pt x="455" y="299" on="1"/>
      </contour>
      <contour>
        <pt x="357" y="199" on="1"/>
        <pt x="336" y="199" on="0"/>
        <pt x="262" y="192" on="0"/>
        <pt x="191" y="171" on="0"/>
        <pt x="139" y="135" on="0"/>
        <pt x="139" y="105" on="1"/>
        <pt x="139" y="76" on="0"/>
        <pt x="187" y="50" on="0"/>
        <pt x="216" y="50" on="1"/>
        <pt x="235" y="50" on="0"/>
        <pt x="273" y="58" on="0"/>
        <pt x="306" y="74" on="0"/>
        <pt x="332" y="97" on="0"/>
        <pt x="338" y="112" on="1"/>
        <pt x="339" y="115" on="0"/>
        <pt x="344" y="135" on="0"/>
        <pt x="349" y="160" on="0"/>
        <pt x="355" y="188" on="0"/>
      </contour>
    </TTGlyph>
    <TTGlyph name="acute" xMin="313" yMin="527" xMax="555" yMax="694">
      <contour>
        <pt x="373" y="527" on="1"/>
        <pt x="313" y="527" on="1"/>
        <pt x="479" y="694" on="1"/>
        <pt x="555" y="694" on="1"/>
      </contour>
    </TTGlyph>
    <TTGlyph name="ae" xMin="67" yMin="-10" xMax="738" yMax="459">
      <contour>
        <pt x="457" y="225" on="1"/>
        <pt x="450" y="225" on="0"/>
        <pt x="440" y="224" on="0"/>
        <pt x="436" y="215" on="0"/>
        <pt x="434" y="196" on="0"/>
        <pt x="434" y="179" on="1"/>
        <pt x="434" y="122" on="0"/>
        <pt x="493" y="50" on="0"/>
        <pt x="543" y="50" on="1"/>
        <pt x="573" y="50" on="0"/>
        <pt x="648" y="74" on="0"/>
        <pt x="690" y="107" on="1"/>
        <pt x="689" y="100" on="0"/>
        <pt x="687" y="79" on="0"/>
        <pt x="684" y="61" on="0"/>
        <pt x="682" y="47" on="0"/>
        <pt x="682" y="46" on="1"/>
        <pt x="681" y="43" on="0"/>
        <pt x="655" y="25" on="0"/>
        <pt x="613" y="5" on="0"/>
        <pt x="559" y="-10" on="0"/>
        <pt x="529" y="-10" on="1"/>
        <pt x="501" y="-10" on="0"/>
        <pt x="455" y="4" on="0"/>
        <pt x="419" y="26" on="0"/>
        <pt x="393" y="54" on="0"/>
        <pt x="385" y="67" on="1"/>
        <pt x="361" y="40" on="0"/>
        <pt x="293" y="9" on="0"/>
        <pt x="225" y="-6" on="0"/>
        <pt x="167" y="-10" on="0"/>
        <pt x="155" y="-10" on="1"/>
        <pt x="111" y="-10" on="0"/>
        <pt x="67" y="43" on="0"/>
        <pt x="67" y="85" on="1"/>
        <pt x="67" y="124" on="0"/>
        <pt x="104" y="179" on="0"/>
        <pt x="162" y="216" on="0"/>
        <pt x="232" y="238" on="0"/>
        <pt x="299" y="249" on="0"/>
        <pt x="355" y="252" on="0"/>
        <pt x="369" y="252" on="1"/>
        <pt x="374" y="275" on="0"/>
        <pt x="378" y="301" on="0"/>
        <pt x="381" y="314" on="0"/>
        <pt x="381" y="321" on="0"/>
        <pt x="381" y="324" on="1"/>
        <pt x="381" y="356" on="0"/>
        <pt x="349" y="401" on="0"/>
        <pt x="315" y="401" on="1"/>
        <pt x="261" y="401" on="0"/>
        <pt x="184" y="368" on="0"/>
        <pt x="156" y="351" on="1"/>
        <pt x="163" y="416" on="1"/>
        <pt x="201" y="436" on="0"/>
        <pt x="279" y="459" on="0"/>
        <pt x="327" y="459" on="1"/>
        <pt x="357" y="459" on="0"/>
        <pt x="399" y="443" on="0"/>
        <pt x="427" y="420" on="0"/>
        <pt x="445" y="394" on="0"/>
        <pt x="449" y="383" on="1"/>
        <pt x="487" y="421" on="0"/>
        <pt x="574" y="459" on="0"/>
        <pt x="613" y="459" on="1"/>
        <pt x="666" y="459" on="0"/>
        <pt x="738" y="391" on="0"/>
        <pt x="738" y="314" on="1"/>
        <pt x="738" y="302" on="0"/>
        <pt x="735" y="274" on="0"/>
        <pt x="731" y="248" on="0"/>
        <pt x="728" y="229" on="0"/>
        <pt x="727" y="225" on="1"/>
      </contour>
      <contour>
        <pt x="678" y="279" on="1"/>
        <pt x="679" y="283" on="0"/>
        <pt x="679" y="293" on="0"/>
        <pt x="679" y="297" on="1"/>
        <pt x="679" y="302" on="0"/>
        <pt x="677" y="335" on="0"/>
        <pt x="662" y="371" on="0"/>
        <pt x="630" y="399" on="0"/>
        <pt x="601" y="399" on="1"/>
        <pt x="563" y="399" on="0"/>
        <pt x="482" y="336" on="0"/>
        <pt x="457" y="279" on="1"/>
      </contour>
      <contour>
        <pt x="358" y="198" on="1"/>
        <pt x="345" y="197" on="0"/>
        <pt x="303" y="194" on="0"/>
        <pt x="255" y="187" on="0"/>
        <pt x="205" y="175" on="0"/>
        <pt x="166" y="155" on="0"/>
        <pt x="141" y="126" on="0"/>
        <pt x="141" y="106" on="1"/>
        <pt x="141" y="77" on="0"/>
        <pt x="187" y="50" on="0"/>
        <pt x="217" y="50" on="1"/>
        <pt x="221" y="50" on="0"/>
        <pt x="258" y="53" on="0"/>
        <pt x="302" y="68" on="0"/>
        <pt x="341" y="101" on="0"/>
        <pt x="347" y="132" on="1"/>
        <pt x="348" y="135" on="0"/>
        <pt x="350" y="150" on="0"/>
        <pt x="353" y="169" on="0"/>
        <pt x="357" y="190" on="0"/>
      </contour>
    </TTGlyph>
    <TTGlyph name="ampersand" xMin="68" yMin="-21" xMax="735" yMax="715">
      <contour>
        <pt x="735" y="389" on="1"/>
        <pt x="719" y="357" on="0"/>
        <pt x="678" y="285" on="0"/>
        <pt x="621" y="206" on="0"/>
        <pt x="544" y="123" on="0"/>
        <pt x="490" y="80" on="1"/>
        <pt x="519" y="52" on="0"/>
        <pt x="567" y="41" on="0"/>
        <pt x="583" y="41" on="1"/>
        <pt x="606" y="41" on="0"/>
        <pt x="667" y="50" on="0"/>
        <pt x="699" y="61" on="1"/>
        <pt x="684" y="-5" on="1"/>
        <pt x="638" y="-17" on="0"/>
        <pt x="577" y="-21" on="0"/>
        <pt x="569" y="-21" on="1"/>
        <pt x="559" y="-21" on="0"/>
        <pt x="527" y="-19" on="0"/>
        <pt x="488" y="-7" on="0"/>
        <pt x="445" y="16" on="0"/>
        <pt x="423" y="37" on="1"/>
        <pt x="385" y="16" on="0"/>
        <pt x="277" y="-21" on="0"/>
        <pt x="216" y="-21" on="1"/>
        <pt x="179" y="-21" on="0"/>
        <pt x="123" y="2" on="0"/>
        <pt x="86" y="39" on="0"/>
        <pt x="68" y="87" on="0"/>
        <pt x="68" y="112" on="1"/>
        <pt x="68" y="144" on="0"/>
        <pt x="100" y="220" on="0"/>
        <pt x="135" y="250" on="1"/>
        <pt x="143" y="258" on="0"/>
        <pt x="182" y="288" on="0"/>
        <pt x="224" y="319" on="0"/>
        <pt x="260" y="345" on="0"/>
        <pt x="264" y="349" on="1"/>
        <pt x="262" y="360" on="0"/>
        <pt x="260" y="376" on="0"/>
        <pt x="258" y="391" on="0"/>
        <pt x="258" y="410" on="0"/>
        <pt x="258" y="424" on="1"/>
        <pt x="258" y="487" on="0"/>
        <pt x="289" y="594" on="0"/>
        <pt x="342" y="671" on="0"/>
        <pt x="410" y="715" on="0"/>
        <pt x="446" y="715" on="1"/>
        <pt x="472" y="715" on="0"/>
        <pt x="510" y="695" on="0"/>
        <pt x="534" y="662" on="0"/>
        <pt x="546" y="620" on="0"/>
        <pt x="546" y="598" on="1"/>
        <pt x="546" y="581" on="0"/>
        <pt x="540" y="548" on="0"/>
        <pt x="524" y="512" on="0"/>
        <pt x="494" y="472" on="0"/>
        <pt x="471" y="448" on="1"/>
        <pt x="459" y="437" on="0"/>
        <pt x="402" y="386" on="0"/>
        <pt x="346" y="344" on="1"/>
        <pt x="355" y="308" on="0"/>
        <pt x="387" y="235" on="0"/>
        <pt x="420" y="173" on="0"/>
        <pt x="447" y="130" on="0"/>
        <pt x="453" y="122" on="1"/>
        <pt x="523" y="175" on="0"/>
        <pt x="630" y="310" on="0"/>
        <pt x="668" y="389" on="1"/>
        <pt x="674" y="400" on="0"/>
        <pt x="677" y="405" on="0"/>
        <pt x="678" y="405" on="1"/>
        <pt x="679" y="405" on="0"/>
        <pt x="683" y="404" on="0"/>
        <pt x="691" y="402" on="1"/>
      </contour>
      <contour>
        <pt x="331" y="460" on="1"/>
        <pt x="331" y="458" on="0"/>
        <pt x="331" y="441" on="0"/>
        <pt x="332" y="421" on="0"/>
        <pt x="335" y="406" on="0"/>
        <pt x="337" y="406" on="1"/>
        <pt x="338" y="406" on="0"/>
        <pt x="392" y="449" on="0"/>
        <pt x="427" y="484" on="1"/>
        <pt x="458" y="516" on="0"/>
        <pt x="476" y="570" on="0"/>
        <pt x="476" y="595" on="1"/>
        <pt x="476" y="603" on="0"/>
        <pt x="474" y="623" on="0"/>
        <pt x="465" y="642" on="0"/>
        <pt x="448" y="655" on="0"/>
        <pt x="433" y="655" on="1"/>
        <pt x="422" y="655" on="0"/>
        <pt x="388" y="642" on="0"/>
        <pt x="355" y="601" on="0"/>
        <pt x="331" y="524" on="0"/>
      </contour>
      <contour>
        <pt x="278" y="291" on="1"/>
        <pt x="248" y="270" on="0"/>
        <pt x="199" y="233" on="0"/>
        <pt x="164" y="196" on="0"/>
        <pt x="146" y="153" on="0"/>
        <pt x="146" y="126" on="1"/>
        <pt x="146" y="122" on="0"/>
        <pt x="150" y="94" on="0"/>
        <pt x="166" y="64" on="0"/>
        <pt x="201" y="41" on="0"/>
        <pt x="231" y="41" on="1"/>
        <pt x="261" y="41" on="0"/>
        <pt x="337" y="57" on="0"/>
        <pt x="384" y="80" on="1"/>
        <pt x="378" y="89" on="0"/>
        <pt x="352" y="129" on="0"/>
        <pt x="320" y="185" on="0"/>
        <pt x="289" y="254" on="0"/>
      </contour>
    </TTGlyph>
    <TTGlyph name="asterisk" xMin="154" yMin="306" xMax="559" yMax="750">
      <contour>
        <pt x="352" y="348" on="1"/>
        <pt x="350" y="333" on="0"/>
        <pt x="338" y="316" on="0"/>
        <pt x="324" y="308" on="0"/>
        <pt x="312" y="306" on="0"/>
        <pt x="310" y="306" on="1"/>
        <pt x="297" y="306" on="0"/>
        <pt x="282" y="321" on="0"/>
        <pt x="282" y="332" on="1"/>
        <pt x="282" y="336" on="0"/>
        <pt x="284" y="343" on="0"/>
        <pt x="285" y="347" on="1"/>
        <pt x="321" y="481" on="1"/>
        <pt x="205" y="410" on="1"/>
        <pt x="195" y="404" on="0"/>
        <pt x="189" y="401" on="0"/>
        <pt x="182" y="401" on="1"/>
        <pt x="165" y="401" on="0"/>
        <pt x="154" y="423" on="0"/>
        <pt x="154" y="429" on="1"/>
        <pt x="154" y="446" on="0"/>
        <pt x="176" y="463" on="0"/>
        <pt x="183" y="466" on="1"/>
        <pt x="309" y="528" on="1"/>
        <pt x="211" y="588" on="1"/>
        <pt x="198" y="596" on="0"/>
        <pt x="194" y="609" on="0"/>
        <pt x="194" y="614" on="1"/>
        <pt x="194" y="631" on="0"/>
        <pt x="221" y="655" on="0"/>
        <pt x="235" y="655" on="1"/>
        <pt x="246" y="655" on="0"/>
        <pt x="248" y="653" on="1"/>
        <pt x="341" y="575" on="1"/>
        <pt x="362" y="709" on="1"/>
        <pt x="364" y="723" on="0"/>
        <pt x="375" y="739" on="0"/>
        <pt x="388" y="748" on="0"/>
        <pt x="401" y="750" on="0"/>
        <pt x="404" y="750" on="1"/>
        <pt x="411" y="750" on="0"/>
        <pt x="431" y="740" on="0"/>
        <pt x="431" y="724" on="1"/>
        <pt x="431" y="723" on="0"/>
        <pt x="430" y="714" on="0"/>
        <pt x="427" y="703" on="1"/>
        <pt x="392" y="575" on="1"/>
        <pt x="495" y="639" on="1"/>
        <pt x="515" y="651" on="0"/>
        <pt x="525" y="655" on="0"/>
        <pt x="531" y="655" on="1"/>
        <pt x="559" y="655" on="0"/>
        <pt x="559" y="627" on="1"/>
        <pt x="559" y="613" on="0"/>
        <pt x="541" y="594" on="0"/>
        <pt x="528" y="588" on="1"/>
        <pt x="405" y="528" on="1"/>
        <pt x="503" y="467" on="1"/>
        <pt x="509" y="463" on="0"/>
        <pt x="520" y="453" on="0"/>
        <pt x="520" y="442" on="1"/>
        <pt x="520" y="429" on="0"/>
        <pt x="496" y="401" on="0"/>
        <pt x="478" y="401" on="1"/>
        <pt x="474" y="401" on="0"/>
        <pt x="464" y="404" on="0"/>
        <pt x="454" y="412" on="1"/>
        <pt x="372" y="482" on="1"/>
      </contour>
    </TTGlyph>
    <TTGlyph name="at" xMin="119" yMin="-10" xMax="694" yMax="704">
      <contour>
        <pt x="616" y="85" on="1"/>
        <pt x="582" y="55" on="0"/>
        <pt x="515" y="18" on="0"/>
        <pt x="453" y="-3" on="0"/>
        <pt x="399" y="-10" on="0"/>
        <pt x="379" y="-10" on="1"/>
        <pt x="323" y="-10" on="0"/>
        <pt x="227" y="30" on="0"/>
        <pt x="158" y="103" on="0"/>
        <pt x="119" y="205" on="0"/>
        <pt x="119" y="266" on="1"/>
        <pt x="119" y="351" on="0"/>
        <pt x="189" y="509" on="0"/>
        <pt x="305" y="631" on="0"/>
        <pt x="452" y="704" on="0"/>
        <pt x="529" y="704" on="1"/>
        <pt x="570" y="704" on="0"/>
        <pt x="627" y="681" on="0"/>
        <pt x="663" y="646" on="0"/>
        <pt x="683" y="602" on="0"/>
        <pt x="692" y="559" on="0"/>
        <pt x="694" y="522" on="0"/>
        <pt x="694" y="512" on="1"/>
        <pt x="694" y="502" on="0"/>
        <pt x="690" y="439" on="0"/>
        <pt x="676" y="358" on="0"/>
        <pt x="648" y="271" on="0"/>
        <pt x="625" y="236" on="1"/>
        <pt x="591" y="185" on="0"/>
        <pt x="493" y="121" on="0"/>
        <pt x="442" y="121" on="1"/>
        <pt x="410" y="121" on="0"/>
        <pt x="358" y="147" on="0"/>
        <pt x="321" y="193" on="0"/>
        <pt x="301" y="254" on="0"/>
        <pt x="301" y="289" on="1"/>
        <pt x="301" y="342" on="0"/>
        <pt x="341" y="444" on="0"/>
        <pt x="408" y="524" on="0"/>
        <pt x="493" y="573" on="0"/>
        <pt x="538" y="573" on="1"/>
        <pt x="553" y="573" on="0"/>
        <pt x="592" y="564" on="0"/>
        <pt x="615" y="549" on="1"/>
        <pt x="607" y="600" on="0"/>
        <pt x="553" y="644" on="0"/>
        <pt x="515" y="644" on="1"/>
        <pt x="458" y="644" on="0"/>
        <pt x="343" y="584" on="0"/>
        <pt x="252" y="482" on="0"/>
        <pt x="195" y="348" on="0"/>
        <pt x="195" y="274" on="1"/>
        <pt x="195" y="227" on="0"/>
        <pt x="222" y="145" on="0"/>
        <pt x="274" y="85" on="0"/>
        <pt x="348" y="50" on="0"/>
        <pt x="394" y="50" on="1"/>
        <pt x="418" y="50" on="0"/>
        <pt x="495" y="61" on="0"/>
        <pt x="543" y="81" on="1"/>
        <pt x="549" y="84" on="0"/>
        <pt x="557" y="85" on="0"/>
        <pt x="569" y="85" on="1"/>
      </contour>
      <contour>
        <pt x="455" y="181" on="1"/>
        <pt x="482" y="181" on="0"/>
        <pt x="535" y="220" on="0"/>
        <pt x="577" y="282" on="0"/>
        <pt x="603" y="360" on="0"/>
        <pt x="603" y="399" on="1"/>
        <pt x="603" y="421" on="0"/>
        <pt x="593" y="462" on="0"/>
        <pt x="573" y="494" on="0"/>
        <pt x="544" y="513" on="0"/>
        <pt x="525" y="513" on="1"/>
        <pt x="498" y="513" on="0"/>
        <pt x="445" y="475" on="0"/>
        <pt x="403" y="413" on="0"/>
        <pt x="377" y="335" on="0"/>
        <pt x="377" y="295" on="1"/>
        <pt x="377" y="247" on="0"/>
        <pt x="417" y="181" on="0"/>
      </contour>
    </TTGlyph>
    <TTGlyph name="b" xMin="78" yMin="-10" xMax="521" yMax="694">
      <contour>
        <pt x="237" y="398" on="1"/>
        <pt x="264" y="417" on="0"/>
        <pt x="315" y="439" on="0"/>
        <pt x="359" y="451" on="0"/>
        <pt x="393" y="454" on="0"/>
        <pt x="403" y="454" on="1"/>
        <pt x="433" y="454" on="0"/>
        <pt x="478" y="427" on="0"/>
        <pt x="507" y="382" on="0"/>
        <pt x="521" y="323" on="0"/>
        <pt x="521" y="292" on="1"/>
        <pt x="521" y="231" on="0"/>
        <pt x="479" y="121" on="0"/>
        <pt x="411" y="39" on="0"/>
        <pt x="326" y="-10" on="0"/>
        <pt x="282" y="-10" on="1"/>
        <pt x="241" y="-10" on="0"/>
        <pt x="186" y="20" on="0"/>
        <pt x="163" y="45" on="1"/>
        <pt x="154" y="0" on="1"/>
        <pt x="78" y="0" on="1"/>
        <pt x="226" y="694" on="1"/>
        <pt x="299" y="694" on="1"/>
      </contour>
      <contour>
        <pt x="181" y="127" on="1"/>
        <pt x="179" y="119" on="0"/>
        <pt x="179" y="113" on="1"/>
        <pt x="179" y="109" on="0"/>
        <pt x="192" y="79" on="0"/>
        <pt x="205" y="68" on="1"/>
        <pt x="220" y="55" on="0"/>
        <pt x="248" y="50" on="0"/>
        <pt x="257" y="50" on="1"/>
        <pt x="299" y="50" on="0"/>
        <pt x="368" y="90" on="0"/>
        <pt x="417" y="155" on="0"/>
        <pt x="444" y="236" on="0"/>
        <pt x="444" y="277" on="1"/>
        <pt x="444" y="307" on="0"/>
        <pt x="427" y="352" on="0"/>
        <pt x="398" y="380" on="0"/>
        <pt x="361" y="394" on="0"/>
        <pt x="341" y="394" on="1"/>
        <pt x="326" y="394" on="0"/>
        <pt x="287" y="384" on="0"/>
        <pt x="253" y="365" on="0"/>
        <pt x="226" y="338" on="0"/>
        <pt x="223" y="322" on="1"/>
      </contour>
    </TTGlyph>
    <TTGlyph name="bracketleft" xMin="46" yMin="-250" xMax="420" yMax="750">
      <contour>
        <pt x="130" y="-190" on="1"/>
        <pt x="221" y="-190" on="1"/>
        <pt x="208" y="-250" on="1"/>
        <pt x="46" y="-250" on="1"/>
        <pt x="258" y="750" on="1"/>
        <pt x="420" y="750" on="1"/>
        <pt x="408" y="690" on="1"/>
        <pt x="317" y="690" on="1"/>
      </contour>
    </TTGlyph>
    <TTGlyph name="bracketright" xMin="-32" yMin="-250" xMax="342" yMax="750">
      <contour>
        <pt x="130" y="-250" on="1"/>
        <pt x="-32" y="-250" on="1"/>
        <pt x="-19" y="-190" on="1"/>
        <pt x="71" y="-190" on="1"/>
        <pt x="258" y="690" on="1"/>
        <pt x="168" y="690" on="1"/>
        <pt x="180" y="750" on="1"/>
        <pt x="342" y="750" on="1"/>
      </contour>
    </TTGlyph>
    <TTGlyph name="breve" xMin="222" yMin="516" xMax="557" yMax="694">
      <contour>
        <pt x="557" y="694" on="1"/>
        <pt x="548" y="654" on="0"/>
        <pt x="507" y="588" on="0"/>
        <pt x="451" y="542" on="0"/>
        <pt x="387" y="516" on="0"/>
        <pt x="355" y="516" on="1"/>
        <pt x="323" y="516" on="0"/>
        <pt x="273" y="539" on="0"/>
        <pt x="239" y="577" on="0"/>
        <pt x="222" y="627" on="0"/>
        <pt x="222" y="655" on="1"/>
        <pt x="222" y="668" on="0"/>
        <pt x="223" y="678" on="0"/>
        <pt x="226" y="694" on="1"/>
        <pt x="286" y="694" on="1"/>
        <pt x="284" y="687" on="0"/>
        <pt x="284" y="680" on="0"/>
        <pt x="284" y="669" on="1"/>
        <pt x="284" y="630" on="0"/>
        <pt x="331" y="581" on="0"/>
        <pt x="368" y="581" on="1"/>
        <pt x="389" y="581" on="0"/>
        <pt x="430" y="597" on="0"/>
        <pt x="466" y="627" on="0"/>
        <pt x="492" y="669" on="0"/>
        <pt x="497" y="694" on="1"/>
      </contour>
    </TTGlyph>
    <TTGlyph name="c" xMin="76" yMin="-10" xMax="489" yMax="459">
      <contour>
        <pt x="464" y="352" on="1"/>
        <pt x="432" y="378" on="0"/>
        <pt x="377" y="397" on="0"/>
        <pt x="336" y="397" on="1"/>
        <pt x="290" y="397" on="0"/>
        <pt x="221" y="352" on="0"/>
        <pt x="176" y="285" on="0"/>
        <pt x="153" y="207" on="0"/>
        <pt x="153" y="174" on="1"/>
        <pt x="153" y="116" on="0"/>
        <pt x="210" y="52" on="0"/>
        <pt x="259" y="52" on="1"/>
        <pt x="288" y="52" on="0"/>
        <pt x="337" y="63" on="0"/>
        <pt x="379" y="80" on="0"/>
        <pt x="412" y="100" on="0"/>
        <pt x="424" y="108" on="1"/>
        <pt x="422" y="93" on="0"/>
        <pt x="420" y="75" on="0"/>
        <pt x="418" y="62" on="0"/>
        <pt x="417" y="50" on="0"/>
        <pt x="415" y="41" on="1"/>
        <pt x="380" y="20" on="0"/>
        <pt x="296" y="-10" on="0"/>
        <pt x="245" y="-10" on="1"/>
        <pt x="204" y="-10" on="0"/>
        <pt x="141" y="20" on="0"/>
        <pt x="98" y="69" on="0"/>
        <pt x="76" y="134" on="0"/>
        <pt x="76" y="169" on="1"/>
        <pt x="76" y="218" on="0"/>
        <pt x="117" y="321" on="0"/>
        <pt x="189" y="405" on="0"/>
        <pt x="289" y="459" on="0"/>
        <pt x="348" y="459" on="1"/>
        <pt x="374" y="459" on="0"/>
        <pt x="413" y="454" on="0"/>
        <pt x="430" y="448" on="1"/>
        <pt x="440" y="445" on="0"/>
        <pt x="461" y="434" on="0"/>
        <pt x="478" y="424" on="0"/>
        <pt x="489" y="417" on="0"/>
        <pt x="489" y="416" on="1"/>
      </contour>
    </TTGlyph>
    <TTGlyph name="caron" xMin="214" yMin="486" xMax="552" yMax="653">
      <contour>
        <pt x="378" y="486" on="1"/>
        <pt x="318" y="486" on="1"/>
        <pt x="214" y="653" on="1"/>
        <pt x="274" y="653" on="1"/>
        <pt x="357" y="530" on="1"/>
        <pt x="492" y="653" on="1"/>
        <pt x="552" y="653" on="1"/>
      </contour>
    </TTGlyph>
    <TTGlyph name="cedilla" xMin="101" yMin="-191" xMax="270" yMax="-23">
      <contour>
        <pt x="169" y="-191" on="1"/>
        <pt x="101" y="-191" on="1"/>
        <pt x="210" y="-23" on="1"/>
        <pt x="270" y="-23" on="1"/>
      </contour>
    </TTGlyph>
    <TTGlyph name="circumflex" xMin="188" yMin="527" xMax="525" yMax="694">
      <contour>
        <pt x="248" y="527" on="1"/>
        <pt x="188" y="527" on="1"/>
        <pt x="362" y="694" on="1"/>
        <pt x="422" y="694" on="1"/>
        <pt x="525" y="527" on="1"/>
        <pt x="465" y="527" on="1"/>
        <pt x="383" y="650" on="1"/>
      </contour>
    </TTGlyph>
    <TTGlyph name="colon" xMin="95" yMin="0" xMax="270" yMax="444">
      <contour>
        <pt x="253" y="363" on="1"/>
        <pt x="172" y="363" on="1"/>
        <pt x="189" y="444" on="1"/>
        <pt x="270" y="444" on="1"/>
      </contour>
      <contour>
        <pt x="112" y="81" on="1"/>
        <pt x="193" y="81" on="1"/>
        <pt x="176" y="0" on="1"/>
        <pt x="95" y="0" on="1"/>
      </contour>
    </TTGlyph>
    <TTGlyph name="comma" xMin="69" yMin="-125" xMax="193" yMax="81">
      <contour>
        <pt x="120" y="0" on="1"/>
        <pt x="95" y="0" on="1"/>
        <pt x="112" y="81" on="1"/>
        <pt x="193" y="81" on="1"/>
        <pt x="191" y="70" on="0"/>
        <pt x="185" y="43" on="0"/>
        <pt x="179" y="17" on="0"/>
        <pt x="175" y="-2" on="0"/>
        <pt x="173" y="-4" on="1"/>
        <pt x="170" y="-10" on="0"/>
        <pt x="153" y="-43" on="0"/>
        <pt x="132" y="-82" on="0"/>
        <pt x="113" y="-117" on="0"/>
        <pt x="109" y="-125" on="1"/>
        <pt x="69" y="-125" on="1"/>
      </contour>
    </TTGlyph>
    <TTGlyph name="d" xMin="75" yMin="-10" xMax="571" yMax="694">
      <contour>
        <pt x="423" y="0" on="1"/>
        <pt x="347" y="0" on="1"/>
        <pt x="358" y="51" on="1"/>
        <pt x="326" y="25" on="0"/>
        <pt x="245" y="-10" on="0"/>
        <pt x="202" y="-10" on="1"/>
        <pt x="172" y="-10" on="0"/>
        <pt x="125" y="15" on="0"/>
        <pt x="92" y="60" on="0"/>
        <pt x="75" y="121" on="0"/>
        <pt x="75" y="156" on="1"/>
        <pt x="75" y="212" on="0"/>
        <pt x="114" y="319" on="0"/>
        <pt x="178" y="403" on="0"/>
        <pt x="261" y="454" on="0"/>
        <pt x="305" y="454" on="1"/>
        <pt x="315" y="454" on="0"/>
        <pt x="345" y="451" on="0"/>
        <pt x="380" y="440" on="0"/>
        <pt x="417" y="419" on="0"/>
        <pt x="435" y="402" on="1"/>
        <pt x="496" y="694" on="1"/>
        <pt x="571" y="694" on="1"/>
      </contour>
      <contour>
        <pt x="419" y="342" on="1"/>
        <pt x="416" y="348" on="0"/>
        <pt x="405" y="366" on="0"/>
        <pt x="386" y="382" on="0"/>
        <pt x="358" y="394" on="0"/>
        <pt x="338" y="394" on="1"/>
        <pt x="298" y="394" on="0"/>
        <pt x="230" y="357" on="0"/>
        <pt x="180" y="294" on="0"/>
        <pt x="152" y="212" on="0"/>
        <pt x="152" y="167" on="1"/>
        <pt x="152" y="131" on="0"/>
        <pt x="173" y="85" on="0"/>
        <pt x="205" y="60" on="0"/>
        <pt x="240" y="50" on="0"/>
        <pt x="255" y="50" on="1"/>
        <pt x="272" y="50" on="0"/>
        <pt x="311" y="63" on="0"/>
        <pt x="345" y="85" on="0"/>
        <pt x="371" y="115" on="0"/>
        <pt x="375" y="133" on="1"/>
      </contour>
    </TTGlyph>
    <TTGlyph name="dieresis" xMin="236" yMin="598" xMax="524" yMax="679">
      <contour>
        <pt x="317" y="598" on="1"/>
        <pt x="236" y="598" on="1"/>
        <pt x="253" y="679" on="1"/>
        <pt x="334" y="679" on="1"/>
      </contour>
      <contour>
        <pt x="507" y="598" on="1"/>
        <pt x="426" y="598" on="1"/>
        <pt x="443" y="679" on="1"/>
        <pt x="524" y="679" on="1"/>
      </contour>
    </TTGlyph>
    <TTGlyph name="dollar" xMin="58" yMin="-56" xMax="555" yMax="750">
      <contour>
        <pt x="359" y="397" on="1"/>
        <pt x="392" y="390" on="0"/>
        <pt x="438" y="359" on="0"/>
        <pt x="468" y="317" on="0"/>
        <pt x="481" y="267" on="0"/>
        <pt x="481" y="240" on="1"/>
        <pt x="481" y="199" on="0"/>
        <pt x="450" y="117" on="0"/>
        <pt x="394" y="49" on="0"/>
        <pt x="318" y="1" on="0"/>
        <pt x="273" y="-7" on="1"/>
        <pt x="262" y="-56" on="1"/>
        <pt x="204" y="-56" on="1"/>
        <pt x="214" y="-9" on="1"/>
        <pt x="177" y="-5" on="0"/>
        <pt x="119" y="16" on="0"/>
        <pt x="79" y="39" on="0"/>
        <pt x="58" y="59" on="0"/>
        <pt x="58" y="61" on="1"/>
        <pt x="58" y="62" on="0"/>
        <pt x="62" y="71" on="0"/>
        <pt x="62" y="72" on="1"/>
        <pt x="83" y="127" on="1"/>
        <pt x="84" y="127" on="1"/>
        <pt x="91" y="120" on="0"/>
        <pt x="113" y="97" on="0"/>
        <pt x="147" y="75" on="0"/>
        <pt x="195" y="57" on="0"/>
        <pt x="227" y="54" on="1"/>
        <pt x="285" y="324" on="1"/>
        <pt x="244" y="333" on="0"/>
        <pt x="194" y="370" on="0"/>
        <pt x="167" y="413" on="0"/>
        <pt x="159" y="457" on="0"/>
        <pt x="159" y="474" on="1"/>
        <pt x="159" y="507" on="0"/>
        <pt x="185" y="578" on="0"/>
        <pt x="235" y="641" on="0"/>
        <pt x="308" y="690" on="0"/>
        <pt x="355" y="700" on="1"/>
        <pt x="363" y="702" on="0"/>
        <pt x="367" y="706" on="0"/>
        <pt x="369" y="717" on="1"/>
        <pt x="375" y="750" on="1"/>
        <pt x="433" y="750" on="1"/>
        <pt x="424" y="703" on="1"/>
        <pt x="456" y="701" on="0"/>
        <pt x="505" y="683" on="0"/>
        <pt x="538" y="663" on="0"/>
        <pt x="555" y="647" on="0"/>
        <pt x="555" y="647" on="1"/>
        <pt x="555" y="644" on="0"/>
        <pt x="552" y="636" on="0"/>
        <pt x="551" y="634" on="1"/>
        <pt x="530" y="583" on="1"/>
        <pt x="499" y="616" on="0"/>
        <pt x="434" y="639" on="0"/>
        <pt x="410" y="641" on="1"/>
      </contour>
      <contour>
        <pt x="352" y="639" on="1"/>
        <pt x="327" y="633" on="0"/>
        <pt x="283" y="605" on="0"/>
        <pt x="251" y="568" on="0"/>
        <pt x="233" y="524" on="0"/>
        <pt x="233" y="502" on="1"/>
        <pt x="233" y="490" on="0"/>
        <pt x="240" y="464" on="0"/>
        <pt x="256" y="439" on="0"/>
        <pt x="283" y="418" on="0"/>
        <pt x="303" y="413" on="1"/>
      </contour>
      <contour>
        <pt x="286" y="56" on="1"/>
        <pt x="314" y="64" on="0"/>
        <pt x="359" y="97" on="0"/>
        <pt x="390" y="140" on="0"/>
        <pt x="407" y="189" on="0"/>
        <pt x="407" y="212" on="1"/>
        <pt x="407" y="225" on="0"/>
        <pt x="401" y="254" on="0"/>
        <pt x="386" y="281" on="0"/>
        <pt x="360" y="303" on="0"/>
        <pt x="340" y="309" on="1"/>
      </contour>
    </TTGlyph>
    <TTGlyph name="dotaccent" xMin="219" yMin="593" xMax="323" yMax="679">
      <contour>
        <pt x="305" y="593" on="1"/>
        <pt x="219" y="593" on="1"/>
        <pt x="237" y="679" on="1"/>
        <pt x="323" y="679" on="1"/>
      </contour>
    </TTGlyph>
    <TTGlyph name="dotlessi" xMin="78" yMin="0" xMax="246" yMax="444">
      <contour>
        <pt x="152" y="0" on="1"/>
        <pt x="78" y="0" on="1"/>
        <pt x="172" y="444" on="1"/>
        <pt x="246" y="444" on="1"/>
      </contour>
    </TTGlyph>
    <TTGlyph name="e" xMin="75" yMin="-10" xMax="465" yMax="459">
      <contour>
        <pt x="168" y="225" on="1"/>
        <pt x="155" y="225" on="0"/>
        <pt x="149" y="221" on="0"/>
        <pt x="147" y="212" on="1"/>
        <pt x="145" y="200" on="0"/>
        <pt x="145" y="185" on="0"/>
        <pt x="145" y="180" on="1"/>
        <pt x="145" y="153" on="0"/>
        <pt x="160" y="106" on="0"/>
        <pt x="189" y="71" on="0"/>
        <pt x="230" y="50" on="0"/>
        <pt x="257" y="50" on="1"/>
        <pt x="287" y="50" on="0"/>
        <pt x="373" y="74" on="0"/>
        <pt x="418" y="107" on="1"/>
        <pt x="417" y="99" on="0"/>
        <pt x="415" y="79" on="0"/>
        <pt x="412" y="60" on="0"/>
        <pt x="410" y="47" on="0"/>
        <pt x="410" y="45" on="1"/>
        <pt x="409" y="43" on="0"/>
        <pt x="381" y="25" on="0"/>
        <pt x="336" y="6" on="0"/>
        <pt x="276" y="-10" on="0"/>
        <pt x="243" y="-10" on="1"/>
        <pt x="207" y="-10" on="0"/>
        <pt x="145" y="16" on="0"/>
        <pt x="100" y="63" on="0"/>
        <pt x="75" y="130" on="0"/>
        <pt x="75" y="171" on="1"/>
        <pt x="75" y="225" on="0"/>
        <pt x="118" y="329" on="0"/>
        <pt x="189" y="410" on="0"/>
        <pt x="280" y="459" on="0"/>
        <pt x="328" y="459" on="1"/>
        <pt x="352" y="459" on="0"/>
        <pt x="401" y="445" on="0"/>
        <pt x="440" y="411" on="0"/>
        <pt x="465" y="353" on="0"/>
        <pt x="465" y="309" on="1"/>
        <pt x="465" y="283" on="0"/>
        <pt x="457" y="232" on="0"/>
        <pt x="455" y="225" on="1"/>
      </contour>
      <contour>
        <pt x="407" y="279" on="1"/>
        <pt x="408" y="283" on="0"/>
        <pt x="408" y="291" on="1"/>
        <pt x="408" y="322" on="0"/>
        <pt x="392" y="363" on="0"/>
        <pt x="366" y="388" on="0"/>
        <pt x="333" y="399" on="0"/>
        <pt x="316" y="399" on="1"/>
        <pt x="274" y="399" on="0"/>
        <pt x="192" y="333" on="0"/>
        <pt x="168" y="279" on="1"/>
      </contour>
    </TTGlyph>
    <TTGlyph name="eight" xMin="75" yMin="-21" xMax="545" yMax="676">
      <contour>
        <pt x="387" y="353" on="1"/>
        <pt x="432" y="339" on="0"/>
        <pt x="490" y="266" on="0"/>
        <pt x="490" y="215" on="1"/>
        <pt x="490" y="174" on="0"/>
        <pt x="450" y="90" on="0"/>
        <pt x="381" y="22" on="0"/>
        <pt x="291" y="-21" on="0"/>
        <pt x="240" y="-21" on="1"/>
        <pt x="204" y="-21" on="0"/>
        <pt x="143" y="3" on="0"/>
        <pt x="99" y="46" on="0"/>
        <pt x="75" y="105" on="0"/>
        <pt x="75" y="140" on="1"/>
        <pt x="75" y="179" on="0"/>
        <pt x="104" y="247" on="0"/>
        <pt x="152" y="302" on="0"/>
        <pt x="216" y="343" on="0"/>
        <pt x="252" y="354" on="1"/>
        <pt x="214" y="367" on="0"/>
        <pt x="158" y="427" on="0"/>
        <pt x="158" y="475" on="1"/>
        <pt x="158" y="510" on="0"/>
        <pt x="195" y="582" on="0"/>
        <pt x="258" y="640" on="0"/>
        <pt x="341" y="676" on="0"/>
        <pt x="388" y="676" on="1"/>
        <pt x="423" y="676" on="0"/>
        <pt x="480" y="655" on="0"/>
        <pt x="522" y="617" on="0"/>
        <pt x="545" y="565" on="0"/>
        <pt x="545" y="534" on="1"/>
        <pt x="545" y="503" on="0"/>
        <pt x="521" y="447" on="0"/>
        <pt x="479" y="400" on="0"/>
        <pt x="421" y="364" on="0"/>
      </contour>
      <contour>
        <pt x="327" y="384" on="1"/>
        <pt x="362" y="384" on="0"/>
        <pt x="417" y="410" on="0"/>
        <pt x="456" y="452" on="0"/>
        <pt x="476" y="504" on="0"/>
        <pt x="476" y="530" on="1"/>
        <pt x="476" y="571" on="0"/>
        <pt x="424" y="619" on="0"/>
        <pt x="376" y="619" on="1"/>
        <pt x="340" y="619" on="0"/>
        <pt x="285" y="593" on="0"/>
        <pt x="246" y="551" on="0"/>
        <pt x="226" y="499" on="0"/>
        <pt x="226" y="473" on="1"/>
        <pt x="226" y="437" on="0"/>
        <pt x="274" y="384" on="0"/>
      </contour>
      <contour>
        <pt x="253" y="39" on="1"/>
        <pt x="290" y="39" on="0"/>
        <pt x="349" y="72" on="0"/>
        <pt x="390" y="124" on="0"/>
        <pt x="412" y="189" on="0"/>
        <pt x="412" y="221" on="1"/>
        <pt x="412" y="253" on="0"/>
        <pt x="391" y="293" on="0"/>
        <pt x="361" y="316" on="0"/>
        <pt x="327" y="324" on="0"/>
        <pt x="313" y="324" on="1"/>
        <pt x="279" y="324" on="0"/>
        <pt x="221" y="294" on="0"/>
        <pt x="178" y="243" on="0"/>
        <pt x="154" y="177" on="0"/>
        <pt x="154" y="141" on="1"/>
        <pt x="154" y="111" on="0"/>
        <pt x="173" y="72" on="0"/>
        <pt x="202" y="48" on="0"/>
        <pt x="237" y="39" on="0"/>
      </contour>
    </TTGlyph>
    <TTGlyph name="emdash" xMin="52" yMin="244" xMax="1043" yMax="304">
      <contour>
        <pt x="1030" y="244" on="1"/>
        <pt x="52" y="244" on="1"/>
        <pt x="65" y="304" on="1"/>
        <pt x="1043" y="304" on="1"/>
      </contour>
    </TTGlyph>
    <TTGlyph name="endash" xMin="52" yMin="244" xMax="554" yMax="304">
      <contour>
        <pt x="541" y="244" on="1"/>
        <pt x="52" y="244" on="1"/>
        <pt x="65" y="304" on="1"/>
        <pt x="554" y="304" on="1"/>
      </contour>
    </TTGlyph>
    <TTGlyph name="equal" xMin="87" yMin="135" xMax="780" yMax="364">
      <contour>
        <pt x="159" y="327" on="1"/>
        <pt x="149" y="327" on="0"/>
        <pt x="128" y="332" on="0"/>
        <pt x="128" y="346" on="1"/>
        <pt x="128" y="360" on="0"/>
        <pt x="150" y="364" on="0"/>
        <pt x="159" y="364" on="1"/>
        <pt x="748" y="364" on="1"/>
        <pt x="760" y="364" on="0"/>
        <pt x="780" y="359" on="0"/>
        <pt x="780" y="345" on="1"/>
        <pt x="780" y="331" on="0"/>
        <pt x="759" y="327" on="0"/>
        <pt x="748" y="327" on="1"/>
      </contour>
      <contour>
        <pt x="119" y="135" on="1"/>
        <pt x="107" y="135" on="0"/>
        <pt x="87" y="140" on="0"/>
        <pt x="87" y="154" on="1"/>
        <pt x="87" y="168" on="0"/>
        <pt x="108" y="172" on="0"/>
        <pt x="119" y="172" on="1"/>
        <pt x="708" y="172" on="1"/>
        <pt x="718" y="172" on="0"/>
        <pt x="739" y="167" on="0"/>
        <pt x="739" y="153" on="1"/>
        <pt x="739" y="139" on="0"/>
        <pt x="717" y="135" on="0"/>
        <pt x="708" y="135" on="1"/>
      </contour>
    </TTGlyph>
    <TTGlyph name="exclam" xMin="115" yMin="0" xMax="344" yMax="694">
      <contour>
        <pt x="225" y="173" on="1"/>
        <pt x="160" y="173" on="1"/>
        <pt x="262" y="694" on="1"/>
        <pt x="344" y="694" on="1"/>
      </contour>
      <contour>
        <pt x="132" y="81" on="1"/>
        <pt x="213" y="81" on="1"/>
        <pt x="196" y="0" on="1"/>
        <pt x="115" y="0" on="1"/>
      </contour>
    </TTGlyph>
    <TTGlyph name="exclamdown" xMin="74" yMin="-194" xMax="302" yMax="500">
      <contour>
        <pt x="285" y="419" on="1"/>
        <pt x="204" y="419" on="1"/>
        <pt x="221" y="500" on="1"/>
        <pt x="302" y="500" on="1"/>
      </contour>
      <contour>
        <pt x="193" y="327" on="1"/>
        <pt x="257" y="327" on="1"/>
        <pt x="155" y="-194" on="1"/>
        <pt x="74" y="-194" on="1"/>
      </contour>
    </TTGlyph>
    <TTGlyph name="f" xMin="99" yMin="0" xMax="486" yMax="704">
      <contour>
        <pt x="173" y="0" on="1"/>
        <pt x="99" y="0" on="1"/>
        <pt x="181" y="386" on="1"/>
        <pt x="108" y="386" on="1"/>
        <pt x="120" y="444" on="1"/>
        <pt x="193" y="444" on="1"/>
        <pt x="214" y="539" on="1"/>
        <pt x="222" y="573" on="0"/>
        <pt x="258" y="633" on="0"/>
        <pt x="311" y="678" on="0"/>
        <pt x="375" y="704" on="0"/>
        <pt x="411" y="704" on="1"/>
        <pt x="440" y="704" on="0"/>
        <pt x="482" y="696" on="0"/>
        <pt x="486" y="694" on="1"/>
        <pt x="472" y="628" on="1"/>
        <pt x="450" y="638" on="0"/>
        <pt x="412" y="644" on="0"/>
        <pt x="398" y="644" on="1"/>
        <pt x="389" y="644" on="0"/>
        <pt x="358" y="640" on="0"/>
        <pt x="326" y="624" on="0"/>
        <pt x="298" y="593" on="0"/>
        <pt x="292" y="567" on="1"/>
        <pt x="265" y="444" on="1"/>
        <pt x="374" y="444" on="1"/>
        <pt x="362" y="386" on="1"/>
        <pt x="255" y="386" on="1"/>
      </contour>
    </TTGlyph>
    <TTGlyph name="f_f" xMin="99" yMin="0" xMax="758" yMax="704">
      <contour>
        <pt x="173" y="0" on="1"/>
        <pt x="99" y="0" on="1"/>
        <pt x="181" y="386" on="1"/>
        <pt x="108" y="386" on="1"/>
        <pt x="120" y="444" on="1"/>
        <pt x="193" y="444" on="1"/>
        <pt x="214" y="539" on="1"/>
        <pt x="222" y="573" on="0"/>
        <pt x="258" y="633" on="0"/>
        <pt x="310" y="678" on="0"/>
        <pt x="376" y="704" on="0"/>
        <pt x="412" y="704" on="1"/>
        <pt x="422" y="704" on="0"/>
        <pt x="464" y="701" on="0"/>
        <pt x="487" y="694" on="1"/>
        <pt x="473" y="628" on="1"/>
        <pt x="450" y="639" on="0"/>
        <pt x="411" y="644" on="0"/>
        <pt x="398" y="644" on="1"/>
        <pt x="391" y="644" on="0"/>
        <pt x="361" y="640" on="0"/>
        <pt x="328" y="625" on="0"/>
        <pt x="298" y="594" on="0"/>
        <pt x="292" y="567" on="1"/>
        <pt x="265" y="444" on="1"/>
        <pt x="375" y="444" on="1"/>
        <pt x="363" y="386" on="1"/>
        <pt x="255" y="386" on="1"/>
      </contour>
      <contour>
        <pt x="444" y="0" on="1"/>
        <pt x="370" y="0" on="1"/>
        <pt x="485" y="539" on="1"/>
        <pt x="492" y="572" on="0"/>
        <pt x="528" y="631" on="0"/>
        <pt x="581" y="677" on="0"/>
        <pt x="646" y="704" on="0"/>
        <pt x="683" y="704" on="1"/>
        <pt x="693" y="704" on="0"/>
        <pt x="735" y="701" on="0"/>
        <pt x="758" y="694" on="1"/>
        <pt x="744" y="628" on="1"/>
        <pt x="721" y="639" on="0"/>
        <pt x="682" y="644" on="0"/>
        <pt x="669" y="644" on="1"/>
        <pt x="662" y="644" on="0"/>
        <pt x="632" y="640" on="0"/>
        <pt x="599" y="625" on="0"/>
        <pt x="569" y="594" on="0"/>
        <pt x="563" y="567" on="1"/>
        <pt x="536" y="444" on="1"/>
        <pt x="646" y="444" on="1"/>
        <pt x="634" y="386" on="1"/>
        <pt x="526" y="386" on="1"/>
      </contour>
    </TTGlyph>
    <TTGlyph name="f_f_i" xMin="99" yMin="0" xMax="867" yMax="704">
      <contour>
        <pt x="850" y="614" on="1"/>
        <pt x="769" y="614" on="1"/>
        <pt x="786" y="695" on="1"/>
        <pt x="867" y="695" on="1"/>
      </contour>
      <contour>
        <pt x="736" y="444" on="1"/>
        <pt x="810" y="444" on="1"/>
        <pt x="716" y="0" on="1"/>
        <pt x="642" y="0" on="1"/>
      </contour>
      <contour>
        <pt x="486" y="539" on="1"/>
        <pt x="494" y="574" on="0"/>
        <pt x="526" y="635" on="0"/>
        <pt x="571" y="679" on="0"/>
        <pt x="624" y="704" on="0"/>
        <pt x="651" y="704" on="1"/>
        <pt x="662" y="704" on="0"/>
        <pt x="677" y="703" on="0"/>
        <pt x="689" y="701" on="0"/>
        <pt x="700" y="698" on="0"/>
        <pt x="707" y="695" on="1"/>
        <pt x="693" y="627" on="1"/>
        <pt x="685" y="633" on="0"/>
        <pt x="657" y="644" on="0"/>
        <pt x="639" y="644" on="1"/>
        <pt x="632" y="644" on="0"/>
        <pt x="610" y="639" on="0"/>
        <pt x="588" y="622" on="0"/>
        <pt x="569" y="592" on="0"/>
        <pt x="564" y="567" on="1"/>
        <pt x="537" y="444" on="1"/>
        <pt x="654" y="444" on="1"/>
        <pt x="642" y="386" on="1"/>
        <pt x="527" y="386" on="1"/>
        <pt x="445" y="0" on="1"/>
        <pt x="371" y="0" on="1"/>
      </contour>
      <contour>
        <pt x="173" y="0" on="1"/>
        <pt x="99" y="0" on="1"/>
        <pt x="181" y="386" on="1"/>
        <pt x="108" y="386" on="1"/>
        <pt x="120" y="444" on="1"/>
        <pt x="193" y="444" on="1"/>
        <pt x="215" y="543" on="1"/>
        <pt x="222" y="574" on="0"/>
        <pt x="255" y="632" on="0"/>
        <pt x="302" y="677" on="0"/>
        <pt x="362" y="704" on="0"/>
        <pt x="395" y="704" on="1"/>
        <pt x="418" y="704" on="0"/>
        <pt x="452" y="696" on="0"/>
        <pt x="460" y="694" on="1"/>
        <pt x="446" y="628" on="1"/>
        <pt x="432" y="636" on="0"/>
        <pt x="399" y="644" on="0"/>
        <pt x="382" y="644" on="1"/>
        <pt x="376" y="644" on="0"/>
        <pt x="351" y="640" on="0"/>
        <pt x="323" y="625" on="0"/>
        <pt x="298" y="594" on="0"/>
        <pt x="292" y="567" on="1"/>
        <pt x="265" y="444" on="1"/>
        <pt x="382" y="444" on="1"/>
        <pt x="370" y="386" on="1"/>
        <pt x="255" y="386" on="1"/>
      </contour>
    </TTGlyph>
    <TTGlyph name="f_f_l" xMin="99" yMin="0" xMax="864" yMax="704">
      <contour>
        <pt x="173" y="0" on="1"/>
        <pt x="99" y="0" on="1"/>
        <pt x="181" y="386" on="1"/>
        <pt x="108" y="386" on="1"/>
        <pt x="120" y="444" on="1"/>
        <pt x="193" y="444" on="1"/>
        <pt x="215" y="543" on="1"/>
        <pt x="222" y="574" on="0"/>
        <pt x="255" y="632" on="0"/>
        <pt x="302" y="677" on="0"/>
        <pt x="362" y="704" on="0"/>
        <pt x="395" y="704" on="1"/>
        <pt x="418" y="704" on="0"/>
        <pt x="452" y="696" on="0"/>
        <pt x="460" y="694" on="1"/>
        <pt x="446" y="628" on="1"/>
        <pt x="432" y="636" on="0"/>
        <pt x="399" y="644" on="0"/>
        <pt x="382" y="644" on="1"/>
        <pt x="376" y="644" on="0"/>
        <pt x="351" y="640" on="0"/>
        <pt x="323" y="625" on="0"/>
        <pt x="298" y="594" on="0"/>
        <pt x="292" y="567" on="1"/>
        <pt x="265" y="444" on="1"/>
        <pt x="382" y="444" on="1"/>
        <pt x="370" y="386" on="1"/>
        <pt x="255" y="386" on="1"/>
      </contour>
      <contour>
        <pt x="716" y="0" on="1"/>
        <pt x="642" y="0" on="1"/>
        <pt x="790" y="694" on="1"/>
        <pt x="864" y="694" on="1"/>
      </contour>
      <contour>
        <pt x="445" y="0" on="1"/>
        <pt x="371" y="0" on="1"/>
        <pt x="486" y="539" on="1"/>
        <pt x="494" y="574" on="0"/>
        <pt x="526" y="635" on="0"/>
        <pt x="571" y="679" on="0"/>
        <pt x="624" y="704" on="0"/>
        <pt x="651" y="704" on="1"/>
        <pt x="656" y="704" on="0"/>
        <pt x="675" y="702" on="0"/>
        <pt x="693" y="699" on="0"/>
        <pt x="706" y="694" on="0"/>
        <pt x="706" y="690" on="1"/>
        <pt x="693" y="628" on="1"/>
        <pt x="688" y="631" on="0"/>
        <pt x="659" y="644" on="0"/>
        <pt x="639" y="644" on="1"/>
        <pt x="632" y="644" on="0"/>
        <pt x="610" y="639" on="0"/>
        <pt x="588" y="622" on="0"/>
        <pt x="569" y="592" on="0"/>
        <pt x="564" y="567" on="1"/>
        <pt x="537" y="444" on="1"/>
        <pt x="654" y="444" on="1"/>
        <pt x="642" y="386" on="1"/>
        <pt x="527" y="386" on="1"/>
      </contour>
    </TTGlyph>
    <TTGlyph name="fi" xMin="99" yMin="0" xMax="595" yMax="704">
      <contour>
        <pt x="578" y="614" on="1"/>
        <pt x="497" y="614" on="1"/>
        <pt x="514" y="695" on="1"/>
        <pt x="595" y="695" on="1"/>
      </contour>
      <contour>
        <pt x="464" y="444" on="1"/>
        <pt x="538" y="444" on="1"/>
        <pt x="444" y="0" on="1"/>
        <pt x="370" y="0" on="1"/>
      </contour>
      <contour>
        <pt x="265" y="444" on="1"/>
        <pt x="382" y="444" on="1"/>
        <pt x="370" y="386" on="1"/>
        <pt x="255" y="386" on="1"/>
        <pt x="173" y="0" on="1"/>
        <pt x="99" y="0" on="1"/>
        <pt x="181" y="386" on="1"/>
        <pt x="108" y="386" on="1"/>
        <pt x="120" y="444" on="1"/>
        <pt x="193" y="444" on="1"/>
        <pt x="215" y="543" on="1"/>
        <pt x="222" y="575" on="0"/>
        <pt x="254" y="634" on="0"/>
        <pt x="297" y="678" on="0"/>
        <pt x="351" y="704" on="0"/>
        <pt x="379" y="704" on="1"/>
        <pt x="384" y="704" on="0"/>
        <pt x="403" y="702" on="0"/>
        <pt x="421" y="699" on="0"/>
        <pt x="434" y="694" on="0"/>
        <pt x="434" y="690" on="1"/>
        <pt x="421" y="626" on="1"/>
        <pt x="400" y="644" on="0"/>
        <pt x="367" y="644" on="1"/>
        <pt x="360" y="644" on="0"/>
        <pt x="338" y="639" on="0"/>
        <pt x="316" y="622" on="0"/>
        <pt x="297" y="592" on="0"/>
        <pt x="292" y="567" on="1"/>
      </contour>
    </TTGlyph>
    <TTGlyph name="five" xMin="54" yMin="-21" xMax="546" yMax="655">
      <contour>
        <pt x="232" y="386" on="1"/>
        <pt x="247" y="397" on="0"/>
        <pt x="307" y="426" on="0"/>
        <pt x="345" y="426" on="1"/>
        <pt x="376" y="426" on="0"/>
        <pt x="428" y="402" on="0"/>
        <pt x="467" y="359" on="0"/>
        <pt x="489" y="297" on="0"/>
        <pt x="489" y="258" on="1"/>
        <pt x="489" y="201" on="0"/>
        <pt x="442" y="99" on="0"/>
        <pt x="367" y="23" on="0"/>
        <pt x="271" y="-21" on="0"/>
        <pt x="221" y="-21" on="1"/>
        <pt x="175" y="-21" on="0"/>
        <pt x="82" y="23" on="0"/>
        <pt x="54" y="78" on="1"/>
        <pt x="99" y="132" on="1"/>
        <pt x="107" y="106" on="0"/>
        <pt x="138" y="70" on="0"/>
        <pt x="175" y="48" on="0"/>
        <pt x="215" y="39" on="0"/>
        <pt x="233" y="39" on="1"/>
        <pt x="274" y="39" on="0"/>
        <pt x="337" y="80" on="0"/>
        <pt x="382" y="145" on="0"/>
        <pt x="405" y="226" on="0"/>
        <pt x="405" y="267" on="1"/>
        <pt x="405" y="317" on="0"/>
        <pt x="364" y="366" on="0"/>
        <pt x="332" y="366" on="1"/>
        <pt x="294" y="366" on="0"/>
        <pt x="228" y="323" on="0"/>
        <pt x="206" y="287" on="1"/>
        <pt x="140" y="287" on="1"/>
        <pt x="218" y="655" on="1"/>
        <pt x="546" y="655" on="1"/>
        <pt x="533" y="593" on="1"/>
        <pt x="276" y="593" on="1"/>
      </contour>
    </TTGlyph>
    <TTGlyph name="fl" xMin="99" yMin="0" xMax="592" yMax="704">
      <contour>
        <pt x="173" y="0" on="1"/>
        <pt x="99" y="0" on="1"/>
        <pt x="181" y="386" on="1"/>
        <pt x="108" y="386" on="1"/>
        <pt x="120" y="444" on="1"/>
        <pt x="193" y="444" on="1"/>
        <pt x="215" y="543" on="1"/>
        <pt x="222" y="575" on="0"/>
        <pt x="254" y="634" on="0"/>
        <pt x="297" y="678" on="0"/>
        <pt x="351" y="704" on="0"/>
        <pt x="379" y="704" on="1"/>
        <pt x="384" y="704" on="0"/>
        <pt x="403" y="702" on="0"/>
        <pt x="421" y="699" on="0"/>
        <pt x="434" y="694" on="0"/>
        <pt x="434" y="690" on="1"/>
        <pt x="421" y="628" on="1"/>
        <pt x="416" y="631" on="0"/>
        <pt x="387" y="644" on="0"/>
        <pt x="367" y="644" on="1"/>
        <pt x="360" y="644" on="0"/>
        <pt x="338" y="639" on="0"/>
        <pt x="316" y="622" on="0"/>
        <pt x="297" y="592" on="0"/>
        <pt x="292" y="567" on="1"/>
        <pt x="265" y="444" on="1"/>
        <pt x="382" y="444" on="1"/>
        <pt x="370" y="386" on="1"/>
        <pt x="255" y="386" on="1"/>
      </contour>
      <contour>
        <pt x="444" y="0" on="1"/>
        <pt x="370" y="0" on="1"/>
        <pt x="518" y="694" on="1"/>
        <pt x="592" y="694" on="1"/>
      </contour>
    </TTGlyph>
    <TTGlyph name="four" xMin="64" yMin="0" xMax="511" yMax="655">
      <contour>
        <pt x="365" y="0" on="1"/>
        <pt x="286" y="0" on="1"/>
        <pt x="323" y="172" on="1"/>
        <pt x="64" y="172" on="1"/>
        <pt x="72" y="210" on="1"/>
        <pt x="75" y="225" on="0"/>
        <pt x="78" y="234" on="0"/>
        <pt x="85" y="242" on="1"/>
        <pt x="414" y="655" on="1"/>
        <pt x="504" y="655" on="1"/>
        <pt x="414" y="232" on="1"/>
        <pt x="511" y="232" on="1"/>
        <pt x="499" y="172" on="1"/>
        <pt x="402" y="172" on="1"/>
      </contour>
      <contour>
        <pt x="153" y="232" on="1"/>
        <pt x="340" y="232" on="1"/>
        <pt x="420" y="610" on="1"/>
        <pt x="416" y="597" on="0"/>
        <pt x="403" y="574" on="1"/>
        <pt x="392" y="554" on="0"/>
        <pt x="348" y="485" on="0"/>
        <pt x="309" y="432" on="1"/>
      </contour>
    </TTGlyph>
    <TTGlyph name="g" xMin="10" yMin="-205" xMax="561" yMax="454">
      <contour>
        <pt x="559" y="393" on="1"/>
        <pt x="542" y="395" on="0"/>
        <pt x="523" y="395" on="0"/>
        <pt x="507" y="395" on="1"/>
        <pt x="476" y="395" on="0"/>
        <pt x="434" y="391" on="0"/>
        <pt x="430" y="391" on="1"/>
        <pt x="427" y="391" on="0"/>
        <pt x="424" y="393" on="1"/>
        <pt x="424" y="392" on="0"/>
        <pt x="440" y="355" on="0"/>
        <pt x="440" y="327" on="1"/>
        <pt x="440" y="290" on="0"/>
        <pt x="407" y="219" on="0"/>
        <pt x="353" y="164" on="0"/>
        <pt x="283" y="131" on="0"/>
        <pt x="246" y="131" on="1"/>
        <pt x="217" y="131" on="0"/>
        <pt x="174" y="149" on="0"/>
        <pt x="162" y="160" on="1"/>
        <pt x="148" y="143" on="0"/>
        <pt x="142" y="118" on="0"/>
        <pt x="142" y="110" on="1"/>
        <pt x="142" y="95" on="0"/>
        <pt x="151" y="79" on="0"/>
        <pt x="165" y="71" on="0"/>
        <pt x="182" y="70" on="0"/>
        <pt x="189" y="70" on="1"/>
        <pt x="274" y="70" on="1"/>
        <pt x="325" y="70" on="0"/>
        <pt x="392" y="54" on="0"/>
        <pt x="433" y="24" on="0"/>
        <pt x="450" y="-17" on="0"/>
        <pt x="450" y="-41" on="1"/>
        <pt x="450" y="-83" on="0"/>
        <pt x="402" y="-145" on="0"/>
        <pt x="328" y="-186" on="0"/>
        <pt x="240" y="-205" on="0"/>
        <pt x="201" y="-205" on="1"/>
        <pt x="156" y="-205" on="0"/>
        <pt x="86" y="-186" on="0"/>
        <pt x="36" y="-154" on="0"/>
        <pt x="10" y="-112" on="0"/>
        <pt x="10" y="-89" on="1"/>
        <pt x="10" y="-64" on="0"/>
        <pt x="49" y="6" on="0"/>
        <pt x="97" y="32" on="1"/>
        <pt x="96" y="34" on="0"/>
        <pt x="85" y="59" on="0"/>
        <pt x="85" y="82" on="1"/>
        <pt x="85" y="102" on="0"/>
        <pt x="96" y="137" on="0"/>
        <pt x="111" y="165" on="0"/>
        <pt x="129" y="187" on="0"/>
        <pt x="135" y="193" on="1"/>
        <pt x="135" y="194" on="0"/>
        <pt x="119" y="231" on="0"/>
        <pt x="119" y="258" on="1"/>
        <pt x="119" y="295" on="0"/>
        <pt x="152" y="365" on="0"/>
        <pt x="206" y="420" on="0"/>
        <pt x="276" y="454" on="0"/>
        <pt x="314" y="454" on="1"/>
        <pt x="340" y="454" on="0"/>
        <pt x="385" y="436" on="0"/>
        <pt x="400" y="422" on="1"/>
        <pt x="454" y="443" on="0"/>
        <pt x="533" y="454" on="0"/>
        <pt x="561" y="454" on="1"/>
      </contour>
      <contour>
        <pt x="257" y="186" on="1"/>
        <pt x="285" y="186" on="0"/>
        <pt x="328" y="212" on="0"/>
        <pt x="356" y="253" on="0"/>
        <pt x="371" y="302" on="0"/>
        <pt x="371" y="326" on="1"/>
        <pt x="371" y="349" on="0"/>
        <pt x="357" y="377" on="0"/>
        <pt x="336" y="393" on="0"/>
        <pt x="312" y="399" on="0"/>
        <pt x="302" y="399" on="1"/>
        <pt x="274" y="399" on="0"/>
        <pt x="231" y="372" on="0"/>
        <pt x="202" y="330" on="0"/>
        <pt x="188" y="281" on="0"/>
        <pt x="188" y="259" on="1"/>
        <pt x="188" y="223" on="0"/>
        <pt x="226" y="186" on="0"/>
      </contour>
      <contour>
        <pt x="173" y="-2" on="1"/>
        <pt x="144" y="-2" on="0"/>
        <pt x="108" y="-22" on="0"/>
        <pt x="88" y="-49" on="0"/>
        <pt x="81" y="-75" on="0"/>
        <pt x="81" y="-81" on="1"/>
        <pt x="81" y="-110" on="0"/>
        <pt x="154" y="-150" on="0"/>
        <pt x="213" y="-150" on="1"/>
        <pt x="244" y="-150" on="0"/>
        <pt x="303" y="-137" on="0"/>
        <pt x="350" y="-113" on="0"/>
        <pt x="378" y="-81" on="0"/>
        <pt x="378" y="-61" on="1"/>
        <pt x="378" y="-44" on="0"/>
        <pt x="359" y="-21" on="0"/>
        <pt x="327" y="-8" on="0"/>
        <pt x="284" y="-2" on="0"/>
        <pt x="259" y="-2" on="1"/>
      </contour>
    </TTGlyph>
    <TTGlyph name="germandbls" xMin="78" yMin="-10" xMax="536" yMax="704">
      <contour>
        <pt x="406" y="411" on="1"/>
        <pt x="448" y="382" on="0"/>
        <pt x="486" y="289" on="0"/>
        <pt x="486" y="240" on="1"/>
        <pt x="486" y="183" on="0"/>
        <pt x="446" y="91" on="0"/>
        <pt x="383" y="26" on="0"/>
        <pt x="304" y="-10" on="0"/>
        <pt x="266" y="-10" on="1"/>
        <pt x="257" y="-10" on="0"/>
        <pt x="209" y="-5" on="0"/>
        <pt x="182" y="7" on="1"/>
        <pt x="214" y="64" on="1"/>
        <pt x="244" y="50" on="0"/>
        <pt x="278" y="50" on="1"/>
        <pt x="304" y="50" on="0"/>
        <pt x="351" y="76" on="0"/>
        <pt x="388" y="124" on="0"/>
        <pt x="410" y="193" on="0"/>
        <pt x="410" y="236" on="1"/>
        <pt x="410" y="274" on="0"/>
        <pt x="390" y="329" on="0"/>
        <pt x="357" y="365" on="0"/>
        <pt x="313" y="384" on="0"/>
        <pt x="288" y="385" on="1"/>
        <pt x="300" y="444" on="1"/>
        <pt x="341" y="445" on="0"/>
        <pt x="402" y="473" on="0"/>
        <pt x="441" y="513" on="0"/>
        <pt x="460" y="559" on="0"/>
        <pt x="460" y="577" on="1"/>
        <pt x="460" y="607" on="0"/>
        <pt x="420" y="644" on="0"/>
        <pt x="382" y="644" on="1"/>
        <pt x="379" y="644" on="0"/>
        <pt x="349" y="641" on="0"/>
        <pt x="312" y="624" on="0"/>
        <pt x="277" y="587" on="0"/>
        <pt x="270" y="553" on="1"/>
        <pt x="152" y="0" on="1"/>
        <pt x="78" y="0" on="1"/>
        <pt x="197" y="558" on="1"/>
        <pt x="204" y="590" on="0"/>
        <pt x="243" y="644" on="0"/>
        <pt x="297" y="683" on="0"/>
        <pt x="362" y="704" on="0"/>
        <pt x="395" y="704" on="1"/>
        <pt x="428" y="704" on="0"/>
        <pt x="480" y="685" on="0"/>
        <pt x="517" y="652" on="0"/>
        <pt x="536" y="609" on="0"/>
        <pt x="536" y="585" on="1"/>
        <pt x="536" y="581" on="0"/>
        <pt x="532" y="544" on="0"/>
        <pt x="507" y="494" on="0"/>
        <pt x="454" y="437" on="0"/>
      </contour>
    </TTGlyph>
    <TTGlyph name="grave" xMin="229" yMin="527" xMax="400" yMax="694">
      <contour>
        <pt x="229" y="694" on="1"/>
        <pt x="305" y="694" on="1"/>
        <pt x="400" y="527" on="1"/>
        <pt x="340" y="527" on="1"/>
      </contour>
    </TTGlyph>
    <TTGlyph name="h" xMin="77" yMin="0" xMax="495" yMax="694">
      <contour>
        <pt x="424" y="0" on="1"/>
        <pt x="348" y="0" on="1"/>
        <pt x="412" y="303" on="1"/>
        <pt x="414" y="308" on="0"/>
        <pt x="415" y="320" on="0"/>
        <pt x="415" y="329" on="1"/>
        <pt x="415" y="336" on="0"/>
        <pt x="413" y="358" on="0"/>
        <pt x="398" y="379" on="0"/>
        <pt x="366" y="394" on="0"/>
        <pt x="336" y="394" on="1"/>
        <pt x="299" y="394" on="0"/>
        <pt x="250" y="353" on="0"/>
        <pt x="220" y="297" on="0"/>
        <pt x="204" y="242" on="0"/>
        <pt x="201" y="227" on="1"/>
        <pt x="153" y="0" on="1"/>
        <pt x="77" y="0" on="1"/>
        <pt x="225" y="694" on="1"/>
        <pt x="299" y="694" on="1"/>
        <pt x="233" y="385" on="1"/>
        <pt x="241" y="393" on="0"/>
        <pt x="269" y="416" on="0"/>
        <pt x="308" y="438" on="0"/>
        <pt x="357" y="454" on="0"/>
        <pt x="386" y="454" on="1"/>
        <pt x="409" y="454" on="0"/>
        <pt x="448" y="445" on="0"/>
        <pt x="478" y="422" on="0"/>
        <pt x="495" y="385" on="0"/>
        <pt x="495" y="357" on="1"/>
        <pt x="495" y="342" on="0"/>
        <pt x="490" y="315" on="0"/>
        <pt x="488" y="304" on="1"/>
      </contour>
    </TTGlyph>
    <TTGlyph name="hungarumlaut" xMin="218" yMin="527" xMax="555" yMax="694">
      <contour>
        <pt x="278" y="527" on="1"/>
        <pt x="218" y="527" on="1"/>
        <pt x="316" y="694" on="1"/>
        <pt x="392" y="694" on="1"/>
      </contour>
      <contour>
        <pt x="441" y="527" on="1"/>
        <pt x="381" y="527" on="1"/>
        <pt x="479" y="694" on="1"/>
        <pt x="555" y="694" on="1"/>
      </contour>
    </TTGlyph>
    <TTGlyph name="hyphen" xMin="52" yMin="193" xMax="324" yMax="251">
      <contour>
        <pt x="312" y="193" on="1"/>
        <pt x="52" y="193" on="1"/>
        <pt x="64" y="251" on="1"/>
        <pt x="324" y="251" on="1"/>
      </contour>
    </TTGlyph>
    <TTGlyph name="i" xMin="78" yMin="0" xMax="302" yMax="679">
      <contour>
        <pt x="284" y="593" on="1"/>
        <pt x="198" y="593" on="1"/>
        <pt x="216" y="679" on="1"/>
        <pt x="302" y="679" on="1"/>
      </contour>
      <contour>
        <pt x="172" y="444" on="1"/>
        <pt x="246" y="444" on="1"/>
        <pt x="152" y="0" on="1"/>
        <pt x="78" y="0" on="1"/>
      </contour>
    </TTGlyph>
    <TTGlyph name="j" xMin="-98" yMin="-204" xMax="323" yMax="679">
      <contour>
        <pt x="305" y="593" on="1"/>
        <pt x="219" y="593" on="1"/>
        <pt x="237" y="679" on="1"/>
        <pt x="323" y="679" on="1"/>
      </contour>
      <contour>
        <pt x="199" y="444" on="1"/>
        <pt x="273" y="444" on="1"/>
        <pt x="165" y="-64" on="1"/>
        <pt x="159" y="-94" on="0"/>
        <pt x="129" y="-145" on="0"/>
        <pt x="88" y="-182" on="0"/>
        <pt x="39" y="-204" on="0"/>
        <pt x="12" y="-204" on="1"/>
        <pt x="-20" y="-204" on="0"/>
        <pt x="-78" y="-184" on="0"/>
        <pt x="-98" y="-170" on="1"/>
        <pt x="-70" y="-110" on="1"/>
        <pt x="-57" y="-126" on="0"/>
        <pt x="-21" y="-141" on="0"/>
        <pt x="-1" y="-141" on="1"/>
        <pt x="3" y="-141" on="0"/>
        <pt x="28" y="-139" on="0"/>
        <pt x="57" y="-125" on="0"/>
        <pt x="84" y="-96" on="0"/>
        <pt x="90" y="-70" on="1"/>
      </contour>
    </TTGlyph>
    <TTGlyph name="k" xMin="78" yMin="0" xMax="530" yMax="694">
      <contour>
        <pt x="458" y="0" on="1"/>
        <pt x="376" y="0" on="1"/>
        <pt x="271" y="223" on="1"/>
        <pt x="179" y="144" on="1"/>
        <pt x="148" y="0" on="1"/>
        <pt x="78" y="0" on="1"/>
        <pt x="226" y="694" on="1"/>
        <pt x="299" y="694" on="1"/>
        <pt x="203" y="243" on="1"/>
        <pt x="439" y="444" on="1"/>
        <pt x="530" y="444" on="1"/>
        <pt x="330" y="273" on="1"/>
      </contour>
    </TTGlyph>
    <TTGlyph name="l" xMin="78" yMin="0" xMax="300" yMax="694">
      <contour>
        <pt x="152" y="0" on="1"/>
        <pt x="78" y="0" on="1"/>
        <pt x="226" y="694" on="1"/>
        <pt x="300" y="694" on="1"/>
      </contour>
    </TTGlyph>
    <TTGlyph name="m" xMin="77" yMin="0" xMax="768" yMax="454">
      <contour>
        <pt x="697" y="0" on="1"/>
        <pt x="621" y="0" on="1"/>
        <pt x="685" y="303" on="1"/>
        <pt x="687" y="308" on="0"/>
        <pt x="688" y="320" on="0"/>
        <pt x="688" y="329" on="1"/>
        <pt x="688" y="340" on="0"/>
        <pt x="682" y="363" on="0"/>
        <pt x="665" y="382" on="0"/>
        <pt x="634" y="394" on="0"/>
        <pt x="608" y="394" on="1"/>
        <pt x="571" y="394" on="0"/>
        <pt x="522" y="353" on="0"/>
        <pt x="492" y="297" on="0"/>
        <pt x="476" y="241" on="0"/>
        <pt x="473" y="227" on="1"/>
        <pt x="425" y="0" on="1"/>
        <pt x="349" y="0" on="1"/>
        <pt x="413" y="303" on="1"/>
        <pt x="415" y="308" on="0"/>
        <pt x="416" y="320" on="0"/>
        <pt x="416" y="329" on="1"/>
        <pt x="416" y="340" on="0"/>
        <pt x="410" y="363" on="0"/>
        <pt x="393" y="382" on="0"/>
        <pt x="362" y="394" on="0"/>
        <pt x="336" y="394" on="1"/>
        <pt x="299" y="394" on="0"/>
        <pt x="250" y="353" on="0"/>
        <pt x="220" y="297" on="0"/>
        <pt x="204" y="241" on="0"/>
        <pt x="201" y="227" on="1"/>
        <pt x="153" y="0" on="1"/>
        <pt x="77" y="0" on="1"/>
        <pt x="172" y="449" on="1"/>
        <pt x="243" y="449" on="1"/>
        <pt x="229" y="381" on="1"/>
        <pt x="261" y="412" on="0"/>
        <pt x="339" y="454" on="0"/>
        <pt x="387" y="454" on="1"/>
        <pt x="406" y="454" on="0"/>
        <pt x="443" y="447" on="0"/>
        <pt x="472" y="429" on="0"/>
        <pt x="492" y="398" on="0"/>
        <pt x="495" y="374" on="1"/>
        <pt x="495" y="374" on="0"/>
        <pt x="519" y="399" on="0"/>
        <pt x="562" y="429" on="0"/>
        <pt x="622" y="454" on="0"/>
        <pt x="659" y="454" on="1"/>
        <pt x="681" y="454" on="0"/>
        <pt x="721" y="445" on="0"/>
        <pt x="751" y="422" on="0"/>
        <pt x="768" y="385" on="0"/>
        <pt x="768" y="357" on="1"/>
        <pt x="768" y="342" on="0"/>
        <pt x="763" y="315" on="0"/>
        <pt x="761" y="304" on="1"/>
      </contour>
    </TTGlyph>
    <TTGlyph name="macron" xMin="188" yMin="566" xMax="555" yMax="629">
      <contour>
        <pt x="541" y="566" on="1"/>
        <pt x="188" y="566" on="1"/>
        <pt x="202" y="629" on="1"/>
        <pt x="555" y="629" on="1"/>
      </contour>
    </TTGlyph>
    <TTGlyph name="n" xMin="77" yMin="0" xMax="495" yMax="454">
      <contour>
        <pt x="424" y="0" on="1"/>
        <pt x="348" y="0" on="1"/>
        <pt x="412" y="303" on="1"/>
        <pt x="414" y="308" on="0"/>
        <pt x="415" y="320" on="0"/>
        <pt x="415" y="329" on="1"/>
        <pt x="415" y="336" on="0"/>
        <pt x="413" y="358" on="0"/>
        <pt x="398" y="379" on="0"/>
        <pt x="366" y="394" on="0"/>
        <pt x="336" y="394" on="1"/>
        <pt x="299" y="394" on="0"/>
        <pt x="250" y="353" on="0"/>
        <pt x="220" y="297" on="0"/>
        <pt x="204" y="242" on="0"/>
        <pt x="201" y="227" on="1"/>
        <pt x="153" y="0" on="1"/>
        <pt x="77" y="0" on="1"/>
        <pt x="172" y="449" on="1"/>
        <pt x="243" y="449" on="1"/>
        <pt x="229" y="381" on="1"/>
        <pt x="263" y="415" on="0"/>
        <pt x="342" y="454" on="0"/>
        <pt x="386" y="454" on="1"/>
        <pt x="409" y="454" on="0"/>
        <pt x="448" y="445" on="0"/>
        <pt x="478" y="422" on="0"/>
        <pt x="495" y="385" on="0"/>
        <pt x="495" y="357" on="1"/>
        <pt x="495" y="342" on="0"/>
        <pt x="490" y="315" on="0"/>
        <pt x="488" y="304" on="1"/>
      </contour>
    </TTGlyph>
    <TTGlyph name="nine" xMin="76" yMin="-21" xMax="536" yMax="676">
      <contour>
        <pt x="118" y="77" on="1"/>
        <pt x="131" y="63" on="0"/>
        <pt x="158" y="48" on="0"/>
        <pt x="183" y="40" on="0"/>
        <pt x="204" y="39" on="0"/>
        <pt x="210" y="39" on="1"/>
        <pt x="246" y="39" on="0"/>
        <pt x="313" y="77" on="0"/>
        <pt x="369" y="143" on="0"/>
        <pt x="412" y="230" on="0"/>
        <pt x="425" y="278" on="1"/>
        <pt x="415" y="268" on="0"/>
        <pt x="380" y="239" on="0"/>
        <pt x="333" y="214" on="0"/>
        <pt x="275" y="196" on="0"/>
        <pt x="241" y="196" on="1"/>
        <pt x="201" y="196" on="0"/>
        <pt x="155" y="240" on="0"/>
        <pt x="131" y="297" on="0"/>
        <pt x="125" y="349" on="0"/>
        <pt x="125" y="358" on="1"/>
        <pt x="125" y="427" on="0"/>
        <pt x="172" y="543" on="0"/>
        <pt x="248" y="628" on="0"/>
        <pt x="344" y="676" on="0"/>
        <pt x="392" y="676" on="1"/>
        <pt x="428" y="676" on="0"/>
        <pt x="477" y="651" on="0"/>
        <pt x="509" y="611" on="0"/>
        <pt x="527" y="564" on="0"/>
        <pt x="535" y="520" on="0"/>
        <pt x="536" y="486" on="0"/>
        <pt x="536" y="479" on="1"/>
        <pt x="536" y="442" on="0"/>
        <pt x="522" y="344" on="0"/>
        <pt x="509" y="296" on="1"/>
        <pt x="493" y="236" on="0"/>
        <pt x="431" y="121" on="0"/>
        <pt x="348" y="33" on="0"/>
        <pt x="249" y="-21" on="0"/>
        <pt x="197" y="-21" on="1"/>
        <pt x="159" y="-21" on="0"/>
        <pt x="102" y="0" on="0"/>
        <pt x="76" y="26" on="1"/>
      </contour>
      <contour>
        <pt x="458" y="437" on="1"/>
        <pt x="461" y="457" on="0"/>
        <pt x="462" y="477" on="0"/>
        <pt x="462" y="494" on="1"/>
        <pt x="462" y="506" on="0"/>
        <pt x="459" y="548" on="0"/>
        <pt x="443" y="589" on="0"/>
        <pt x="409" y="619" on="0"/>
        <pt x="379" y="619" on="1"/>
        <pt x="331" y="619" on="0"/>
        <pt x="264" y="562" on="0"/>
        <pt x="222" y="481" on="0"/>
        <pt x="203" y="393" on="0"/>
        <pt x="203" y="363" on="1"/>
        <pt x="203" y="360" on="0"/>
        <pt x="206" y="325" on="0"/>
        <pt x="223" y="287" on="0"/>
        <pt x="259" y="256" on="0"/>
        <pt x="293" y="256" on="1"/>
        <pt x="325" y="256" on="0"/>
        <pt x="381" y="286" on="0"/>
        <pt x="425" y="336" on="0"/>
        <pt x="454" y="402" on="0"/>
      </contour>
    </TTGlyph>
    <TTGlyph name="numbersign" xMin="87" yMin="-194" xMax="834" yMax="694">
      <contour>
        <pt x="391" y="-174" on="1"/>
        <pt x="386" y="-184" on="0"/>
        <pt x="379" y="-194" on="0"/>
        <pt x="370" y="-194" on="1"/>
        <pt x="366" y="-194" on="0"/>
        <pt x="352" y="-186" on="0"/>
        <pt x="352" y="-175" on="1"/>
        <pt x="352" y="-172" on="0"/>
        <pt x="353" y="-166" on="0"/>
        <pt x="358" y="-158" on="1"/>
        <pt x="498" y="135" on="1"/>
        <pt x="313" y="135" on="1"/>
        <pt x="165" y="-174" on="1"/>
        <pt x="160" y="-184" on="0"/>
        <pt x="153" y="-194" on="0"/>
        <pt x="144" y="-194" on="1"/>
        <pt x="140" y="-194" on="0"/>
        <pt x="126" y="-186" on="0"/>
        <pt x="126" y="-175" on="1"/>
        <pt x="126" y="-172" on="0"/>
        <pt x="127" y="-166" on="0"/>
        <pt x="132" y="-158" on="1"/>
        <pt x="272" y="135" on="1"/>
        <pt x="119" y="135" on="1"/>
        <pt x="107" y="135" on="0"/>
        <pt x="87" y="140" on="0"/>
        <pt x="87" y="154" on="1"/>
        <pt x="87" y="168" on="0"/>
        <pt x="108" y="172" on="0"/>
        <pt x="119" y="172" on="1"/>
        <pt x="290" y="172" on="1"/>
        <pt x="364" y="327" on="1"/>
        <pt x="159" y="327" on="1"/>
        <pt x="149" y="327" on="0"/>
        <pt x="128" y="332" on="0"/>
        <pt x="128" y="346" on="1"/>
        <pt x="128" y="360" on="0"/>
        <pt x="150" y="364" on="0"/>
        <pt x="159" y="364" on="1"/>
        <pt x="382" y="364" on="1"/>
        <pt x="531" y="675" on="1"/>
        <pt x="536" y="685" on="0"/>
        <pt x="543" y="694" on="0"/>
        <pt x="551" y="694" on="1"/>
        <pt x="559" y="694" on="0"/>
        <pt x="569" y="683" on="0"/>
        <pt x="569" y="675" on="1"/>
        <pt x="569" y="672" on="0"/>
        <pt x="568" y="666" on="0"/>
        <pt x="564" y="658" on="1"/>
        <pt x="423" y="364" on="1"/>
        <pt x="608" y="364" on="1"/>
        <pt x="757" y="675" on="1"/>
        <pt x="762" y="685" on="0"/>
        <pt x="769" y="694" on="0"/>
        <pt x="777" y="694" on="1"/>
        <pt x="785" y="694" on="0"/>
        <pt x="795" y="683" on="0"/>
        <pt x="795" y="675" on="1"/>
        <pt x="795" y="672" on="0"/>
        <pt x="794" y="666" on="0"/>
        <pt x="790" y="658" on="1"/>
        <pt x="649" y="364" on="1"/>
        <pt x="802" y="364" on="1"/>
        <pt x="814" y="364" on="0"/>
        <pt x="834" y="359" on="0"/>
        <pt x="834" y="345" on="1"/>
        <pt x="834" y="331" on="0"/>
        <pt x="813" y="327" on="0"/>
        <pt x="802" y="327" on="1"/>
        <pt x="631" y="327" on="1"/>
        <pt x="557" y="172" on="1"/>
        <pt x="762" y="172" on="1"/>
        <pt x="771" y="172" on="0"/>
        <pt x="793" y="168" on="0"/>
        <pt x="793" y="154" on="1"/>
        <pt x="793" y="140" on="0"/>
        <pt x="773" y="135" on="0"/>
        <pt x="762" y="135" on="1"/>
        <pt x="539" y="135" on="1"/>
      </contour>
      <contour>
        <pt x="590" y="327" on="1"/>
        <pt x="405" y="327" on="1"/>
        <pt x="331" y="172" on="1"/>
        <pt x="516" y="172" on="1"/>
      </contour>
    </TTGlyph>
    <TTGlyph name="o" xMin="71" yMin="-10" xMax="512" yMax="459">
      <contour>
        <pt x="512" y="275" on="1"/>
        <pt x="512" y="219" on="0"/>
        <pt x="466" y="116" on="0"/>
        <pt x="390" y="37" on="0"/>
        <pt x="294" y="-10" on="0"/>
        <pt x="243" y="-10" on="1"/>
        <pt x="204" y="-10" on="0"/>
        <pt x="141" y="17" on="0"/>
        <pt x="96" y="65" on="0"/>
        <pt x="71" y="130" on="0"/>
        <pt x="71" y="169" on="1"/>
        <pt x="71" y="222" on="0"/>
        <pt x="116" y="326" on="0"/>
        <pt x="191" y="408" on="0"/>
        <pt x="289" y="459" on="0"/>
        <pt x="342" y="459" on="1"/>
        <pt x="381" y="459" on="0"/>
        <pt x="443" y="430" on="0"/>
        <pt x="488" y="381" on="0"/>
        <pt x="512" y="314" on="0"/>
      </contour>
      <contour>
        <pt x="256" y="52" on="1"/>
        <pt x="298" y="52" on="0"/>
        <pt x="365" y="95" on="0"/>
        <pt x="412" y="162" on="0"/>
        <pt x="438" y="243" on="0"/>
        <pt x="438" y="280" on="1"/>
        <pt x="438" y="339" on="0"/>
        <pt x="376" y="399" on="0"/>
        <pt x="329" y="399" on="1"/>
        <pt x="292" y="399" on="0"/>
        <pt x="226" y="363" on="0"/>
        <pt x="177" y="302" on="0"/>
        <pt x="149" y="221" on="0"/>
        <pt x="149" y="175" on="1"/>
        <pt x="149" y="139" on="0"/>
        <pt x="169" y="92" on="0"/>
        <pt x="201" y="63" on="0"/>
        <pt x="238" y="52" on="0"/>
      </contour>
    </TTGlyph>
    <TTGlyph name="oe" xMin="72" yMin="-10" xMax="793" yMax="459">
      <contour>
        <pt x="512" y="225" on="1"/>
        <pt x="505" y="225" on="0"/>
        <pt x="495" y="224" on="0"/>
        <pt x="491" y="215" on="0"/>
        <pt x="489" y="196" on="0"/>
        <pt x="489" y="179" on="1"/>
        <pt x="489" y="122" on="0"/>
        <pt x="548" y="50" on="0"/>
        <pt x="598" y="50" on="1"/>
        <pt x="628" y="50" on="0"/>
        <pt x="703" y="74" on="0"/>
        <pt x="745" y="107" on="1"/>
        <pt x="744" y="100" on="0"/>
        <pt x="742" y="79" on="0"/>
        <pt x="739" y="61" on="0"/>
        <pt x="737" y="47" on="0"/>
        <pt x="737" y="46" on="1"/>
        <pt x="736" y="43" on="0"/>
        <pt x="710" y="25" on="0"/>
        <pt x="668" y="5" on="0"/>
        <pt x="614" y="-10" on="0"/>
        <pt x="584" y="-10" on="1"/>
        <pt x="527" y="-10" on="0"/>
        <pt x="447" y="45" on="0"/>
        <pt x="428" y="90" on="1"/>
        <pt x="377" y="33" on="0"/>
        <pt x="275" y="-10" on="0"/>
        <pt x="235" y="-10" on="1"/>
        <pt x="202" y="-10" on="0"/>
        <pt x="143" y="14" on="0"/>
        <pt x="98" y="60" on="0"/>
        <pt x="72" y="127" on="0"/>
        <pt x="72" y="170" on="1"/>
        <pt x="72" y="226" on="0"/>
        <pt x="117" y="331" on="0"/>
        <pt x="191" y="411" on="0"/>
        <pt x="285" y="459" on="0"/>
        <pt x="334" y="459" on="1"/>
        <pt x="382" y="459" on="0"/>
        <pt x="462" y="410" on="0"/>
        <pt x="484" y="361" on="1"/>
        <pt x="519" y="404" on="0"/>
        <pt x="618" y="459" on="0"/>
        <pt x="668" y="459" on="1"/>
        <pt x="721" y="459" on="0"/>
        <pt x="793" y="391" on="0"/>
        <pt x="793" y="314" on="1"/>
        <pt x="793" y="302" on="0"/>
        <pt x="790" y="274" on="0"/>
        <pt x="786" y="248" on="0"/>
        <pt x="783" y="229" on="0"/>
        <pt x="782" y="225" on="1"/>
      </contour>
      <contour>
        <pt x="733" y="279" on="1"/>
        <pt x="734" y="283" on="0"/>
        <pt x="734" y="293" on="0"/>
        <pt x="734" y="297" on="1"/>
        <pt x="734" y="302" on="0"/>
        <pt x="732" y="335" on="0"/>
        <pt x="717" y="371" on="0"/>
        <pt x="685" y="399" on="0"/>
        <pt x="656" y="399" on="1"/>
        <pt x="618" y="399" on="0"/>
        <pt x="537" y="336" on="0"/>
        <pt x="512" y="279" on="1"/>
      </contour>
      <contour>
        <pt x="248" y="50" on="1"/>
        <pt x="287" y="50" on="0"/>
        <pt x="353" y="93" on="0"/>
        <pt x="399" y="161" on="0"/>
        <pt x="425" y="243" on="0"/>
        <pt x="425" y="282" on="1"/>
        <pt x="425" y="312" on="0"/>
        <pt x="408" y="357" on="0"/>
        <pt x="379" y="385" on="0"/>
        <pt x="342" y="399" on="0"/>
        <pt x="321" y="399" on="1"/>
        <pt x="283" y="399" on="0"/>
        <pt x="218" y="361" on="0"/>
        <pt x="170" y="298" on="0"/>
        <pt x="143" y="217" on="0"/>
        <pt x="143" y="173" on="1"/>
        <pt x="143" y="120" on="0"/>
        <pt x="197" y="50" on="0"/>
      </contour>
    </TTGlyph>
    <TTGlyph name="one" xMin="94" yMin="0" xMax="438" yMax="676">
      <contour>
        <pt x="306" y="58" on="1"/>
        <pt x="429" y="58" on="1"/>
        <pt x="416" y="0" on="1"/>
        <pt x="94" y="0" on="1"/>
        <pt x="106" y="58" on="1"/>
        <pt x="228" y="58" on="1"/>
        <pt x="338" y="576" on="1"/>
        <pt x="309" y="565" on="0"/>
        <pt x="240" y="552" on="0"/>
        <pt x="206" y="552" on="1"/>
        <pt x="215" y="595" on="1"/>
        <pt x="217" y="606" on="0"/>
        <pt x="222" y="611" on="0"/>
        <pt x="232" y="611" on="1"/>
        <pt x="247" y="611" on="0"/>
        <pt x="291" y="616" on="0"/>
        <pt x="341" y="629" on="0"/>
        <pt x="394" y="655" on="0"/>
        <pt x="418" y="676" on="1"/>
        <pt x="438" y="676" on="1"/>
      </contour>
    </TTGlyph>
    <TTGlyph name="oslash" xMin="24" yMin="-112" xMax="560" yMax="557">
      <contour>
        <pt x="466" y="405" on="1"/>
        <pt x="481" y="388" on="0"/>
        <pt x="500" y="351" on="0"/>
        <pt x="509" y="316" on="0"/>
        <pt x="512" y="285" on="0"/>
        <pt x="512" y="275" on="1"/>
        <pt x="512" y="219" on="0"/>
        <pt x="466" y="116" on="0"/>
        <pt x="390" y="37" on="0"/>
        <pt x="294" y="-10" on="0"/>
        <pt x="243" y="-10" on="1"/>
        <pt x="215" y="-10" on="0"/>
        <pt x="172" y="3" on="0"/>
        <pt x="161" y="8" on="1"/>
        <pt x="70" y="-112" on="1"/>
        <pt x="24" y="-82" on="1"/>
        <pt x="118" y="41" on="1"/>
        <pt x="92" y="70" on="0"/>
        <pt x="71" y="135" on="0"/>
        <pt x="71" y="169" on="1"/>
        <pt x="71" y="222" on="0"/>
        <pt x="116" y="326" on="0"/>
        <pt x="191" y="408" on="0"/>
        <pt x="289" y="459" on="0"/>
        <pt x="342" y="459" on="1"/>
        <pt x="387" y="459" on="0"/>
        <pt x="424" y="439" on="1"/>
        <pt x="514" y="557" on="1"/>
        <pt x="560" y="527" on="1"/>
      </contour>
      <contour>
        <pt x="382" y="386" on="1"/>
        <pt x="375" y="390" on="0"/>
        <pt x="348" y="399" on="0"/>
        <pt x="329" y="399" on="1"/>
        <pt x="288" y="399" on="0"/>
        <pt x="221" y="357" on="0"/>
        <pt x="173" y="291" on="0"/>
        <pt x="146" y="209" on="0"/>
        <pt x="146" y="170" on="1"/>
        <pt x="146" y="153" on="0"/>
        <pt x="153" y="116" on="0"/>
        <pt x="163" y="100" on="1"/>
      </contour>
      <contour>
        <pt x="203" y="62" on="1"/>
        <pt x="214" y="57" on="0"/>
        <pt x="241" y="50" on="0"/>
        <pt x="256" y="50" on="1"/>
        <pt x="294" y="50" on="0"/>
        <pt x="360" y="87" on="0"/>
        <pt x="409" y="149" on="0"/>
        <pt x="437" y="230" on="0"/>
        <pt x="437" y="275" on="1"/>
        <pt x="437" y="283" on="0"/>
        <pt x="433" y="324" on="0"/>
        <pt x="421" y="346" on="1"/>
      </contour>
    </TTGlyph>
    <TTGlyph name="p" xMin="37" yMin="-194" xMax="521" yMax="454">
      <contour>
        <pt x="113" y="-194" on="1"/>
        <pt x="37" y="-194" on="1"/>
        <pt x="172" y="444" on="1"/>
        <pt x="246" y="444" on="1"/>
        <pt x="237" y="398" on="1"/>
        <pt x="279" y="427" on="0"/>
        <pt x="368" y="454" on="0"/>
        <pt x="406" y="454" on="1"/>
        <pt x="435" y="454" on="0"/>
        <pt x="478" y="428" on="0"/>
        <pt x="506" y="385" on="0"/>
        <pt x="521" y="326" on="0"/>
        <pt x="521" y="293" on="1"/>
        <pt x="521" y="231" on="0"/>
        <pt x="479" y="121" on="0"/>
        <pt x="411" y="38" on="0"/>
        <pt x="325" y="-10" on="0"/>
        <pt x="282" y="-10" on="1"/>
        <pt x="258" y="-10" on="0"/>
        <pt x="221" y="1" on="0"/>
        <pt x="193" y="17" on="0"/>
        <pt x="171" y="36" on="0"/>
        <pt x="163" y="45" on="1"/>
      </contour>
      <contour>
        <pt x="181" y="127" on="1"/>
        <pt x="179" y="117" on="0"/>
        <pt x="179" y="113" on="1"/>
        <pt x="179" y="108" on="0"/>
        <pt x="193" y="78" on="0"/>
        <pt x="205" y="68" on="1"/>
        <pt x="220" y="55" on="0"/>
        <pt x="248" y="50" on="0"/>
        <pt x="257" y="50" on="1"/>
        <pt x="290" y="50" on="0"/>
        <pt x="357" y="85" on="0"/>
        <pt x="409" y="144" on="0"/>
        <pt x="442" y="223" on="0"/>
        <pt x="442" y="267" on="1"/>
        <pt x="442" y="321" on="0"/>
        <pt x="387" y="392" on="0"/>
        <pt x="339" y="392" on="1"/>
        <pt x="316" y="392" on="0"/>
        <pt x="254" y="368" on="0"/>
        <pt x="225" y="336" on="1"/>
      </contour>
    </TTGlyph>
    <TTGlyph name="parenleft" xMin="109" yMin="-251" xMax="485" yMax="750">
      <contour>
        <pt x="485" y="750" on="1"/>
        <pt x="424" y="699" on="0"/>
        <pt x="318" y="564" on="0"/>
        <pt x="275" y="467" on="1"/>
        <pt x="254" y="418" on="0"/>
        <pt x="220" y="308" on="0"/>
        <pt x="196" y="197" on="0"/>
        <pt x="183" y="90" on="0"/>
        <pt x="183" y="43" on="1"/>
        <pt x="183" y="-51" on="0"/>
        <pt x="228" y="-196" on="0"/>
        <pt x="273" y="-251" on="1"/>
        <pt x="213" y="-251" on="1"/>
        <pt x="166" y="-198" on="0"/>
        <pt x="109" y="-48" on="0"/>
        <pt x="109" y="59" on="1"/>
        <pt x="109" y="74" on="0"/>
        <pt x="114" y="155" on="0"/>
        <pt x="133" y="269" on="0"/>
        <pt x="173" y="407" on="0"/>
        <pt x="243" y="550" on="0"/>
        <pt x="349" y="691" on="0"/>
        <pt x="425" y="750" on="1"/>
      </contour>
    </TTGlyph>
    <TTGlyph name="parenright" xMin="1" yMin="-251" xMax="377" yMax="750">
      <contour>
        <pt x="273" y="750" on="1"/>
        <pt x="329" y="687" on="0"/>
        <pt x="377" y="525" on="0"/>
        <pt x="377" y="440" on="1"/>
        <pt x="377" y="385" on="0"/>
        <pt x="356" y="239" on="0"/>
        <pt x="308" y="82" on="0"/>
        <pt x="231" y="-76" on="0"/>
        <pt x="175" y="-142" on="1"/>
        <pt x="141" y="-183" on="0"/>
        <pt x="87" y="-230" on="0"/>
        <pt x="61" y="-251" on="1"/>
        <pt x="1" y="-251" on="1"/>
        <pt x="69" y="-196" on="0"/>
        <pt x="166" y="-62" on="0"/>
        <pt x="233" y="78" on="0"/>
        <pt x="274" y="217" on="0"/>
        <pt x="296" y="338" on="0"/>
        <pt x="303" y="431" on="0"/>
        <pt x="303" y="456" on="1"/>
        <pt x="303" y="510" on="0"/>
        <pt x="289" y="598" on="0"/>
        <pt x="265" y="670" on="0"/>
        <pt x="232" y="727" on="0"/>
        <pt x="213" y="750" on="1"/>
      </contour>
    </TTGlyph>
    <TTGlyph name="percent" xMin="164" yMin="-56" xMax="800" yMax="750">
      <contour>
        <pt x="203" y="-42" on="1"/>
        <pt x="197" y="-50" on="0"/>
        <pt x="190" y="-56" on="0"/>
        <pt x="184" y="-56" on="1"/>
        <pt x="176" y="-56" on="0"/>
        <pt x="165" y="-45" on="0"/>
        <pt x="165" y="-37" on="1"/>
        <pt x="165" y="-32" on="0"/>
        <pt x="169" y="-27" on="0"/>
        <pt x="174" y="-20" on="1"/>
        <pt x="762" y="736" on="1"/>
        <pt x="767" y="742" on="0"/>
        <pt x="775" y="750" on="0"/>
        <pt x="782" y="750" on="1"/>
        <pt x="786" y="750" on="0"/>
        <pt x="800" y="743" on="0"/>
        <pt x="800" y="731" on="1"/>
        <pt x="800" y="726" on="0"/>
        <pt x="796" y="719" on="0"/>
        <pt x="791" y="713" on="1"/>
      </contour>
      <contour>
        <pt x="799" y="207" on="1"/>
        <pt x="799" y="158" on="0"/>
        <pt x="767" y="63" on="0"/>
        <pt x="714" y="-11" on="0"/>
        <pt x="648" y="-56" on="0"/>
        <pt x="615" y="-56" on="1"/>
        <pt x="591" y="-56" on="0"/>
        <pt x="553" y="-33" on="0"/>
        <pt x="527" y="5" on="0"/>
        <pt x="513" y="57" on="0"/>
        <pt x="513" y="85" on="1"/>
        <pt x="513" y="135" on="0"/>
        <pt x="546" y="229" on="0"/>
        <pt x="599" y="302" on="0"/>
        <pt x="666" y="347" on="0"/>
        <pt x="699" y="347" on="1"/>
        <pt x="724" y="347" on="0"/>
        <pt x="762" y="323" on="0"/>
        <pt x="787" y="284" on="0"/>
        <pt x="799" y="233" on="0"/>
      </contour>
      <contour>
        <pt x="627" y="4" on="1"/>
        <pt x="646" y="4" on="0"/>
        <pt x="683" y="43" on="0"/>
        <pt x="711" y="102" on="0"/>
        <pt x="729" y="173" on="0"/>
        <pt x="729" y="204" on="1"/>
        <pt x="729" y="209" on="0"/>
        <pt x="727" y="236" on="0"/>
        <pt x="719" y="264" on="0"/>
        <pt x="702" y="287" on="0"/>
        <pt x="687" y="287" on="1"/>
        <pt x="662" y="287" on="0"/>
        <pt x="624" y="239" on="0"/>
        <pt x="599" y="171" on="0"/>
        <pt x="586" y="99" on="0"/>
        <pt x="586" y="76" on="1"/>
        <pt x="586" y="54" on="0"/>
        <pt x="593" y="26" on="0"/>
        <pt x="605" y="10" on="0"/>
        <pt x="620" y="4" on="0"/>
      </contour>
      <contour>
        <pt x="449" y="610" on="1"/>
        <pt x="449" y="558" on="0"/>
        <pt x="415" y="463" on="0"/>
        <pt x="363" y="390" on="0"/>
        <pt x="298" y="347" on="0"/>
        <pt x="266" y="347" on="1"/>
        <pt x="219" y="347" on="0"/>
        <pt x="164" y="426" on="0"/>
        <pt x="164" y="488" on="1"/>
        <pt x="164" y="539" on="0"/>
        <pt x="197" y="633" on="0"/>
        <pt x="251" y="706" on="0"/>
        <pt x="317" y="750" on="0"/>
        <pt x="350" y="750" on="1"/>
        <pt x="389" y="750" on="0"/>
        <pt x="449" y="679" on="0"/>
      </contour>
      <contour>
        <pt x="278" y="407" on="1"/>
        <pt x="296" y="407" on="0"/>
        <pt x="332" y="443" on="0"/>
        <pt x="361" y="501" on="0"/>
        <pt x="379" y="572" on="0"/>
        <pt x="379" y="607" on="1"/>
        <pt x="379" y="642" on="0"/>
        <pt x="360" y="690" on="0"/>
        <pt x="338" y="690" on="1"/>
        <pt x="311" y="690" on="0"/>
        <pt x="272" y="637" on="0"/>
        <pt x="248" y="567" on="0"/>
        <pt x="236" y="497" on="0"/>
        <pt x="236" y="479" on="1"/>
        <pt x="236" y="475" on="0"/>
        <pt x="238" y="451" on="0"/>
        <pt x="246" y="426" on="0"/>
        <pt x="263" y="407" on="0"/>
      </contour>
    </TTGlyph>
    <TTGlyph name="period" xMin="95" yMin="0" xMax="193" yMax="81">
      <contour>
        <pt x="176" y="0" on="1"/>
        <pt x="95" y="0" on="1"/>
        <pt x="112" y="81" on="1"/>
        <pt x="193" y="81" on="1"/>
      </contour>
    </TTGlyph>
    <TTGlyph name="plus" xMin="107" yMin="-77" xMax="760" yMax="576">
      <contour>
        <pt x="388" y="-52" on="1"/>
        <pt x="386" y="-62" on="0"/>
        <pt x="379" y="-77" on="0"/>
        <pt x="368" y="-77" on="1"/>
        <pt x="363" y="-77" on="0"/>
        <pt x="350" y="-69" on="0"/>
        <pt x="350" y="-58" on="1"/>
        <pt x="350" y="-53" on="0"/>
        <pt x="351" y="-46" on="0"/>
        <pt x="353" y="-37" on="1"/>
        <pt x="411" y="231" on="1"/>
        <pt x="139" y="231" on="1"/>
        <pt x="128" y="231" on="0"/>
        <pt x="107" y="236" on="0"/>
        <pt x="107" y="250" on="1"/>
        <pt x="107" y="264" on="0"/>
        <pt x="129" y="268" on="0"/>
        <pt x="139" y="268" on="1"/>
        <pt x="418" y="268" on="1"/>
        <pt x="479" y="551" on="1"/>
        <pt x="481" y="561" on="0"/>
        <pt x="488" y="576" on="0"/>
        <pt x="499" y="576" on="1"/>
        <pt x="503" y="576" on="0"/>
        <pt x="517" y="569" on="0"/>
        <pt x="517" y="556" on="1"/>
        <pt x="517" y="554" on="0"/>
        <pt x="514" y="538" on="0"/>
        <pt x="513" y="536" on="1"/>
        <pt x="457" y="268" on="1"/>
        <pt x="728" y="268" on="1"/>
        <pt x="739" y="268" on="0"/>
        <pt x="760" y="264" on="0"/>
        <pt x="760" y="250" on="1"/>
        <pt x="760" y="236" on="0"/>
        <pt x="739" y="231" on="0"/>
        <pt x="728" y="231" on="1"/>
        <pt x="449" y="231" on="1"/>
      </contour>
    </TTGlyph>
    <TTGlyph name="q" xMin="75" yMin="-194" xMax="519" yMax="454">
      <contour>
        <pt x="382" y="-194" on="1"/>
        <pt x="306" y="-194" on="1"/>
        <pt x="358" y="51" on="1"/>
        <pt x="321" y="21" on="0"/>
        <pt x="239" y="-10" on="0"/>
        <pt x="201" y="-10" on="1"/>
        <pt x="172" y="-10" on="0"/>
        <pt x="126" y="15" on="0"/>
        <pt x="93" y="59" on="0"/>
        <pt x="75" y="119" on="0"/>
        <pt x="75" y="155" on="1"/>
        <pt x="75" y="215" on="0"/>
        <pt x="117" y="324" on="0"/>
        <pt x="185" y="406" on="0"/>
        <pt x="271" y="454" on="0"/>
        <pt x="314" y="454" on="1"/>
        <pt x="326" y="454" on="0"/>
        <pt x="356" y="449" on="0"/>
        <pt x="388" y="435" on="0"/>
        <pt x="419" y="410" on="0"/>
        <pt x="432" y="390" on="1"/>
        <pt x="445" y="454" on="1"/>
        <pt x="519" y="454" on="1"/>
      </contour>
      <contour>
        <pt x="411" y="289" on="1"/>
        <pt x="413" y="296" on="0"/>
        <pt x="413" y="302" on="0"/>
        <pt x="413" y="306" on="1"/>
        <pt x="413" y="314" on="0"/>
        <pt x="405" y="351" on="0"/>
        <pt x="394" y="366" on="1"/>
        <pt x="388" y="374" on="0"/>
        <pt x="363" y="392" on="0"/>
        <pt x="337" y="392" on="1"/>
        <pt x="304" y="392" on="0"/>
        <pt x="239" y="358" on="0"/>
        <pt x="186" y="299" on="0"/>
        <pt x="153" y="220" on="0"/>
        <pt x="153" y="176" on="1"/>
        <pt x="153" y="149" on="0"/>
        <pt x="167" y="103" on="0"/>
        <pt x="194" y="69" on="0"/>
        <pt x="232" y="50" on="0"/>
        <pt x="255" y="50" on="1"/>
        <pt x="278" y="50" on="0"/>
        <pt x="316" y="65" on="0"/>
        <pt x="346" y="88" on="0"/>
        <pt x="368" y="112" on="0"/>
        <pt x="375" y="121" on="1"/>
      </contour>
    </TTGlyph>
    <TTGlyph name="question" xMin="176" yMin="0" xMax="528" yMax="704">
      <contour>
        <pt x="192" y="651" on="1"/>
        <pt x="196" y="654" on="0"/>
        <pt x="226" y="671" on="0"/>
        <pt x="273" y="689" on="0"/>
        <pt x="333" y="704" on="0"/>
        <pt x="368" y="704" on="1"/>
        <pt x="400" y="704" on="0"/>
        <pt x="458" y="692" on="0"/>
        <pt x="502" y="663" on="0"/>
        <pt x="528" y="617" on="0"/>
        <pt x="528" y="584" on="1"/>
        <pt x="528" y="550" on="0"/>
        <pt x="507" y="497" on="0"/>
        <pt x="477" y="458" on="0"/>
        <pt x="447" y="433" on="0"/>
        <pt x="438" y="427" on="1"/>
        <pt x="393" y="394" on="0"/>
        <pt x="339" y="328" on="0"/>
        <pt x="307" y="263" on="0"/>
        <pt x="292" y="201" on="0"/>
        <pt x="286" y="173" on="1"/>
        <pt x="221" y="173" on="1"/>
        <pt x="228" y="208" on="0"/>
        <pt x="247" y="282" on="0"/>
        <pt x="285" y="359" on="0"/>
        <pt x="351" y="439" on="0"/>
        <pt x="405" y="480" on="1"/>
        <pt x="422" y="493" on="0"/>
        <pt x="440" y="523" on="0"/>
        <pt x="449" y="551" on="0"/>
        <pt x="451" y="573" on="0"/>
        <pt x="451" y="577" on="1"/>
        <pt x="451" y="609" on="0"/>
        <pt x="410" y="644" on="0"/>
        <pt x="356" y="644" on="1"/>
        <pt x="326" y="644" on="0"/>
        <pt x="276" y="631" on="0"/>
        <pt x="237" y="613" on="0"/>
        <pt x="210" y="595" on="0"/>
        <pt x="202" y="589" on="1"/>
      </contour>
      <contour>
        <pt x="257" y="0" on="1"/>
        <pt x="176" y="0" on="1"/>
        <pt x="193" y="81" on="1"/>
        <pt x="274" y="81" on="1"/>
      </contour>
    </TTGlyph>
    <TTGlyph name="questiondown" xMin="39" yMin="-204" xMax="375" yMax="500">
      <contour>
        <pt x="346" y="419" on="1"/>
        <pt x="265" y="419" on="1"/>
        <pt x="282" y="500" on="1"/>
        <pt x="363" y="500" on="1"/>
      </contour>
      <contour>
        <pt x="375" y="-151" on="1"/>
        <pt x="337" y="-171" on="0"/>
        <pt x="233" y="-204" on="0"/>
        <pt x="175" y="-204" on="1"/>
        <pt x="107" y="-204" on="0"/>
        <pt x="39" y="-146" on="0"/>
        <pt x="39" y="-91" on="1"/>
        <pt x="39" y="-79" on="0"/>
        <pt x="44" y="-42" on="0"/>
        <pt x="59" y="1" on="0"/>
        <pt x="87" y="46" on="0"/>
        <pt x="110" y="65" on="1"/>
        <pt x="151" y="99" on="0"/>
        <pt x="201" y="166" on="0"/>
        <pt x="231" y="231" on="0"/>
        <pt x="247" y="295" on="0"/>
        <pt x="253" y="327" on="1"/>
        <pt x="318" y="327" on="1"/>
        <pt x="311" y="291" on="0"/>
        <pt x="294" y="220" on="0"/>
        <pt x="260" y="145" on="0"/>
        <pt x="204" y="66" on="0"/>
        <pt x="157" y="22" on="1"/>
        <pt x="141" y="7" on="0"/>
        <pt x="124" y="-29" on="0"/>
        <pt x="116" y="-60" on="0"/>
        <pt x="115" y="-83" on="0"/>
        <pt x="115" y="-85" on="1"/>
        <pt x="115" y="-97" on="0"/>
        <pt x="121" y="-119" on="0"/>
        <pt x="137" y="-135" on="0"/>
        <pt x="165" y="-144" on="0"/>
        <pt x="188" y="-144" on="1"/>
        <pt x="240" y="-144" on="0"/>
        <pt x="335" y="-109" on="0"/>
        <pt x="366" y="-89" on="1"/>
      </contour>
    </TTGlyph>
    <TTGlyph name="quotedblleft" xMin="289" yMin="488" xMax="603" yMax="694">
      <contour>
        <pt x="362" y="569" on="1"/>
        <pt x="387" y="569" on="1"/>
        <pt x="370" y="488" on="1"/>
        <pt x="289" y="488" on="1"/>
        <pt x="295" y="518" on="0"/>
        <pt x="302" y="551" on="0"/>
        <pt x="307" y="568" on="0"/>
        <pt x="309" y="574" on="0"/>
        <pt x="311" y="577" on="1"/>
        <pt x="373" y="694" on="1"/>
        <pt x="413" y="694" on="1"/>
      </contour>
      <contour>
        <pt x="552" y="569" on="1"/>
        <pt x="577" y="569" on="1"/>
        <pt x="560" y="488" on="1"/>
        <pt x="479" y="488" on="1"/>
        <pt x="485" y="518" on="0"/>
        <pt x="492" y="551" on="0"/>
        <pt x="497" y="568" on="0"/>
        <pt x="499" y="574" on="0"/>
        <pt x="501" y="577" on="1"/>
        <pt x="563" y="694" on="1"/>
        <pt x="603" y="694" on="1"/>
      </contour>
    </TTGlyph>
    <TTGlyph name="quotedblright" xMin="137" yMin="488" xMax="451" yMax="694">
      <contour>
        <pt x="177" y="488" on="1"/>
        <pt x="137" y="488" on="1"/>
        <pt x="188" y="613" on="1"/>
        <pt x="163" y="613" on="1"/>
        <pt x="180" y="694" on="1"/>
        <pt x="261" y="694" on="1"/>
        <pt x="259" y="683" on="0"/>
        <pt x="254" y="658" on="0"/>
        <pt x="252" y="647" on="1"/>
        <pt x="249" y="635" on="0"/>
        <pt x="246" y="622" on="0"/>
        <pt x="244" y="613" on="0"/>
        <pt x="241" y="608" on="0"/>
        <pt x="239" y="604" on="1"/>
      </contour>
      <contour>
        <pt x="367" y="488" on="1"/>
        <pt x="327" y="488" on="1"/>
        <pt x="378" y="613" on="1"/>
        <pt x="353" y="613" on="1"/>
        <pt x="370" y="694" on="1"/>
        <pt x="451" y="694" on="1"/>
        <pt x="449" y="683" on="0"/>
        <pt x="444" y="658" on="0"/>
        <pt x="442" y="647" on="1"/>
        <pt x="439" y="635" on="0"/>
        <pt x="436" y="622" on="0"/>
        <pt x="434" y="613" on="0"/>
        <pt x="431" y="608" on="0"/>
        <pt x="429" y="604" on="1"/>
      </contour>
    </TTGlyph>
    <TTGlyph name="quoteleft" xMin="199" yMin="488" xMax="323" yMax="694">
      <contour>
        <pt x="272" y="569" on="1"/>
        <pt x="297" y="569" on="1"/>
        <pt x="280" y="488" on="1"/>
        <pt x="199" y="488" on="1"/>
        <pt x="205" y="518" on="0"/>
        <pt x="212" y="551" on="0"/>
        <pt x="217" y="568" on="0"/>
        <pt x="219" y="574" on="0"/>
        <pt x="221" y="577" on="1"/>
        <pt x="283" y="694" on="1"/>
        <pt x="323" y="694" on="1"/>
      </contour>
    </TTGlyph>
    <TTGlyph name="quoteright" xMin="199" yMin="488" xMax="323" yMax="694">
      <contour>
        <pt x="239" y="488" on="1"/>
        <pt x="199" y="488" on="1"/>
        <pt x="250" y="613" on="1"/>
        <pt x="225" y="613" on="1"/>
        <pt x="242" y="694" on="1"/>
        <pt x="323" y="694" on="1"/>
        <pt x="321" y="683" on="0"/>
        <pt x="316" y="658" on="0"/>
        <pt x="314" y="647" on="1"/>
        <pt x="311" y="635" on="0"/>
        <pt x="308" y="622" on="0"/>
        <pt x="306" y="613" on="0"/>
        <pt x="303" y="608" on="0"/>
        <pt x="301" y="604" on="1"/>
      </contour>
    </TTGlyph>
    <TTGlyph name="r" xMin="78" yMin="0" xMax="414" yMax="454">
      <contour>
        <pt x="400" y="387" on="1"/>
        <pt x="363" y="386" on="0"/>
        <pt x="297" y="360" on="0"/>
        <pt x="244" y="316" on="0"/>
        <pt x="208" y="257" on="0"/>
        <pt x="200" y="223" on="1"/>
        <pt x="186" y="162" on="1"/>
        <pt x="152" y="0" on="1"/>
        <pt x="78" y="0" on="1"/>
        <pt x="173" y="449" on="1"/>
        <pt x="242" y="449" on="1"/>
        <pt x="224" y="361" on="1"/>
        <pt x="227" y="365" on="0"/>
        <pt x="256" y="394" on="0"/>
        <pt x="305" y="427" on="0"/>
        <pt x="372" y="453" on="0"/>
        <pt x="414" y="454" on="1"/>
      </contour>
    </TTGlyph>
    <TTGlyph name="ring" xMin="377" yMin="527" xMax="599" yMax="694">
      <contour>
        <pt x="599" y="624" on="1"/>
        <pt x="599" y="605" on="0"/>
        <pt x="577" y="569" on="0"/>
        <pt x="541" y="543" on="0"/>
        <pt x="495" y="527" on="0"/>
        <pt x="471" y="527" on="1"/>
        <pt x="426" y="527" on="0"/>
        <pt x="377" y="570" on="0"/>
        <pt x="377" y="598" on="1"/>
        <pt x="377" y="615" on="0"/>
        <pt x="397" y="649" on="0"/>
        <pt x="431" y="677" on="0"/>
        <pt x="479" y="694" on="0"/>
        <pt x="506" y="694" on="1"/>
        <pt x="548" y="694" on="0"/>
        <pt x="599" y="653" on="0"/>
      </contour>
      <contour>
        <pt x="480" y="569" on="1"/>
        <pt x="502" y="569" on="0"/>
        <pt x="528" y="582" on="0"/>
        <pt x="541" y="600" on="0"/>
        <pt x="544" y="617" on="0"/>
        <pt x="544" y="620" on="1"/>
        <pt x="544" y="632" on="0"/>
        <pt x="532" y="645" on="0"/>
        <pt x="516" y="651" on="0"/>
        <pt x="500" y="652" on="0"/>
        <pt x="497" y="652" on="1"/>
        <pt x="476" y="652" on="0"/>
        <pt x="451" y="641" on="0"/>
        <pt x="438" y="625" on="0"/>
        <pt x="433" y="608" on="0"/>
        <pt x="433" y="602" on="1"/>
        <pt x="433" y="584" on="0"/>
        <pt x="457" y="569" on="0"/>
      </contour>
    </TTGlyph>
    <TTGlyph name="s" xMin="35" yMin="-10" xMax="426" yMax="459">
      <contour>
        <pt x="401" y="363" on="1"/>
        <pt x="377" y="379" on="0"/>
        <pt x="316" y="400" on="0"/>
        <pt x="271" y="400" on="1"/>
        <pt x="234" y="400" on="0"/>
        <pt x="194" y="378" on="0"/>
        <pt x="176" y="351" on="0"/>
        <pt x="173" y="327" on="0"/>
        <pt x="173" y="326" on="1"/>
        <pt x="173" y="297" on="0"/>
        <pt x="220" y="276" on="0"/>
        <pt x="261" y="268" on="1"/>
        <pt x="274" y="265" on="0"/>
        <pt x="315" y="253" on="0"/>
        <pt x="354" y="228" on="0"/>
        <pt x="382" y="186" on="0"/>
        <pt x="382" y="153" on="1"/>
        <pt x="382" y="139" on="0"/>
        <pt x="368" y="85" on="0"/>
        <pt x="327" y="31" on="0"/>
        <pt x="252" y="-10" on="0"/>
        <pt x="190" y="-10" on="1"/>
        <pt x="155" y="-10" on="0"/>
        <pt x="98" y="3" on="0"/>
        <pt x="57" y="20" on="0"/>
        <pt x="35" y="34" on="0"/>
        <pt x="35" y="35" on="1"/>
        <pt x="35" y="38" on="0"/>
        <pt x="38" y="46" on="0"/>
        <pt x="39" y="48" on="1"/>
        <pt x="61" y="102" on="1"/>
        <pt x="86" y="80" on="0"/>
        <pt x="158" y="52" on="0"/>
        <pt x="202" y="52" on="1"/>
        <pt x="243" y="52" on="0"/>
        <pt x="286" y="77" on="0"/>
        <pt x="307" y="107" on="0"/>
        <pt x="310" y="132" on="0"/>
        <pt x="310" y="132" on="1"/>
        <pt x="310" y="149" on="0"/>
        <pt x="296" y="170" on="0"/>
        <pt x="272" y="183" on="0"/>
        <pt x="242" y="191" on="0"/>
        <pt x="226" y="194" on="1"/>
        <pt x="211" y="197" on="0"/>
        <pt x="167" y="209" on="0"/>
        <pt x="128" y="233" on="0"/>
        <pt x="100" y="274" on="0"/>
        <pt x="100" y="305" on="1"/>
        <pt x="100" y="314" on="0"/>
        <pt x="105" y="341" on="0"/>
        <pt x="118" y="373" on="0"/>
        <pt x="141" y="406" on="0"/>
        <pt x="158" y="420" on="1"/>
        <pt x="177" y="435" on="0"/>
        <pt x="217" y="450" on="0"/>
        <pt x="254" y="458" on="0"/>
        <pt x="284" y="459" on="0"/>
        <pt x="292" y="459" on="1"/>
        <pt x="325" y="459" on="0"/>
        <pt x="375" y="449" on="0"/>
        <pt x="409" y="437" on="0"/>
        <pt x="426" y="427" on="0"/>
        <pt x="426" y="426" on="1"/>
        <pt x="426" y="424" on="0"/>
        <pt x="423" y="416" on="0"/>
        <pt x="422" y="414" on="1"/>
      </contour>
    </TTGlyph>
    <TTGlyph name="semicolon" xMin="69" yMin="-125" xMax="270" yMax="444">
      <contour>
        <pt x="253" y="363" on="1"/>
        <pt x="172" y="363" on="1"/>
        <pt x="189" y="444" on="1"/>
        <pt x="270" y="444" on="1"/>
      </contour>
      <contour>
        <pt x="120" y="0" on="1"/>
        <pt x="95" y="0" on="1"/>
        <pt x="112" y="81" on="1"/>
        <pt x="193" y="81" on="1"/>
        <pt x="191" y="70" on="0"/>
        <pt x="185" y="43" on="0"/>
        <pt x="179" y="17" on="0"/>
        <pt x="175" y="-2" on="0"/>
        <pt x="173" y="-4" on="1"/>
        <pt x="170" y="-10" on="0"/>
        <pt x="153" y="-43" on="0"/>
        <pt x="132" y="-82" on="0"/>
        <pt x="113" y="-117" on="0"/>
        <pt x="109" y="-125" on="1"/>
        <pt x="69" y="-125" on="1"/>
      </contour>
    </TTGlyph>
    <TTGlyph name="seven" xMin="148" yMin="-10" xMax="587" yMax="655">
      <contour>
        <pt x="166" y="587" on="1"/>
        <pt x="180" y="655" on="1"/>
        <pt x="587" y="655" on="1"/>
        <pt x="584" y="639" on="0"/>
        <pt x="577" y="608" on="0"/>
        <pt x="574" y="592" on="1"/>
        <pt x="525" y="547" on="0"/>
        <pt x="421" y="422" on="0"/>
        <pt x="327" y="268" on="0"/>
        <pt x="250" y="89" on="0"/>
        <pt x="229" y="-10" on="1"/>
        <pt x="148" y="-10" on="1"/>
        <pt x="170" y="98" on="0"/>
        <pt x="259" y="287" on="0"/>
        <pt x="363" y="440" on="0"/>
        <pt x="469" y="555" on="0"/>
        <pt x="508" y="588" on="1"/>
        <pt x="387" y="588" on="1"/>
        <pt x="378" y="588" on="0"/>
        <pt x="360" y="587" on="0"/>
        <pt x="351" y="587" on="1"/>
      </contour>
    </TTGlyph>
    <TTGlyph name="six" xMin="93" yMin="-21" xMax="546" yMax="676">
      <contour>
        <pt x="534" y="598" on="1"/>
        <pt x="505" y="612" on="0"/>
        <pt x="454" y="619" on="0"/>
        <pt x="435" y="619" on="1"/>
        <pt x="391" y="619" on="0"/>
        <pt x="316" y="575" on="0"/>
        <pt x="256" y="506" on="0"/>
        <pt x="214" y="419" on="0"/>
        <pt x="203" y="377" on="1"/>
        <pt x="204" y="379" on="0"/>
        <pt x="232" y="405" on="0"/>
        <pt x="280" y="435" on="0"/>
        <pt x="347" y="459" on="0"/>
        <pt x="387" y="459" on="1"/>
        <pt x="425" y="459" on="0"/>
        <pt x="471" y="419" on="0"/>
        <pt x="495" y="365" on="0"/>
        <pt x="503" y="311" on="0"/>
        <pt x="503" y="297" on="1"/>
        <pt x="503" y="285" on="0"/>
        <pt x="499" y="236" on="0"/>
        <pt x="483" y="173" on="0"/>
        <pt x="451" y="105" on="0"/>
        <pt x="423" y="74" on="1"/>
        <pt x="380" y="28" on="0"/>
        <pt x="296" y="-21" on="0"/>
        <pt x="242" y="-21" on="1"/>
        <pt x="196" y="-21" on="0"/>
        <pt x="137" y="18" on="0"/>
        <pt x="105" y="78" on="0"/>
        <pt x="93" y="148" on="0"/>
        <pt x="93" y="179" on="1"/>
        <pt x="93" y="192" on="0"/>
        <pt x="98" y="266" on="0"/>
        <pt x="120" y="366" on="0"/>
        <pt x="165" y="482" on="0"/>
        <pt x="206" y="536" on="1"/>
        <pt x="222" y="556" on="0"/>
        <pt x="269" y="605" on="0"/>
        <pt x="330" y="647" on="0"/>
        <pt x="404" y="676" on="0"/>
        <pt x="446" y="676" on="1"/>
        <pt x="465" y="676" on="0"/>
        <pt x="514" y="670" on="0"/>
        <pt x="546" y="656" on="1"/>
      </contour>
      <contour>
        <pt x="171" y="219" on="1"/>
        <pt x="169" y="208" on="0"/>
        <pt x="167" y="178" on="0"/>
        <pt x="167" y="167" on="1"/>
        <pt x="167" y="158" on="0"/>
        <pt x="170" y="115" on="0"/>
        <pt x="187" y="72" on="0"/>
        <pt x="222" y="39" on="0"/>
        <pt x="254" y="39" on="1"/>
        <pt x="278" y="39" on="0"/>
        <pt x="318" y="56" on="0"/>
        <pt x="350" y="81" on="0"/>
        <pt x="373" y="109" on="0"/>
        <pt x="380" y="121" on="1"/>
        <pt x="393" y="143" on="0"/>
        <pt x="410" y="197" on="0"/>
        <pt x="421" y="247" on="0"/>
        <pt x="425" y="286" on="0"/>
        <pt x="425" y="292" on="1"/>
        <pt x="425" y="296" on="0"/>
        <pt x="422" y="331" on="0"/>
        <pt x="405" y="369" on="0"/>
        <pt x="369" y="399" on="0"/>
        <pt x="335" y="399" on="1"/>
        <pt x="304" y="399" on="0"/>
        <pt x="248" y="370" on="0"/>
        <pt x="204" y="320" on="0"/>
        <pt x="175" y="255" on="0"/>
      </contour>
    </TTGlyph>
    <TTGlyph name="slash" xMin="5" yMin="-250" xMax="590" yMax="750">
      <contour>
        <pt x="45" y="-231" on="1"/>
        <pt x="40" y="-241" on="0"/>
        <pt x="31" y="-250" on="0"/>
        <pt x="23" y="-250" on="1"/>
        <pt x="18" y="-250" on="0"/>
        <pt x="5" y="-242" on="0"/>
        <pt x="5" y="-231" on="1"/>
        <pt x="5" y="-226" on="0"/>
        <pt x="12" y="-214" on="0"/>
        <pt x="12" y="-213" on="1"/>
        <pt x="551" y="733" on="1"/>
        <pt x="556" y="743" on="0"/>
        <pt x="566" y="750" on="0"/>
        <pt x="572" y="750" on="1"/>
        <pt x="576" y="750" on="0"/>
        <pt x="590" y="742" on="0"/>
        <pt x="590" y="731" on="1"/>
        <pt x="590" y="730" on="0"/>
        <pt x="588" y="721" on="0"/>
        <pt x="583" y="712" on="1"/>
      </contour>
    </TTGlyph>
    <TTGlyph name="suppress" xMin="61" yMin="270" xMax="310" yMax="399">
      <contour>
        <pt x="67" y="270" on="1"/>
        <pt x="61" y="325" on="1"/>
        <pt x="305" y="399" on="1"/>
        <pt x="310" y="343" on="1"/>
      </contour>
    </TTGlyph>
    <TTGlyph name="t" xMin="100" yMin="-10" xMax="403" yMax="571">
      <contour>
        <pt x="198" y="126" on="1"/>
        <pt x="196" y="115" on="0"/>
        <pt x="195" y="103" on="0"/>
        <pt x="195" y="98" on="1"/>
        <pt x="195" y="71" on="0"/>
        <pt x="216" y="52" on="0"/>
        <pt x="232" y="52" on="1"/>
        <pt x="246" y="52" on="0"/>
        <pt x="292" y="62" on="0"/>
        <pt x="320" y="81" on="1"/>
        <pt x="325" y="84" on="0"/>
        <pt x="327" y="85" on="0"/>
        <pt x="328" y="85" on="1"/>
        <pt x="330" y="85" on="0"/>
        <pt x="331" y="52" on="0"/>
        <pt x="332" y="29" on="1"/>
        <pt x="324" y="25" on="0"/>
        <pt x="294" y="12" on="0"/>
        <pt x="255" y="-1" on="0"/>
        <pt x="207" y="-10" on="0"/>
        <pt x="180" y="-10" on="1"/>
        <pt x="153" y="-10" on="0"/>
        <pt x="118" y="23" on="0"/>
        <pt x="118" y="65" on="1"/>
        <pt x="118" y="79" on="0"/>
        <pt x="122" y="102" on="0"/>
        <pt x="124" y="110" on="1"/>
        <pt x="182" y="386" on="1"/>
        <pt x="100" y="386" on="1"/>
        <pt x="112" y="444" on="1"/>
        <pt x="196" y="444" on="1"/>
        <pt x="223" y="571" on="1"/>
        <pt x="292" y="571" on="1"/>
        <pt x="265" y="444" on="1"/>
        <pt x="403" y="444" on="1"/>
        <pt x="391" y="386" on="1"/>
        <pt x="253" y="386" on="1"/>
      </contour>
    </TTGlyph>
    <TTGlyph name="three" xMin="59" yMin="-21" xMax="536" yMax="676">
      <contour>
        <pt x="174" y="566" on="1"/>
        <pt x="203" y="601" on="0"/>
        <pt x="263" y="644" on="0"/>
        <pt x="320" y="668" on="0"/>
        <pt x="369" y="676" on="0"/>
        <pt x="387" y="676" on="1"/>
        <pt x="421" y="676" on="0"/>
        <pt x="476" y="656" on="0"/>
        <pt x="515" y="623" on="0"/>
        <pt x="536" y="578" on="0"/>
        <pt x="536" y="552" on="1"/>
        <pt x="536" y="540" on="0"/>
        <pt x="525" y="494" on="0"/>
        <pt x="494" y="437" on="0"/>
        <pt x="435" y="378" on="0"/>
        <pt x="387" y="354" on="1"/>
        <pt x="429" y="339" on="0"/>
        <pt x="490" y="269" on="0"/>
        <pt x="490" y="215" on="1"/>
        <pt x="490" y="174" on="0"/>
        <pt x="450" y="90" on="0"/>
        <pt x="381" y="22" on="0"/>
        <pt x="290" y="-21" on="0"/>
        <pt x="238" y="-21" on="1"/>
        <pt x="225" y="-21" on="0"/>
        <pt x="179" y="-15" on="0"/>
        <pt x="128" y="6" on="0"/>
        <pt x="77" y="48" on="0"/>
        <pt x="59" y="85" on="1"/>
        <pt x="82" y="143" on="1"/>
        <pt x="95" y="113" on="0"/>
        <pt x="135" y="73" on="0"/>
        <pt x="180" y="49" on="0"/>
        <pt x="228" y="39" on="0"/>
        <pt x="249" y="39" on="1"/>
        <pt x="285" y="39" on="0"/>
        <pt x="342" y="73" on="0"/>
        <pt x="383" y="125" on="0"/>
        <pt x="405" y="189" on="0"/>
        <pt x="405" y="220" on="1"/>
        <pt x="405" y="259" on="0"/>
        <pt x="378" y="301" on="0"/>
        <pt x="343" y="321" on="0"/>
        <pt x="309" y="324" on="0"/>
        <pt x="302" y="324" on="1"/>
        <pt x="232" y="324" on="1"/>
        <pt x="245" y="384" on="1"/>
        <pt x="259" y="385" on="0"/>
        <pt x="283" y="386" on="0"/>
        <pt x="297" y="388" on="1"/>
        <pt x="343" y="392" on="0"/>
        <pt x="404" y="432" on="0"/>
        <pt x="441" y="483" on="0"/>
        <pt x="456" y="533" on="0"/>
        <pt x="456" y="547" on="1"/>
        <pt x="456" y="579" on="0"/>
        <pt x="413" y="619" on="0"/>
        <pt x="374" y="619" on="1"/>
        <pt x="349" y="619" on="0"/>
        <pt x="298" y="604" on="0"/>
        <pt x="252" y="575" on="0"/>
        <pt x="213" y="536" on="0"/>
        <pt x="199" y="512" on="1"/>
      </contour>
    </TTGlyph>
    <TTGlyph name="tilde" xMin="200" yMin="557" xMax="550" yMax="675">
      <contour>
        <pt x="550" y="675" on="1"/>
        <pt x="544" y="648" on="0"/>
        <pt x="519" y="604" on="0"/>
        <pt x="486" y="574" on="0"/>
        <pt x="448" y="557" on="0"/>
        <pt x="430" y="557" on="1"/>
        <pt x="412" y="557" on="0"/>
        <pt x="383" y="574" on="0"/>
        <pt x="366" y="588" on="1"/>
        <pt x="357" y="596" on="0"/>
        <pt x="328" y="615" on="0"/>
        <pt x="310" y="615" on="1"/>
        <pt x="297" y="615" on="0"/>
        <pt x="279" y="601" on="0"/>
        <pt x="267" y="581" on="0"/>
        <pt x="261" y="562" on="0"/>
        <pt x="260" y="557" on="1"/>
        <pt x="200" y="557" on="1"/>
        <pt x="206" y="581" on="0"/>
        <pt x="230" y="624" on="0"/>
        <pt x="262" y="656" on="0"/>
        <pt x="301" y="675" on="0"/>
        <pt x="321" y="675" on="1"/>
        <pt x="338" y="675" on="0"/>
        <pt x="366" y="660" on="0"/>
        <pt x="381" y="648" on="1"/>
        <pt x="393" y="637" on="0"/>
        <pt x="423" y="617" on="0"/>
        <pt x="440" y="617" on="1"/>
        <pt x="461" y="617" on="0"/>
        <pt x="485" y="652" on="0"/>
        <pt x="490" y="675" on="1"/>
      </contour>
    </TTGlyph>
    <TTGlyph name="two" xMin="49" yMin="0" xMax="544" yMax="676">
      <contour>
        <pt x="440" y="0" on="1"/>
        <pt x="49" y="0" on="1"/>
        <pt x="51" y="8" on="0"/>
        <pt x="55" y="29" on="0"/>
        <pt x="60" y="49" on="0"/>
        <pt x="63" y="62" on="0"/>
        <pt x="64" y="63" on="1"/>
        <pt x="171" y="153" on="1"/>
        <pt x="194" y="173" on="0"/>
        <pt x="242" y="212" on="0"/>
        <pt x="264" y="229" on="1"/>
        <pt x="302" y="259" on="0"/>
        <pt x="373" y="319" on="0"/>
        <pt x="428" y="384" on="0"/>
        <pt x="462" y="457" on="0"/>
        <pt x="462" y="499" on="1"/>
        <pt x="462" y="558" on="0"/>
        <pt x="395" y="614" on="0"/>
        <pt x="349" y="614" on="1"/>
        <pt x="292" y="614" on="0"/>
        <pt x="214" y="537" on="0"/>
        <pt x="180" y="458" on="1"/>
        <pt x="172" y="472" on="0"/>
        <pt x="155" y="504" on="0"/>
        <pt x="150" y="513" on="1"/>
        <pt x="165" y="541" on="0"/>
        <pt x="205" y="599" on="0"/>
        <pt x="259" y="646" on="0"/>
        <pt x="329" y="676" on="0"/>
        <pt x="374" y="676" on="1"/>
        <pt x="418" y="676" on="0"/>
        <pt x="482" y="650" on="0"/>
        <pt x="524" y="605" on="0"/>
        <pt x="544" y="545" on="0"/>
        <pt x="544" y="512" on="1"/>
        <pt x="544" y="474" on="0"/>
        <pt x="523" y="412" on="0"/>
        <pt x="491" y="362" on="0"/>
        <pt x="455" y="325" on="0"/>
        <pt x="441" y="312" on="1"/>
        <pt x="425" y="297" on="0"/>
        <pt x="359" y="247" on="0"/>
        <pt x="275" y="182" on="0"/>
        <pt x="179" y="106" on="0"/>
        <pt x="133" y="67" on="1"/>
        <pt x="241" y="67" on="1"/>
        <pt x="250" y="67" on="0"/>
        <pt x="268" y="68" on="0"/>
        <pt x="277" y="68" on="1"/>
        <pt x="454" y="68" on="1"/>
      </contour>
    </TTGlyph>
    <TTGlyph name="u" xMin="95" yMin="-10" xMax="518" yMax="444">
      <contour>
        <pt x="424" y="0" on="1"/>
        <pt x="350" y="0" on="1"/>
        <pt x="360" y="49" on="1"/>
        <pt x="332" y="28" on="0"/>
        <pt x="276" y="5" on="0"/>
        <pt x="227" y="-7" on="0"/>
        <pt x="190" y="-10" on="0"/>
        <pt x="180" y="-10" on="1"/>
        <pt x="165" y="-10" on="0"/>
        <pt x="134" y="-5" on="0"/>
        <pt x="110" y="12" on="0"/>
        <pt x="95" y="41" on="0"/>
        <pt x="95" y="65" on="1"/>
        <pt x="95" y="82" on="0"/>
        <pt x="98" y="99" on="0"/>
        <pt x="100" y="111" on="1"/>
        <pt x="171" y="444" on="1"/>
        <pt x="247" y="444" on="1"/>
        <pt x="176" y="106" on="1"/>
        <pt x="175" y="102" on="0"/>
        <pt x="173" y="91" on="0"/>
        <pt x="173" y="86" on="1"/>
        <pt x="173" y="62" on="0"/>
        <pt x="207" y="45" on="0"/>
        <pt x="240" y="45" on="1"/>
        <pt x="262" y="45" on="0"/>
        <pt x="306" y="57" on="0"/>
        <pt x="345" y="84" on="0"/>
        <pt x="375" y="127" on="0"/>
        <pt x="381" y="157" on="1"/>
        <pt x="442" y="444" on="1"/>
        <pt x="518" y="444" on="1"/>
      </contour>
    </TTGlyph>
    <TTGlyph name="uni00AD" xMin="52" yMin="193" xMax="324" yMax="251">
      <contour>
        <pt x="312" y="193" on="1"/>
        <pt x="52" y="193" on="1"/>
        <pt x="64" y="251" on="1"/>
        <pt x="324" y="251" on="1"/>
      </contour>
    </TTGlyph>
    <TTGlyph name="uni0237" xMin="-98" yMin="-204" xMax="273" yMax="444">
      <contour>
        <pt x="165" y="-64" on="1"/>
        <pt x="159" y="-94" on="0"/>
        <pt x="129" y="-145" on="0"/>
        <pt x="88" y="-182" on="0"/>
        <pt x="39" y="-204" on="0"/>
        <pt x="12" y="-204" on="1"/>
        <pt x="-20" y="-204" on="0"/>
        <pt x="-78" y="-184" on="0"/>
        <pt x="-98" y="-170" on="1"/>
        <pt x="-65" y="-110" on="1"/>
        <pt x="-52" y="-127" on="0"/>
        <pt x="-16" y="-141" on="0"/>
        <pt x="1" y="-141" on="1"/>
        <pt x="13" y="-141" on="0"/>
        <pt x="41" y="-134" on="0"/>
        <pt x="66" y="-118" on="0"/>
        <pt x="86" y="-92" on="0"/>
        <pt x="90" y="-73" on="1"/>
        <pt x="199" y="444" on="1"/>
        <pt x="273" y="444" on="1"/>
      </contour>
    </TTGlyph>
    <TTGlyph name="uni0394" xMin="41" yMin="0" xMax="774" yMax="694">
      <contour>
        <pt x="774" y="0" on="1"/>
        <pt x="41" y="0" on="1"/>
        <pt x="510" y="694" on="1"/>
        <pt x="600" y="694" on="1"/>
      </contour>
      <contour>
        <pt x="172" y="81" on="1"/>
        <pt x="659" y="81" on="1"/>
        <pt x="575" y="419" on="1"/>
        <pt x="569" y="441" on="0"/>
        <pt x="556" y="496" on="0"/>
        <pt x="543" y="551" on="0"/>
        <pt x="533" y="603" on="0"/>
        <pt x="530" y="622" on="1"/>
        <pt x="511" y="588" on="0"/>
        <pt x="451" y="495" on="0"/>
        <pt x="414" y="441" on="1"/>
      </contour>
    </TTGlyph>
    <TTGlyph name="uni03A9" xMin="44" yMin="0" xMax="755" yMax="715">
      <contour>
        <pt x="662" y="0" on="1"/>
        <pt x="424" y="0" on="1"/>
        <pt x="430" y="25" on="0"/>
        <pt x="447" y="73" on="0"/>
        <pt x="474" y="125" on="0"/>
        <pt x="511" y="183" on="0"/>
        <pt x="535" y="218" on="1"/>
        <pt x="560" y="254" on="0"/>
        <pt x="608" y="325" on="0"/>
        <pt x="645" y="397" on="0"/>
        <pt x="668" y="467" on="0"/>
        <pt x="668" y="501" on="1"/>
        <pt x="668" y="539" on="0"/>
        <pt x="640" y="596" on="0"/>
        <pt x="592" y="635" on="0"/>
        <pt x="528" y="655" on="0"/>
        <pt x="492" y="655" on="1"/>
        <pt x="455" y="655" on="0"/>
        <pt x="364" y="628" on="0"/>
        <pt x="285" y="567" on="0"/>
        <pt x="232" y="468" on="0"/>
        <pt x="232" y="396" on="1"/>
        <pt x="232" y="386" on="0"/>
        <pt x="233" y="361" on="0"/>
        <pt x="238" y="324" on="0"/>
        <pt x="250" y="272" on="0"/>
        <pt x="260" y="234" on="1"/>
        <pt x="271" y="191" on="0"/>
        <pt x="289" y="105" on="0"/>
        <pt x="289" y="66" on="1"/>
        <pt x="289" y="40" on="0"/>
        <pt x="282" y="1" on="0"/>
        <pt x="282" y="0" on="1"/>
        <pt x="44" y="0" on="1"/>
        <pt x="58" y="68" on="1"/>
        <pt x="140" y="68" on="1"/>
        <pt x="149" y="68" on="0"/>
        <pt x="167" y="67" on="0"/>
        <pt x="176" y="67" on="1"/>
        <pt x="228" y="67" on="1"/>
        <pt x="226" y="112" on="0"/>
        <pt x="202" y="191" on="0"/>
        <pt x="186" y="236" on="1"/>
        <pt x="173" y="270" on="0"/>
        <pt x="146" y="360" on="0"/>
        <pt x="146" y="406" on="1"/>
        <pt x="146" y="473" on="0"/>
        <pt x="209" y="586" on="0"/>
        <pt x="310" y="669" on="0"/>
        <pt x="439" y="715" on="0"/>
        <pt x="505" y="715" on="1"/>
        <pt x="561" y="715" on="0"/>
        <pt x="653" y="683" on="0"/>
        <pt x="719" y="627" on="0"/>
        <pt x="755" y="551" on="0"/>
        <pt x="755" y="507" on="1"/>
        <pt x="755" y="470" on="0"/>
        <pt x="731" y="399" on="0"/>
        <pt x="693" y="331" on="0"/>
        <pt x="647" y="269" on="0"/>
        <pt x="626" y="242" on="1"/>
        <pt x="584" y="189" on="0"/>
        <pt x="527" y="110" on="0"/>
        <pt x="507" y="67" on="1"/>
        <pt x="558" y="67" on="1"/>
        <pt x="567" y="67" on="0"/>
        <pt x="585" y="68" on="0"/>
        <pt x="594" y="68" on="1"/>
        <pt x="676" y="68" on="1"/>
      </contour>
    </TTGlyph>
    <TTGlyph name="v" xMin="108" yMin="0" xMax="528" yMax="444">
      <contour>
        <pt x="268" y="0" on="1"/>
        <pt x="179" y="0" on="1"/>
        <pt x="108" y="444" on="1"/>
        <pt x="186" y="444" on="1"/>
        <pt x="223" y="197" on="1"/>
        <pt x="223" y="194" on="0"/>
        <pt x="228" y="163" on="0"/>
        <pt x="232" y="123" on="0"/>
        <pt x="236" y="81" on="0"/>
        <pt x="236" y="69" on="1"/>
        <pt x="236" y="56" on="1"/>
        <pt x="237" y="56" on="1"/>
        <pt x="240" y="64" on="0"/>
        <pt x="251" y="88" on="0"/>
        <pt x="265" y="115" on="0"/>
        <pt x="279" y="140" on="0"/>
        <pt x="283" y="148" on="1"/>
        <pt x="295" y="171" on="0"/>
        <pt x="321" y="219" on="0"/>
        <pt x="332" y="237" on="1"/>
        <pt x="452" y="444" on="1"/>
        <pt x="528" y="444" on="1"/>
      </contour>
    </TTGlyph>
    <TTGlyph name="w" xMin="108" yMin="0" xMax="745" yMax="444">
      <contour>
        <pt x="516" y="0" on="1"/>
        <pt x="429" y="0" on="1"/>
        <pt x="416" y="157" on="1"/>
        <pt x="415" y="167" on="0"/>
        <pt x="412" y="207" on="0"/>
        <pt x="409" y="256" on="0"/>
        <pt x="407" y="308" on="0"/>
        <pt x="407" y="329" on="1"/>
        <pt x="407" y="338" on="0"/>
        <pt x="408" y="365" on="0"/>
        <pt x="410" y="385" on="1"/>
        <pt x="409" y="385" on="1"/>
        <pt x="403" y="367" on="0"/>
        <pt x="383" y="320" on="0"/>
        <pt x="359" y="268" on="0"/>
        <pt x="333" y="215" on="0"/>
        <pt x="321" y="190" on="1"/>
        <pt x="299" y="145" on="0"/>
        <pt x="270" y="87" on="0"/>
        <pt x="249" y="46" on="0"/>
        <pt x="234" y="17" on="0"/>
        <pt x="226" y="0" on="1"/>
        <pt x="148" y="0" on="1"/>
        <pt x="108" y="444" on="1"/>
        <pt x="184" y="444" on="1"/>
        <pt x="200" y="246" on="1"/>
        <pt x="205" y="189" on="0"/>
        <pt x="206" y="121" on="0"/>
        <pt x="206" y="112" on="1"/>
        <pt x="206" y="99" on="0"/>
        <pt x="206" y="66" on="0"/>
        <pt x="205" y="61" on="1"/>
        <pt x="206" y="60" on="1"/>
        <pt x="209" y="71" on="0"/>
        <pt x="224" y="107" on="0"/>
        <pt x="244" y="152" on="0"/>
        <pt x="268" y="203" on="0"/>
        <pt x="281" y="228" on="1"/>
        <pt x="390" y="444" on="1"/>
        <pt x="458" y="444" on="1"/>
        <pt x="475" y="239" on="1"/>
        <pt x="478" y="203" on="0"/>
        <pt x="483" y="125" on="0"/>
        <pt x="483" y="89" on="1"/>
        <pt x="483" y="78" on="0"/>
        <pt x="483" y="64" on="0"/>
        <pt x="482" y="56" on="1"/>
        <pt x="483" y="56" on="1"/>
        <pt x="488" y="71" on="0"/>
        <pt x="506" y="114" on="0"/>
        <pt x="527" y="157" on="0"/>
        <pt x="544" y="192" on="0"/>
        <pt x="547" y="198" on="1"/>
        <pt x="671" y="444" on="1"/>
        <pt x="745" y="444" on="1"/>
      </contour>
    </TTGlyph>
    <TTGlyph name="x" xMin="0" yMin="0" xMax="525" yMax="444">
      <contour>
        <pt x="447" y="0" on="1"/>
        <pt x="363" y="0" on="1"/>
        <pt x="260" y="186" on="1"/>
        <pt x="83" y="0" on="1"/>
        <pt x="0" y="0" on="1"/>
        <pt x="236" y="229" on="1"/>
        <pt x="100" y="444" on="1"/>
        <pt x="184" y="444" on="1"/>
        <pt x="281" y="282" on="1"/>
        <pt x="441" y="444" on="1"/>
        <pt x="525" y="444" on="1"/>
        <pt x="303" y="229" on="1"/>
      </contour>
    </TTGlyph>
    <TTGlyph name="y" xMin="-3" yMin="-204" xMax="528" yMax="444">
      <contour>
        <pt x="205" y="-93" on="1"/>
        <pt x="180" y="-135" on="0"/>
        <pt x="137" y="-180" on="0"/>
        <pt x="102" y="-201" on="0"/>
        <pt x="76" y="-204" on="0"/>
        <pt x="67" y="-204" on="1"/>
        <pt x="47" y="-204" on="0"/>
        <pt x="8" y="-198" on="0"/>
        <pt x="-3" y="-196" on="1"/>
        <pt x="6" y="-131" on="1"/>
        <pt x="32" y="-142" on="0"/>
        <pt x="76" y="-146" on="0"/>
        <pt x="79" y="-146" on="1"/>
        <pt x="97" y="-146" on="0"/>
        <pt x="126" y="-122" on="0"/>
        <pt x="149" y="-85" on="1"/>
        <pt x="152" y="-80" on="0"/>
        <pt x="168" y="-54" on="0"/>
        <pt x="186" y="-25" on="0"/>
        <pt x="199" y="-1" on="0"/>
        <pt x="199" y="2" on="1"/>
        <pt x="199" y="4" on="0"/>
        <pt x="198" y="13" on="0"/>
        <pt x="197" y="15" on="1"/>
        <pt x="108" y="444" on="1"/>
        <pt x="187" y="444" on="1"/>
        <pt x="203" y="362" on="0"/>
        <pt x="225" y="251" on="0"/>
        <pt x="238" y="172" on="0"/>
        <pt x="243" y="116" on="0"/>
        <pt x="243" y="89" on="1"/>
        <pt x="243" y="77" on="0"/>
        <pt x="243" y="61" on="0"/>
        <pt x="242" y="58" on="1"/>
        <pt x="243" y="58" on="1"/>
        <pt x="247" y="73" on="0"/>
        <pt x="267" y="119" on="0"/>
        <pt x="292" y="167" on="0"/>
        <pt x="316" y="211" on="0"/>
        <pt x="323" y="223" on="1"/>
        <pt x="452" y="444" on="1"/>
        <pt x="528" y="444" on="1"/>
      </contour>
    </TTGlyph>
    <TTGlyph name="z" xMin="27" yMin="0" xMax="484" yMax="444">
      <contour>
        <pt x="135" y="60" on="1"/>
        <pt x="225" y="60" on="1"/>
        <pt x="234" y="60" on="0"/>
        <pt x="252" y="61" on="0"/>
        <pt x="261" y="61" on="1"/>
        <pt x="406" y="61" on="1"/>
        <pt x="393" y="0" on="1"/>
        <pt x="27" y="0" on="1"/>
        <pt x="29" y="6" on="0"/>
        <pt x="31" y="22" on="0"/>
        <pt x="33" y="27" on="1"/>
        <pt x="35" y="36" on="0"/>
        <pt x="38" y="43" on="0"/>
        <pt x="45" y="49" on="1"/>
        <pt x="377" y="386" on="1"/>
        <pt x="296" y="386" on="1"/>
        <pt x="287" y="386" on="0"/>
        <pt x="269" y="385" on="0"/>
        <pt x="260" y="385" on="1"/>
        <pt x="123" y="385" on="1"/>
        <pt x="135" y="444" on="1"/>
        <pt x="484" y="444" on="1"/>
        <pt x="478" y="410" on="0"/>
        <pt x="475" y="405" on="1"/>
      </contour>
    </TTGlyph>
    <TTGlyph name="zero" xMin="90" yMin="-21" xMax="538" yMax="676">
      <contour>
        <pt x="538" y="484" on="1"/>
        <pt x="538" y="451" on="0"/>
        <pt x="525" y="361" on="0"/>
        <pt x="504" y="266" on="0"/>
        <pt x="477" y="179" on="0"/>
        <pt x="463" y="150" on="1"/>
        <pt x="455" y="135" on="0"/>
        <pt x="422" y="77" on="0"/>
        <pt x="368" y="21" on="0"/>
        <pt x="291" y="-21" on="0"/>
        <pt x="240" y="-21" on="1"/>
        <pt x="203" y="-21" on="0"/>
        <pt x="151" y="3" on="0"/>
        <pt x="118" y="40" on="0"/>
        <pt x="100" y="85" on="0"/>
        <pt x="91" y="127" on="0"/>
        <pt x="90" y="162" on="0"/>
        <pt x="90" y="170" on="1"/>
        <pt x="90" y="202" on="0"/>
        <pt x="102" y="294" on="0"/>
        <pt x="125" y="392" on="0"/>
        <pt x="155" y="485" on="0"/>
        <pt x="173" y="519" on="1"/>
        <pt x="211" y="592" on="0"/>
        <pt x="319" y="676" on="0"/>
        <pt x="388" y="676" on="1"/>
        <pt x="426" y="676" on="0"/>
        <pt x="477" y="652" on="0"/>
        <pt x="510" y="615" on="0"/>
        <pt x="528" y="570" on="0"/>
        <pt x="537" y="527" on="0"/>
        <pt x="538" y="492" on="0"/>
      </contour>
      <contour>
        <pt x="253" y="39" on="1"/>
        <pt x="288" y="39" on="0"/>
        <pt x="340" y="77" on="0"/>
        <pt x="377" y="126" on="0"/>
        <pt x="399" y="175" on="0"/>
        <pt x="403" y="185" on="1"/>
        <pt x="412" y="209" on="0"/>
        <pt x="434" y="291" on="0"/>
        <pt x="453" y="380" on="0"/>
        <pt x="466" y="464" on="0"/>
        <pt x="466" y="489" on="1"/>
        <pt x="466" y="498" on="0"/>
        <pt x="463" y="539" on="0"/>
        <pt x="446" y="583" on="0"/>
        <pt x="409" y="616" on="0"/>
        <pt x="375" y="616" on="1"/>
        <pt x="345" y="616" on="0"/>
        <pt x="298" y="590" on="0"/>
        <pt x="262" y="550" on="0"/>
        <pt x="236" y="503" on="0"/>
        <pt x="228" y="483" on="1"/>
        <pt x="219" y="459" on="0"/>
        <pt x="197" y="377" on="0"/>
        <pt x="178" y="287" on="0"/>
        <pt x="165" y="200" on="0"/>
        <pt x="165" y="171" on="1"/>
        <pt x="165" y="161" on="0"/>
        <pt x="168" y="118" on="0"/>
        <pt x="184" y="73" on="0"/>
        <pt x="220" y="39" on="0"/>
      </contour>
    </TTGlyph>
</ttFont>
